<svg width="24" height="24" viewBox="0 0 24 24" fill="none" xmlns="http://www.w3.org/2000/svg">
<path d="M5.12109 2.26069V2.25329L5.12094 2.24589C5.1184 2.11716 5.16698 1.99267 5.25605 1.89968C5.34355 1.80832 5.46313 1.7547 5.58937 1.75H18.4105C18.5368 1.75462 18.6564 1.80823 18.744 1.89962C18.8331 1.99261 18.8817 2.11713 18.8792 2.24589L18.879 2.25329V2.26069V21.7377H18.879L18.8791 21.7469C18.8803 21.8464 18.8523 21.944 18.7986 22.0277C18.7454 22.1107 18.6692 22.1764 18.5793 22.2169C18.5053 22.2486 18.4236 22.2578 18.3444 22.2434L18.2099 22.9812L18.3444 22.2434C18.2644 22.2288 18.1905 22.1907 18.1322 22.134L18.1323 22.1339L18.1251 22.1271L12.7965 17.0801C12.7961 17.0797 12.7956 17.0793 12.7952 17.0789C12.5808 16.8749 12.2961 16.7611 12.0001 16.7611C11.7041 16.7611 11.4194 16.8749 11.205 17.0789C11.2045 17.0793 11.2041 17.0797 11.2037 17.0801L5.87508 22.1271L5.87504 22.1271L5.8685 22.1334C5.80997 22.1902 5.73588 22.2283 5.65564 22.243C5.57634 22.2574 5.49456 22.2483 5.42044 22.2167C5.33073 22.1762 5.25467 22.1106 5.20151 22.0277C5.14779 21.944 5.11981 21.8464 5.12103 21.7469H5.12109V21.7377V2.26069Z" stroke="black" stroke-opacity="0.48" stroke-width="1.5"/>
</svg>
