<svg width="21" height="22" viewBox="0 0 21 22" fill="none" xmlns="http://www.w3.org/2000/svg">
<path d="M4.2 9.09824V18.6982H1V9.09824H4.2ZM7.4 18.6982C6.97565 18.6982 6.56869 18.5297 6.26863 18.2296C5.96857 17.9296 5.8 17.5226 5.8 17.0982V9.09824C5.8 8.65824 5.976 8.25824 6.272 7.97024L11.536 2.69824L12.384 3.54624C12.6 3.76224 12.736 4.05824 12.736 4.38624L12.712 4.64224L11.952 8.29824H17C17.4243 8.29824 17.8313 8.46681 18.1314 8.76687C18.4314 9.06693 18.6 9.4739 18.6 9.89824V11.4982C18.6 11.7062 18.56 11.8982 18.488 12.0822L16.072 17.7222C15.832 18.2982 15.264 18.6982 14.6 18.6982H7.4Z" fill="#FE58B5" stroke="#FE58B5"/>
</svg>
