<svg width="22" height="24" viewBox="0 0 22 24" fill="none" xmlns="http://www.w3.org/2000/svg">
<path fill-rule="evenodd" clip-rule="evenodd" d="M13.0274 0.519615L20.0615 4.58058C21.2617 5.2734 21.9999 6.55307 21.9999 7.93887V16.0611C21.9999 17.4468 21.2617 18.7264 20.0615 19.4194L13.0274 23.4804C11.8285 24.1732 10.3494 24.1732 9.15055 23.4804L2.11639 19.4194C0.916254 18.7266 0.177979 17.4469 0.177979 16.0611V7.93887C0.177979 6.5532 0.916254 5.27356 2.11639 4.58058L9.15055 0.519615C10.3494 -0.173205 11.8285 -0.173205 13.0274 0.519615ZM11.089 7.79995C8.76943 7.79995 6.88907 9.68031 6.88907 11.9998C6.88907 14.3194 8.76943 16.1997 11.089 16.1997C13.4085 16.1997 15.2888 14.3194 15.2888 11.9998C15.2888 9.68031 13.4085 7.79995 11.089 7.79995Z" fill="white"/>
</svg>
