<svg width="19" height="20" viewBox="0 0 19 20" fill="none" xmlns="http://www.w3.org/2000/svg">
<path d="M11.12 15.023L6.92096 12.733C6.37276 13.319 5.66095 13.7266 4.87803 13.9028C4.09512 14.0791 3.27731 14.0157 2.53088 13.721C1.78445 13.4263 1.14392 12.9139 0.69253 12.2504C0.241137 11.5869 -0.000244141 10.803 -0.000244141 10.0005C-0.000244141 9.19796 0.241137 8.41402 0.69253 7.75051C1.14392 7.08701 1.78445 6.57461 2.53088 6.27992C3.27731 5.98523 4.09512 5.92187 4.87803 6.09807C5.66095 6.27428 6.37276 6.6819 6.92096 7.26796L11.121 4.97796C10.8825 4.03403 10.9965 3.03555 11.4416 2.16966C11.8867 1.30378 12.6323 0.62994 13.5386 0.274461C14.445 -0.0810187 15.4499 -0.0937358 16.3649 0.238694C17.28 0.571123 18.0424 1.22588 18.5093 2.08022C18.9761 2.93457 19.1153 3.92985 18.9009 4.8795C18.6864 5.82916 18.1329 6.668 17.3442 7.23877C16.5555 7.80954 15.5857 8.07307 14.6166 7.97995C13.6475 7.88684 12.7456 7.44347 12.08 6.73296L7.87996 9.02296C8.04116 9.66432 8.04116 10.3356 7.87996 10.977L12.079 13.267C12.7446 12.5564 13.6464 12.1131 14.6156 12.02C15.5847 11.9268 16.5545 12.1904 17.3432 12.7611C18.1319 13.3319 18.6854 14.1708 18.8999 15.1204C19.1143 16.0701 18.9751 17.0654 18.5083 17.9197C18.0414 18.774 17.279 19.4288 16.3639 19.7612C15.4489 20.0937 14.444 20.0809 13.5376 19.7255C12.6313 19.37 11.8857 18.6961 11.4406 17.8303C10.9955 16.9644 10.8815 15.9659 11.12 15.022V15.023ZM3.99996 12C4.5304 12 5.0391 11.7892 5.41418 11.4142C5.78925 11.0391 5.99996 10.5304 5.99996 9.99996C5.99996 9.46953 5.78925 8.96082 5.41418 8.58575C5.0391 8.21067 4.5304 7.99996 3.99996 7.99996C3.46953 7.99996 2.96082 8.21067 2.58575 8.58575C2.21068 8.96082 1.99996 9.46953 1.99996 9.99996C1.99996 10.5304 2.21068 11.0391 2.58575 11.4142C2.96082 11.7892 3.46953 12 3.99996 12ZM15 5.99996C15.5304 5.99996 16.0391 5.78925 16.4142 5.41417C16.7892 5.0391 17 4.53039 17 3.99996C17 3.46953 16.7892 2.96082 16.4142 2.58575C16.0391 2.21067 15.5304 1.99996 15 1.99996C14.4695 1.99996 13.9608 2.21067 13.5857 2.58575C13.2107 2.96082 13 3.46953 13 3.99996C13 4.53039 13.2107 5.0391 13.5857 5.41417C13.9608 5.78925 14.4695 5.99996 15 5.99996ZM15 18C15.5304 18 16.0391 17.7892 16.4142 17.4142C16.7892 17.0391 17 16.5304 17 16C17 15.4695 16.7892 14.9608 16.4142 14.5857C16.0391 14.2107 15.5304 14 15 14C14.4695 14 13.9608 14.2107 13.5857 14.5857C13.2107 14.9608 13 15.4695 13 16C13 16.5304 13.2107 17.0391 13.5857 17.4142C13.9608 17.7892 14.4695 18 15 18Z" fill="black" fill-opacity="0.48"/>
</svg>
