<svg xmlns="http://www.w3.org/2000/svg" width="181" height="180" viewBox="0 0 181 180" fill="none">
  <path d="M72.5003 -0.00012207H58.1003V7.19984H72.5003V-0.00012207Z" fill="white"/>
  <path d="M86.9 -0.00012207H94.1V7.19984H108.5V14.3998H86.9V-0.00012207Z" fill="white"/>
  <path d="M115.7 -0.00012207H122.9V79.1994H115.7V64.7995H108.5V71.9995H101.297V64.7995H94.1001V57.5995H86.9002V35.9997H79.7002V21.5998H58.1003V14.3998H72.5003V7.19984H79.7002V14.3998H86.9002V21.5998H108.5V28.7997H94.1001V50.3996H101.297V43.1996H108.5V57.5995H115.7V35.9997H108.5V28.7997H115.7V-0.00012207Z" fill="white"/>
  <path d="M0.500488 -0.00012207V50.3996H50.9002V-0.00012207H0.500488ZM43.7002 43.1996H7.70045V7.19984H43.7002V43.1996Z" fill="white"/>
  <path d="M130.1 -0.00012207V50.3996H180.5V-0.00012207H130.1ZM173.3 43.1996H137.3V7.19984H173.3V43.1996Z" fill="white"/>
  <path d="M36.5001 14.4008H14.9003V36.0007H36.5001V14.4008Z" fill="white"/>
  <path d="M166.1 14.4008H144.5V36.0007H166.1V14.4008Z" fill="white"/>
  <path d="M58.1003 28.7995H72.5003V43.1994H65.3003V35.9994H58.1003V28.7995Z" fill="white"/>
  <path d="M58.1003 43.1982H65.3003V50.3981H72.5003V43.1982H79.7002V57.5981H86.9002V64.7981H94.1001V71.998H86.9002V79.198H79.7002V64.7981H72.5003V57.5981H58.1003V43.1982Z" fill="white"/>
  <path d="M50.9002 57.5991H36.5002V64.7991H50.9002V57.5991Z" fill="white"/>
  <path d="M151.7 57.5991H144.5V64.7991H151.7V57.5991Z" fill="white"/>
  <path d="M158.899 57.5991H166.099V71.999H180.499V93.5989H166.099V79.199H158.899V57.5991Z" fill="white"/>
  <path d="M180.5 57.5991H173.3V64.7991H180.5V57.5991Z" fill="white"/>
  <path d="M22.1003 64.7995H7.70038V71.9995H22.1003V64.7995Z" fill="white"/>
  <path d="M36.5004 64.7995H29.3004V71.9995H36.5004V64.7995Z" fill="white"/>
  <path d="M7.70045 72H0.500488V79.2H7.70045V72Z" fill="white"/>
  <path d="M50.9002 72H43.7002V79.2H50.9002V72Z" fill="white"/>
  <path d="M14.9003 79.1982H29.3003V93.5982H22.1003V100.798H14.9003V93.5982H7.70038V86.3982H14.9003V79.1982Z" fill="white"/>
  <path d="M43.7002 79.1982H36.5002V86.3982H43.7002V79.1982Z" fill="white"/>
  <path d="M115.7 79.1982H108.5V86.3982H115.7V79.1982Z" fill="white"/>
  <path d="M50.9002 86.3987H43.7002V93.5987H50.9002V86.3987Z" fill="white"/>
  <path d="M7.70045 93.5992H0.500488V122.399H7.70045V93.5992Z" fill="white"/>
  <path d="M36.5004 93.5992H29.3004V100.802H36.5004V93.5992Z" fill="white"/>
  <path d="M29.3004 100.8H22.1005V108H29.3004V100.8Z" fill="white"/>
  <path d="M50.9002 100.8H43.7002V108H50.9002V100.8Z" fill="white"/>
  <path d="M58.1003 100.8H65.3003V108H72.5003V122.399H65.3003V129.599H58.1003V100.8Z" fill="white"/>
  <path d="M151.697 100.8H137.3V108H151.697V100.8Z" fill="white"/>
  <path d="M180.5 100.8H166.1V108H180.5V100.8Z" fill="white"/>
  <path d="M36.5004 108H29.3004V115.2H36.5004V108Z" fill="white"/>
  <path d="M22.1002 115.198H14.9003V122.401H22.1002V115.198Z" fill="white"/>
  <path d="M50.9002 115.198H36.5002V122.401H50.9002V115.198Z" fill="white"/>
  <path d="M79.7002 122.399H72.5002V129.599H79.7002V122.399Z" fill="white"/>
  <path d="M180.499 122.399V115.199H166.099V107.999H151.699V115.199H122.9V107.999H130.1V100.799H137.299V93.5989H151.699V100.799H158.899V79.199H151.699V71.999H144.499V79.199H137.299V71.999H144.499V64.799H137.299V57.5991H130.1V79.199H122.9V100.799H108.5V86.3989H101.297V100.799H94.097V79.199H86.897V93.5989H79.697V79.199H58.0972V86.3989H65.2971V100.799H72.4999V107.999H79.6998V100.799H86.8998V107.999H79.6998V122.399H86.8998V129.599H94.0997V115.199H101.3V129.599H108.5V122.399H115.7V129.599H108.5V136.799H101.297V158.399H86.8998V165.598H101.297V172.798H86.8998V179.998H122.9V172.798H115.7V165.598H108.5V143.999H115.7V151.199H122.9V158.399H130.1V151.199H151.699V158.399H158.899V151.199H166.099V143.999H158.899V129.599H151.699V122.399H180.499ZM115.7 115.199H108.5V107.999H115.7V115.199ZM144.499 143.999H122.9V122.399H144.499V143.999Z" fill="white"/>
  <path d="M86.9 129.599H79.7001V143.999H86.9V129.599Z" fill="white"/>
  <path d="M137.303 129.599H130.1V136.802H137.303V129.599Z" fill="white"/>
  <path d="M180.5 129.599H173.3V143.999H180.5V129.599Z" fill="white"/>
  <path d="M0.500488 129.599V179.999H50.9002V129.599H0.500488ZM43.7002 172.799H7.70045V136.799H43.7002V172.799Z" fill="white"/>
  <path d="M58.1003 136.8H72.5003V151.2H79.7002V158.4H72.5003V165.599H65.3003V144H58.1003V136.8Z" fill="white"/>
  <path d="M36.5001 143.998H14.9003V165.598H36.5001V143.998Z" fill="white"/>
  <path d="M94.1 143.998H86.9V151.198H94.1V143.998Z" fill="white"/>
  <path d="M180.5 151.198H173.3V179.998H180.5V151.198Z" fill="white"/>
  <path d="M122.902 158.399H115.7V165.599H122.902V158.399Z" fill="white"/>
  <path d="M130.1 158.399H144.5V165.599H158.9V179.999H151.7V172.799H137.3V179.999H130.1V158.399Z" fill="white"/>
  <path d="M166.099 158.399H158.899V165.599H166.099V158.399Z" fill="white"/>
  <path d="M86.9 165.599H79.7001V172.802H86.9V165.599Z" fill="white"/>
  <path d="M72.5003 172.8H65.3003V180H72.5003V172.8Z" fill="white"/>
</svg>