<svg width="248" height="101" viewBox="0 0 248 101" fill="none" xmlns="http://www.w3.org/2000/svg">
<path fill-rule="evenodd" clip-rule="evenodd" d="M75.8105 11.5401C76.5229 11.6446 77.2314 11.8189 77.638 11.997C77.7038 12.0279 77.7696 12.0512 77.7812 12.0512C77.8548 12.0512 78.3659 12.3106 78.6756 12.5003C79.1789 12.8139 79.8952 13.4295 79.8952 13.5495C79.8952 13.5883 79.4306 13.5999 77.5721 13.5999C75.3575 13.5999 75.2375 13.6037 75.1019 13.6734C74.8232 13.8167 74.6064 14.1226 74.5676 14.4323C74.525 14.7459 74.7728 15.1718 75.1019 15.3422C75.2491 15.4196 75.3265 15.4196 78.4007 15.4196H81.5485L81.9976 15.9578C82.2415 16.252 82.4699 16.5153 82.497 16.5463C82.5241 16.5773 82.6171 16.6895 82.7022 16.7941C82.7836 16.9025 82.8649 16.9954 82.8765 17.007C82.892 17.0187 83.0584 17.2355 83.252 17.491C83.6276 17.9943 83.7166 18.2073 83.6779 18.5403C83.6547 18.7726 83.5618 18.8965 83.3527 18.9855C83.1823 19.0591 83.0042 19.0591 72.051 19.0513C63.2156 19.0436 60.9157 19.0281 60.877 18.9894C60.8538 18.9662 60.8035 18.9429 60.7686 18.9429C60.7338 18.9429 60.6602 18.8926 60.6021 18.8345C60.2304 18.4473 60.2692 17.9595 60.6873 17.6343L60.8538 17.5104H63.4247C65.1282 17.5104 66.0265 17.4949 66.0768 17.4716C66.1543 17.4291 66.1775 17.2626 66.1078 17.22C66.0884 17.2045 66.0497 17.1542 66.0304 17.1116C66.011 17.0651 65.9336 16.9219 65.86 16.7941C65.7129 16.5424 65.6199 16.3527 65.5077 16.0778C65.3993 15.8261 65.3993 14.7033 65.5077 14.4517C65.6238 14.1651 65.7555 13.9019 65.8794 13.6967C65.9413 13.5883 66.0071 13.476 66.0187 13.445C66.0342 13.414 66.0729 13.3559 66.1039 13.3211C66.1388 13.2785 66.1504 13.2166 66.1349 13.1546L66.1117 13.0578H64.683C63.9009 13.0578 63.1769 13.0462 63.0762 13.0346C62.7548 12.9881 62.4683 12.6126 62.4722 12.2331C62.4761 11.966 62.6735 11.6795 62.9484 11.5517C63.1072 11.4781 63.2698 11.4781 69.2865 11.482C74.1069 11.4897 75.5394 11.5014 75.8105 11.5401ZM69.9447 13.6618C69.968 13.6308 70.0454 13.596 70.1112 13.5883C70.1809 13.5766 70.7694 13.5728 71.4199 13.5766L72.6085 13.5805L72.8215 13.7276C73.1389 13.9445 73.2357 14.1342 73.2357 14.5175C73.2357 14.835 73.2125 14.8969 73.0073 15.1254C72.9531 15.1834 72.8408 15.2764 72.7634 15.3267L72.6163 15.4196H70.0415L69.8634 15.2957C69.7666 15.2299 69.6272 15.0905 69.5576 14.9898C69.4414 14.8156 69.4298 14.7808 69.4298 14.4904C69.4298 14.2581 69.4453 14.1613 69.4956 14.1071C69.5304 14.0722 69.5576 14.0219 69.5576 14.0064C69.5576 13.9522 69.7976 13.716 69.8518 13.716C69.875 13.716 69.9176 13.6928 69.9447 13.6618Z" fill="url(#paint0_linear_501_27049)"/>
<path d="M60.8848 11.5672C60.997 11.6253 61.1287 11.7337 61.1945 11.8266C61.2952 11.966 61.3107 12.0163 61.3107 12.2525C61.3107 12.6009 61.2177 12.7791 60.9506 12.9533C60.8499 13.0191 60.7415 13.023 59.789 13.023H58.8387C58.7719 13.023 58.7067 13.002 58.6524 12.963L58.5849 12.9146C58.3604 12.7558 58.2558 12.5467 58.252 12.2602C58.252 12.0589 58.2674 12.0008 58.3604 11.8731C58.4881 11.6988 58.5501 11.6446 58.7282 11.544C58.8366 11.482 58.9605 11.4743 59.7736 11.4743C60.6834 11.4704 60.695 11.4704 60.8848 11.5672Z" fill="url(#paint1_linear_501_27049)"/>
<path d="M89.7223 18.3697C92.3163 16.872 92.3163 13.1278 89.7223 11.6301L75.675 2.01101C73.0809 0.513305 69.8383 2.38543 69.8383 5.38083V6.49924C69.8383 7.30111 69.1882 7.95116 68.3863 7.95116H66.8909C66.4659 7.95116 66.1213 8.29568 66.1213 8.72067C66.1213 9.14566 66.4659 9.49019 66.8909 9.49019L69.8383 9.49022L70.1093 9.49146C74.7206 9.51469 75.8473 9.53792 76.3041 9.6231C77.0746 9.77023 77.2527 9.80894 77.5625 9.89799C77.6741 9.93235 77.8048 9.96883 77.8982 9.99489L77.9005 9.99552L77.9378 10.0059C77.9541 10.0105 77.9685 10.0146 77.9806 10.018C78.0619 10.0374 78.1548 10.0684 78.1936 10.0877C78.2284 10.1071 78.4104 10.1884 78.6001 10.2658C79.0415 10.4478 79.5371 10.7033 79.8817 10.9318C80.0326 11.0324 80.1643 11.1254 80.1759 11.137C80.1875 11.1524 80.2843 11.2221 80.3889 11.2918C80.6057 11.4428 81.3684 12.1901 81.6898 12.5657C81.7563 12.6455 81.8558 12.7621 81.9564 12.88L81.958 12.8818C82.0018 12.9332 82.0458 12.9848 82.0873 13.0336L82.1278 13.0813C82.1423 13.0984 82.1564 13.115 82.1699 13.1309C82.2885 13.2648 82.4478 13.4513 82.567 13.5908L82.5684 13.5925L82.6287 13.663L82.6539 13.6923C82.77 13.8317 82.8978 13.9789 82.9365 14.0214C83.0565 14.1492 84.3265 15.6708 84.4736 15.8605C84.5471 15.9573 84.6168 16.0425 84.6285 16.0541C84.6633 16.0851 85.1047 16.6775 85.1898 16.8091C85.3486 17.053 85.4531 17.2931 85.519 17.5641C85.5219 17.5754 85.5252 17.5881 85.5287 17.6018L85.5397 17.6461L85.5483 17.6807L85.5496 17.6857C85.5641 17.7443 85.5795 17.8067 85.5925 17.8545C85.6429 18.052 85.6467 18.6211 85.5925 18.8225C85.5791 18.8813 85.5584 18.9624 85.5404 19.0324C85.5324 19.0637 85.5249 19.0928 85.519 19.1167C85.4647 19.318 85.2944 19.6433 85.1047 19.8949C84.7601 20.3479 84.1522 20.6886 83.5056 20.7893C83.3469 20.8125 80.7412 20.8319 76.5364 20.8396C74.2923 20.8444 71.8066 20.8505 69.8383 20.8554V20.8525H64.4226C63.9976 20.8525 63.6531 21.197 63.6531 21.622C63.6531 22.047 63.9976 22.3915 64.4226 22.3915H68.3863C69.1882 22.3915 69.8383 23.0415 69.8383 23.8434V24.619C69.8383 27.6144 73.0809 29.4865 75.675 27.9888L89.7223 18.3697Z" fill="url(#paint2_linear_501_27049)"/>
<path d="M117.581 13.9769L124.158 23.2077H119.104L114.95 17.5308L109.481 23.2077H104.427L113.173 14.0692L114.097 7.46923L113.358 6.59231H118.62L117.581 13.9769ZM107.058 8.46154L106.597 7.90769H111.212L111.535 14.9231H107.358L107.058 8.46154ZM118.989 14.9231L121.089 8.46154L120.627 7.90769H125.45L123.143 14.9231H118.989ZM128.056 14.0462L130.364 10.7692H127.641L127.964 8.57692H131.91L132.602 7.58461L132.118 7.03077H137.818L136.733 8.57692H146.379L146.056 10.7692H135.187L132.879 14.0462H135.51L135.879 11.4154H140.264L139.895 14.0462H144.718L144.418 16.2385H139.595L139.41 17.5538H145.549L145.249 19.7462H139.087L138.672 22.8154H134.287L134.702 19.7462H125.956L126.256 17.5538H135.026L135.21 16.2385H127.756L128.056 14.0462ZM162.739 7.03077L159.831 11.4615H167.539L167.193 14.0462H163.085L166.547 23.2077H161.608L158.17 14.0462H158.147L152.147 23.2077H147.255L153.255 14.0462H149.216L149.562 11.4615H154.939L157.478 7.60769L156.97 7.03077H162.739ZM159.116 18.8231L159.831 23.1846H155.678L155.193 18.8231H159.116ZM189.391 7.03077L189.068 9.26923H185.307L184.914 10.2615H188.537L187.36 18.5923H185.168L184.799 18.0385L185.607 12.3154H181.522L180.714 18.0385L180.16 18.5923H177.945L179.122 10.2615H181.983L182.376 9.26923H178.914L179.237 7.03077H189.391ZM184.845 13.1231L184.13 17.9692H184.153L187.176 23.1615H183.53L182.445 20.3231L180.276 23.1615H176.86L181.36 17.9692L182.053 13.1231H184.845ZM173.33 7.03077L170.56 23.1615H167.907L170.56 7.90769L170.053 7.03077H173.33ZM178.799 7.03077L176.514 23.1615H174.022L176.168 7.90769L175.568 7.03077H178.799ZM175.614 7.93077L173.537 22.3308H171.622L173.56 8.62308L173.191 7.93077H175.614Z" fill="url(#paint3_linear_501_27049)"/>
<rect y="42" width="247.544" height="0.683824" fill="url(#paint4_linear_501_27049)"/>
<path d="M9.80927 60.2438V58.5038H10.5893V60.2438H12.7733V64.5278H10.6013V66.9638C10.8733 66.9238 11.1333 66.8798 11.3813 66.8318C11.6293 66.7838 11.8773 66.7358 12.1253 66.6878C12.0453 66.4318 11.9613 66.1798 11.8733 65.9318C11.7933 65.6838 11.7093 65.4358 11.6213 65.1878L12.2573 64.9958C12.4413 65.4518 12.6133 65.9358 12.7733 66.4478C12.9333 66.9598 13.0853 67.5078 13.2293 68.0918L12.5333 68.2718C12.4933 68.1198 12.4533 67.9678 12.4133 67.8158C12.3813 67.6638 12.3413 67.5158 12.2933 67.3718C11.1093 67.6438 9.46127 67.8678 7.34927 68.0438L7.22927 67.2638C7.70927 67.2398 8.16127 67.2118 8.58527 67.1798C9.00927 67.1478 9.42127 67.1078 9.82127 67.0598V64.5278H7.66127V60.2438H9.80927ZM12.0173 60.9518H10.5893V63.8198H12.0173V60.9518ZM9.83327 60.9518H8.41727V63.8198H9.83327V60.9518ZM7.51727 59.0078C7.06127 59.7198 6.61727 60.2878 6.18527 60.7118C6.21727 60.7758 6.24927 60.8478 6.28127 60.9278C6.31327 60.9998 6.34527 61.0718 6.37727 61.1438C6.53727 61.5678 6.65727 62.0798 6.73727 62.6798C6.82527 63.2798 6.87727 63.9798 6.89327 64.7798C6.89327 66.4678 6.67727 67.4838 6.24527 67.8278C5.98927 68.0118 5.64127 68.1038 5.20127 68.1038C5.04927 68.1038 4.90927 68.0998 4.78127 68.0918C4.65327 68.0918 4.54127 68.0918 4.44527 68.0918L4.20527 67.3718C4.50127 67.4038 4.77727 67.4198 5.03327 67.4198C5.39327 67.4198 5.63727 67.3598 5.76527 67.2398C6.03727 66.9598 6.17327 66.1278 6.17327 64.7438C6.15727 64.5278 6.14527 64.3158 6.13727 64.1078C6.12927 63.8918 6.11727 63.6918 6.10127 63.5078C5.57327 64.2838 4.92927 64.9318 4.16927 65.4518L3.74927 64.8278C4.22927 64.5078 4.65327 64.1518 5.02127 63.7598C5.39727 63.3678 5.71727 62.9518 5.98127 62.5118C5.94927 62.3038 5.90927 62.1158 5.86127 61.9478C5.81327 61.7798 5.76527 61.6158 5.71727 61.4558C5.67727 61.3678 5.64127 61.2878 5.60927 61.2158C5.39327 61.3678 5.16527 61.5278 4.92527 61.6958C4.69327 61.8558 4.44527 62.0158 4.18127 62.1758L3.77327 61.5158C4.03727 61.3878 4.29727 61.2398 4.55327 61.0718C4.80927 60.9038 5.04527 60.7238 5.26127 60.5318C5.10127 60.2918 4.92527 60.0598 4.73327 59.8358C4.54927 59.6038 4.34127 59.3838 4.10927 59.1758L4.69727 58.7198C4.91327 58.9278 5.10927 59.1438 5.28527 59.3678C5.46927 59.5918 5.63727 59.8198 5.78927 60.0518C5.98927 59.8358 6.17727 59.6118 6.35327 59.3798C6.53727 59.1398 6.71727 58.8838 6.89327 58.6118L7.51727 59.0078ZM20.8219 64.0718C20.7259 64.1038 20.6179 64.1358 20.4979 64.1678C20.3859 64.1998 20.2779 64.2238 20.1739 64.2398C20.3499 64.7838 20.4419 65.3398 20.4499 65.9078C20.4499 66.7638 20.3379 67.3438 20.1139 67.6478C19.8659 68.0238 19.2779 68.2118 18.3499 68.2118H17.9779L17.7259 67.5398H18.2419C18.8659 67.5318 19.2619 67.4358 19.4299 67.2518C19.6219 67.0278 19.7179 66.5798 19.7179 65.9078C19.7099 65.8038 19.7019 65.7118 19.6939 65.6318C19.6939 65.5438 19.6899 65.4638 19.6819 65.3918C18.4739 66.3278 16.9099 67.0798 14.9899 67.6478L14.6299 66.9878C15.6779 66.6838 16.6059 66.3398 17.4139 65.9558C18.2299 65.5638 18.9299 65.1278 19.5139 64.6478C19.4739 64.5118 19.4299 64.3798 19.3819 64.2518C19.3419 64.1158 19.2819 63.9798 19.2019 63.8438C18.2019 64.6358 16.8419 65.2718 15.1219 65.7518L14.7499 65.0918C15.6379 64.8598 16.4259 64.5998 17.1139 64.3118C17.8019 64.0158 18.3899 63.6758 18.8779 63.2918C18.8139 63.1958 18.7419 63.1038 18.6619 63.0158C18.5899 62.9198 18.5219 62.8278 18.4579 62.7398C18.4099 62.7558 18.3659 62.7758 18.3259 62.7998C18.2939 62.8238 18.2579 62.8438 18.2179 62.8598C17.4739 63.2118 16.5099 63.5518 15.3259 63.8798L14.9419 63.2558C15.4539 63.1438 15.9379 63.0158 16.3939 62.8718C16.8499 62.7278 17.2819 62.5678 17.6899 62.3918C17.8819 62.3038 18.0699 62.2198 18.2539 62.1398C18.4379 62.0518 18.6179 61.9598 18.7939 61.8638H15.9859V61.1438H22.3459V61.8638H19.9099C19.7659 61.9598 19.6219 62.0558 19.4779 62.1518C19.3339 62.2478 19.1899 62.3398 19.0459 62.4278C19.4299 62.8198 19.7259 63.2358 19.9339 63.6758C20.9179 63.3958 21.8579 62.9638 22.7539 62.3798L23.2699 62.8958C22.6939 63.2798 22.0819 63.5958 21.4339 63.8438C21.9459 65.1878 22.7619 66.2558 23.8819 67.0478L23.3419 67.6718C22.1659 66.7278 21.3259 65.5278 20.8219 64.0718ZM19.2859 58.3958C19.3499 58.5398 19.4099 58.6998 19.4659 58.8758C19.5299 59.0438 19.5899 59.2198 19.6459 59.4038H23.6539V61.2638H22.8979V60.1118H15.4219V61.2638H14.6659V59.4038H18.8779C18.7579 59.0598 18.6339 58.7678 18.5059 58.5278L19.2859 58.3958ZM28.7145 66.8438C28.1865 67.0438 27.6265 67.2238 27.0345 67.3838C26.4425 67.5438 25.8105 67.6878 25.1385 67.8158L25.0425 67.0718C26.4185 66.8398 27.6425 66.5158 28.7145 66.0998V66.8438ZM27.5505 58.7078C27.0145 60.0678 26.4665 61.1718 25.9065 62.0198C26.1465 62.0038 26.3825 61.9798 26.6145 61.9478C26.8545 61.9158 27.0945 61.8838 27.3345 61.8518C27.4385 61.6598 27.5425 61.4598 27.6465 61.2518C27.7505 61.0438 27.8505 60.8358 27.9465 60.6278L28.6305 60.8918C28.1665 61.7958 27.7385 62.5638 27.3465 63.1958C26.9545 63.8278 26.6065 64.3358 26.3025 64.7198C26.6945 64.6478 27.0785 64.5638 27.4545 64.4678C27.8305 64.3638 28.2105 64.2438 28.5945 64.1078V64.7918C28.0425 64.9758 27.4985 65.1318 26.9625 65.2598C26.4265 65.3798 25.9065 65.4798 25.4025 65.5598L25.1745 64.8518C25.2545 64.8118 25.3225 64.7798 25.3785 64.7558C25.4345 64.7238 25.4865 64.6838 25.5345 64.6358C25.9265 64.2198 26.4025 63.5198 26.9625 62.5358C26.6745 62.5758 26.3785 62.6158 26.0745 62.6558C25.7785 62.6878 25.4785 62.7238 25.1745 62.7638L25.0065 62.0558C25.1105 62.0158 25.2145 61.9238 25.3185 61.7798C25.8785 60.8198 26.3745 59.6998 26.8065 58.4198L27.5505 58.7078ZM33.9705 61.0478L31.2465 61.4318C31.2545 61.6958 31.2665 61.9478 31.2825 62.1878C31.3065 62.4198 31.3265 62.6478 31.3425 62.8718L34.1625 62.4398L34.2705 63.1598L31.4265 63.6038C31.4425 63.7078 31.4545 63.8078 31.4625 63.9038C31.4705 63.9918 31.4865 64.0758 31.5105 64.1558C31.6145 64.7238 31.7425 65.2118 31.8945 65.6198C32.4545 65.0998 32.9665 64.4958 33.4305 63.8078L34.0425 64.2158C33.4665 65.0478 32.8545 65.7478 32.2065 66.3158C32.2225 66.3478 32.2385 66.3838 32.2545 66.4238C32.2785 66.4638 32.2985 66.4998 32.3145 66.5318C32.6825 67.0518 32.9945 67.3118 33.2505 67.3118C33.5305 67.3118 33.7665 66.7398 33.9585 65.5958L34.6305 66.0158C34.3265 67.4318 33.8985 68.1398 33.3465 68.1398C32.8265 68.1158 32.3425 67.7918 31.8945 67.1678C31.7985 67.0398 31.7145 66.9038 31.6425 66.7598C30.8585 67.3518 30.0145 67.7878 29.1105 68.0678L28.6545 67.4558C29.6145 67.1358 30.5025 66.6838 31.3185 66.0998C31.2145 65.8598 31.1225 65.6158 31.0425 65.3678C30.9625 65.1118 30.8865 64.8318 30.8145 64.5278C30.7825 64.3998 30.7545 64.2678 30.7305 64.1318C30.7065 63.9958 30.6865 63.8598 30.6705 63.7238L28.7625 64.0358L28.6425 63.2918L30.5745 62.9918C30.5425 62.7678 30.5185 62.5358 30.5025 62.2958C30.4945 62.0478 30.4865 61.7998 30.4785 61.5518L28.9425 61.7558L28.8345 61.0598L30.4665 60.8198V58.4678H31.2225V60.7238L33.8625 60.3518L33.9705 61.0478ZM32.4105 58.4438C32.9705 58.9558 33.3905 59.3958 33.6705 59.7638L33.0825 60.1718C32.7625 59.7398 32.3425 59.2878 31.8225 58.8158L32.4105 58.4438ZM39.3671 58.8878V62.2358H38.2991V63.9398H39.4031V64.6718H38.2991V66.6518C38.5391 66.5798 38.7711 66.5038 38.9951 66.4238C39.2271 66.3438 39.4471 66.2638 39.6551 66.1838V66.9518C39.1031 67.1598 38.5031 67.3598 37.8551 67.5518C37.2071 67.7358 36.5111 67.9198 35.7671 68.1038L35.5511 67.3598L36.1151 67.2278V63.3758H36.7871V67.0598C36.9311 67.0198 37.0671 66.9878 37.1951 66.9638C37.3311 66.9318 37.4631 66.8958 37.5911 66.8558V62.2358H36.0911V58.8878H39.3671ZM38.6351 59.5838H36.8231V61.5398H38.6351V59.5838ZM44.4431 68.1878H43.6871V67.7318H41.0231V68.1878H40.3031V64.2398H44.4431V68.1878ZM43.6871 67.0118V64.9358H41.0231V67.0118H43.6871ZM42.1031 58.5758C42.0551 58.7118 42.0071 58.8438 41.9591 58.9718C41.9191 59.0998 41.8711 59.2318 41.8151 59.3678H44.4551V59.9078C44.0951 60.8118 43.5671 61.5998 42.8711 62.2718C43.5831 62.8558 44.4311 63.2998 45.4151 63.6038L44.9831 64.2278C43.9271 63.8838 43.0391 63.3958 42.3191 62.7638C41.6311 63.3398 40.7791 63.8438 39.7631 64.2758L39.2951 63.6518C40.2711 63.2678 41.1071 62.7998 41.8031 62.2478C41.4271 61.8158 41.1071 61.3678 40.8431 60.9038C40.7071 61.0558 40.5591 61.2078 40.3991 61.3598C40.2471 61.5038 40.0871 61.6398 39.9191 61.7678L39.4631 61.1798C40.3991 60.4278 41.0391 59.5158 41.3831 58.4438L42.1031 58.5758ZM41.2871 60.3158C41.4311 60.5878 41.5871 60.8478 41.7551 61.0958C41.9311 61.3438 42.1271 61.5718 42.3431 61.7798C42.9031 61.2518 43.3391 60.6758 43.6511 60.0518H41.4551C41.4231 60.0918 41.3911 60.1358 41.3591 60.1838C41.3351 60.2238 41.3111 60.2678 41.2871 60.3158ZM49.741 63.4478C49.741 63.1518 49.813 62.9438 49.957 62.8238C50.101 62.7038 50.273 62.6438 50.473 62.6438C50.681 62.6438 50.857 62.7038 51.001 62.8238C51.153 62.9438 51.229 63.1518 51.229 63.4478C51.229 63.7358 51.153 63.9438 51.001 64.0718C50.857 64.1998 50.681 64.2638 50.473 64.2638C50.273 64.2638 50.101 64.1998 49.957 64.0718C49.813 63.9438 49.741 63.7358 49.741 63.4478ZM59.7891 60.0278C59.6851 60.1798 59.5851 60.3278 59.4891 60.4718C59.3931 60.6078 59.2971 60.7518 59.2011 60.9038H64.5891C64.5651 61.8158 64.5411 62.6438 64.5171 63.3878H65.4171V64.0958H64.4931C64.4691 64.4798 64.4451 64.8318 64.4211 65.1518C64.4051 65.4638 64.3891 65.7438 64.3731 65.9918H65.2491V66.6518H64.3131C64.2891 66.9398 64.2651 67.1278 64.2411 67.2158C64.1371 67.5438 63.9331 67.7998 63.6291 67.9838C63.3411 68.1278 62.9091 68.1998 62.3331 68.1998C62.1971 68.1998 62.0531 68.1998 61.9011 68.1998C61.7491 68.2078 61.5851 68.2118 61.4091 68.2118L61.1931 67.5158C61.3771 67.5238 61.5571 67.5318 61.7331 67.5398C61.9091 67.5478 62.0771 67.5518 62.2371 67.5518C62.3811 67.5518 62.5171 67.5438 62.6451 67.5278C62.7731 67.5118 62.8971 67.4918 63.0171 67.4678C63.2331 67.3958 63.4051 67.2358 63.5331 66.9878C63.5491 66.9638 63.5571 66.9238 63.5571 66.8678C63.5651 66.8038 63.5771 66.7318 63.5931 66.6518H58.5291C58.6091 66.2198 58.6851 65.7958 58.7571 65.3798C58.8371 64.9558 58.9011 64.5278 58.9491 64.0958H57.8931V63.3878H59.0211C59.1091 62.5638 59.1651 61.7358 59.1891 60.9038C59.0771 61.0478 58.9611 61.1878 58.8411 61.3238C58.7291 61.4518 58.6131 61.5758 58.4931 61.6958L57.9891 61.1198C58.7011 60.4318 59.2931 59.5238 59.7651 58.3958L60.5211 58.5518C60.4731 58.6798 60.4171 58.8078 60.3531 58.9358C60.2971 59.0638 60.2411 59.1878 60.1851 59.3078H65.1051V60.0278H59.7891ZM59.6691 64.0958C59.6211 64.4398 59.5731 64.7718 59.5251 65.0918C59.4851 65.4038 59.4331 65.7038 59.3691 65.9918H63.6411C63.6651 65.7518 63.6851 65.4758 63.7011 65.1638C63.7171 64.8518 63.7331 64.4958 63.7491 64.0958H59.6691ZM63.7731 63.3878C63.8051 63.1078 63.8251 62.8158 63.8331 62.5118C63.8411 62.1998 63.8491 61.8878 63.8571 61.5758H59.8731C59.8491 62.2238 59.8091 62.8278 59.7531 63.3878H63.7731ZM61.3011 61.7438C61.5651 61.9198 61.8091 62.0958 62.0331 62.2718C62.2571 62.4478 62.4611 62.6238 62.6451 62.7998L62.1531 63.2798C62.0011 63.1038 61.8091 62.9318 61.5771 62.7638C61.3531 62.5958 61.1011 62.4118 60.8211 62.2118L61.3011 61.7438ZM61.2051 64.2158C61.7251 64.5918 62.1651 64.9758 62.5251 65.3678L62.0451 65.8598C61.8771 65.6758 61.6851 65.4878 61.4691 65.2958C61.2531 65.1038 61.0051 64.9038 60.7251 64.6958L61.2051 64.2158ZM56.4411 58.6358C57.0891 59.0838 57.6291 59.5238 58.0611 59.9558L57.5211 60.5078C57.3211 60.2998 57.0851 60.0838 56.8131 59.8598C56.5491 59.6358 56.2411 59.4038 55.8891 59.1638L56.4411 58.6358ZM56.2611 61.2278C56.9251 61.6918 57.4731 62.1438 57.9051 62.5838L57.3651 63.1238C57.1571 62.9158 56.9131 62.6998 56.6331 62.4758C56.3611 62.2518 56.0571 62.0118 55.7211 61.7558L56.2611 61.2278ZM58.0251 64.6118C57.8011 65.2358 57.5651 65.8318 57.3171 66.3998C57.0691 66.9678 56.8011 67.5278 56.5131 68.0798L55.7931 67.7798C56.4091 66.6518 56.9331 65.5078 57.3651 64.3478L58.0251 64.6118ZM67.4777 62.9318H74.8817V65.6318H71.5457V66.2438H75.1457V66.7358H71.5457V67.3718H75.9137V67.9598H66.4097V67.3718H70.7777V66.7358H67.2017V66.2438H70.7777V65.6318H67.4777V62.9318ZM74.1377 65.1518V64.5038H71.5457V65.1518H74.1377ZM70.7777 65.1518V64.5038H68.2097V65.1518H70.7777ZM68.2097 64.0598H70.7777V63.3998H68.2097V64.0598ZM71.5457 63.3998V64.0598H74.1377V63.3998H71.5457ZM67.7177 58.6238H74.6537V61.2758H67.7177V58.6238ZM73.9097 60.7958V60.1838H68.4497V60.7958H73.9097ZM68.4497 59.7158H73.9097V59.1038H68.4497V59.7158ZM66.3977 61.8278H75.9377V62.3918H66.3977V61.8278ZM77.7343 58.6958C78.3743 58.9038 78.9663 59.1478 79.5103 59.4278L79.1023 60.0518C78.5263 59.7158 77.9463 59.4518 77.3623 59.2598L77.7343 58.6958ZM81.9223 58.5278C81.8743 58.6558 81.8303 58.7758 81.7903 58.8878C81.7503 58.9998 81.7063 59.1078 81.6583 59.2118H85.9303V59.6678C85.8663 59.9318 85.7903 60.1918 85.7023 60.4478C85.6143 60.6958 85.5223 60.9558 85.4263 61.2278L84.6943 60.9998C84.8703 60.6638 85.0223 60.2918 85.1503 59.8838H83.3383C83.2983 60.1238 83.2303 60.3598 83.1343 60.5918C83.6863 61.4158 84.7903 61.9758 86.4463 62.2718L86.1463 62.9558C84.6023 62.6438 83.4983 62.0638 82.8343 61.2158C82.7703 61.3118 82.7023 61.4038 82.6303 61.4918C82.5583 61.5798 82.4863 61.6638 82.4143 61.7438C81.8703 62.2558 81.0143 62.6478 79.8463 62.9198L79.5583 62.2358C80.5983 62.0118 81.3543 61.6998 81.8263 61.2998C82.2103 60.9398 82.4743 60.4678 82.6183 59.8838H81.2383C81.0943 60.0758 80.9343 60.2598 80.7583 60.4358C80.5823 60.6038 80.3943 60.7718 80.1943 60.9398L79.7383 60.3398C80.4263 59.8278 80.9023 59.1958 81.1663 58.4438L81.9223 58.5278ZM85.1983 66.3638H84.4543V63.9158H79.1263V66.4358H78.3703V63.2078H85.1983V66.3638ZM82.2463 64.3838C82.0943 65.7358 81.7743 66.6438 81.2863 67.1078C80.7263 67.6918 79.4943 68.0558 77.5903 68.1998L77.2903 67.5158C78.9863 67.4118 80.0983 67.1238 80.6263 66.6518C81.1223 66.1798 81.4063 65.4038 81.4783 64.3238L82.2463 64.3838ZM79.6663 61.2158C79.1303 61.7598 78.4743 62.2838 77.6983 62.7878L77.1703 62.1758C77.9943 61.7198 78.6783 61.2238 79.2223 60.6878L79.6663 61.2158ZM82.4983 66.3398C83.1943 66.5158 83.8543 66.7118 84.4783 66.9278C85.1023 67.1438 85.6983 67.3798 86.2663 67.6358L85.8583 68.2718C85.2503 67.9838 84.6343 67.7278 84.0103 67.5038C83.3863 67.2798 82.7503 67.0838 82.1023 66.9158L82.4983 66.3398ZM88.351 58.6838C88.735 58.9638 89.083 59.2398 89.395 59.5118C89.715 59.7758 90.007 60.0438 90.271 60.3158L89.743 60.8198C89.511 60.5718 89.235 60.3118 88.915 60.0398C88.603 59.7678 88.239 59.4798 87.823 59.1758L88.351 58.6838ZM88.147 61.2878C88.499 61.5518 88.827 61.8158 89.131 62.0798C89.435 62.3358 89.707 62.5958 89.947 62.8598L89.419 63.3878C89.003 62.8918 88.411 62.3558 87.643 61.7798L88.147 61.2878ZM90.043 64.4198C89.811 65.0918 89.563 65.7398 89.299 66.3638C89.043 66.9878 88.767 67.5958 88.471 68.1878L87.763 67.8758C88.083 67.2678 88.375 66.6558 88.639 66.0398C88.911 65.4238 89.163 64.7958 89.395 64.1558L90.043 64.4198ZM93.751 60.5918C93.823 60.4238 93.879 60.2558 93.919 60.0878C93.967 59.9198 94.011 59.7478 94.051 59.5718H91.495V62.6798C91.447 64.9758 91.039 66.8198 90.271 68.2118L89.707 67.7078C90.363 66.4998 90.707 64.8238 90.739 62.6798V58.8878H97.123V59.5718H94.783C94.711 59.9238 94.615 60.2638 94.495 60.5918H96.559V64.3238H94.807V67.3238C94.807 67.8998 94.527 68.1878 93.967 68.1878H93.055L92.911 67.5038C93.047 67.5198 93.179 67.5318 93.307 67.5398C93.443 67.5478 93.575 67.5518 93.703 67.5518C93.935 67.5518 94.051 67.4158 94.051 67.1438V64.3238H92.239V60.5918H93.751ZM95.887 62.7398H92.923V63.6998H95.887V62.7398ZM95.887 62.1758V61.1918H92.923V62.1758H95.887ZM93.187 65.2118C92.915 66.1718 92.535 66.9878 92.047 67.6598L91.423 67.2758C91.927 66.6118 92.287 65.8758 92.503 65.0678L93.187 65.2118ZM96.139 65.0198C96.347 65.3958 96.547 65.7758 96.739 66.1598C96.931 66.5438 97.111 66.9478 97.279 67.3718L96.607 67.6478C96.263 66.7358 95.891 65.9398 95.491 65.2598L96.139 65.0198ZM99.6396 61.5998C99.4876 61.6958 99.3436 61.7918 99.2076 61.8878C99.0716 61.9838 98.9316 62.0798 98.7876 62.1758L98.3196 61.5998C99.6556 60.7838 100.752 59.7238 101.608 58.4198L102.388 58.5878C102.292 58.7318 102.2 58.8678 102.112 58.9958C102.032 59.1238 101.94 59.2558 101.836 59.3918H105.496V59.9798C105.056 60.5238 104.62 60.9878 104.188 61.3718H106.792V64.6118H104.356V66.7718C104.356 67.1318 104.512 67.3118 104.824 67.3118H106.54C106.716 67.3118 106.848 67.2438 106.936 67.1078C106.992 67.0198 107.036 66.8598 107.068 66.6278C107.1 66.3878 107.124 66.0678 107.14 65.6678L107.872 65.8958C107.8 66.9358 107.672 67.5598 107.488 67.7678C107.304 67.9598 107.036 68.0558 106.684 68.0558H104.596C103.94 68.0558 103.612 67.6838 103.612 66.9398V64.6118H103.036C103.004 64.7078 102.968 64.8038 102.928 64.8998C102.888 64.9958 102.848 65.0918 102.808 65.1878C102.232 66.4198 100.904 67.4318 98.8236 68.2238L98.3436 67.6238C100.2 66.9438 101.428 66.0878 102.028 65.0558L102.232 64.6118H99.6396V61.5998ZM103.204 61.3718C103.644 61.0198 104.08 60.5918 104.512 60.0878H101.26C101.052 60.3278 100.836 60.5558 100.612 60.7718C100.388 60.9798 100.16 61.1798 99.9276 61.3718H103.204ZM106.06 62.0918H103.468C103.444 62.7558 103.376 63.3518 103.264 63.8798H106.06V62.0918ZM102.46 63.8798C102.604 63.3518 102.688 62.7558 102.712 62.0918H100.372V63.8798H102.46ZM110.496 61.5878H112.08C112.104 61.4758 112.124 61.3638 112.14 61.2518C112.156 61.1398 112.168 61.0278 112.176 60.9158H110.652L110.496 61.5878ZM112.92 60.9158C112.912 61.0278 112.896 61.1398 112.872 61.2518C112.856 61.3638 112.84 61.4758 112.824 61.5878H114.48V60.9158H112.92ZM115.236 61.5878H118.092C118.092 62.3718 118.008 62.8678 117.84 63.0758C117.696 63.2998 117.332 63.4118 116.748 63.4118C116.652 63.4118 116.56 63.4118 116.472 63.4118C116.392 63.4038 116.316 63.3998 116.244 63.3998L116.1 62.8598C116.196 62.8678 116.288 62.8718 116.376 62.8718C116.464 62.8718 116.552 62.8718 116.64 62.8718C116.984 62.8718 117.192 62.8198 117.264 62.7158C117.328 62.6118 117.364 62.4318 117.372 62.1758H115.236V63.3878H114.48V62.1758H112.632C112.552 62.3038 112.468 62.4278 112.38 62.5478C112.3 62.6598 112.212 62.7678 112.116 62.8718C111.788 63.1838 111.316 63.4518 110.7 63.6758H117.216V66.5678H116.472V64.3478H111.264V66.5678H110.508V63.7238C110.372 63.7718 110.236 63.8158 110.1 63.8558C109.964 63.8878 109.824 63.9198 109.68 63.9518L109.296 63.3638C110.36 63.1238 111.112 62.8118 111.552 62.4278L111.756 62.1758H109.656L110.04 60.3158H112.176V59.6318H109.752V59.0078H112.176V58.4438H112.92V59.0078H114.48V58.4438H115.236V59.0078H117.576V60.9158H115.236V61.5878ZM112.92 60.3158H114.48V59.6318H112.92V60.3158ZM115.236 60.3158H116.844V59.6318H115.236V60.3158ZM114.432 66.4118C115.12 66.5798 115.776 66.7638 116.4 66.9638C117.032 67.1638 117.632 67.3878 118.2 67.6358L117.792 68.2718C116.56 67.7278 115.316 67.2998 114.06 66.9878L114.432 66.4118ZM114.216 64.7918C114.08 65.9998 113.76 66.8158 113.256 67.2398C112.704 67.7598 111.472 68.0878 109.56 68.2238L109.26 67.5518C110.108 67.5118 110.812 67.4318 111.372 67.3118C111.932 67.1838 112.344 67.0158 112.608 66.8078C113.088 66.3838 113.368 65.6918 113.448 64.7318L114.216 64.7918ZM123.717 60.4118C123.781 60.2838 123.837 60.1558 123.885 60.0278C123.941 59.8998 123.993 59.7758 124.041 59.6558C123.529 59.6878 122.989 59.7118 122.421 59.7278C121.853 59.7438 121.269 59.7518 120.669 59.7518L120.441 59.1038C121.969 59.1038 123.353 59.0558 124.593 58.9598C125.841 58.8638 126.965 58.7078 127.965 58.4918L128.301 59.1038C127.797 59.2158 127.253 59.3118 126.669 59.3918C126.085 59.4718 125.457 59.5358 124.785 59.5838C124.737 59.7358 124.685 59.8798 124.629 60.0158C124.581 60.1518 124.529 60.2838 124.473 60.4118H128.433V61.0718H124.161C124.097 61.2078 124.029 61.3358 123.957 61.4558C123.893 61.5678 123.825 61.6838 123.753 61.8038H129.045V62.4878H123.297C123.193 62.6158 123.093 62.7398 122.997 62.8598C122.909 62.9718 122.817 63.0918 122.721 63.2198H127.989V68.2238H127.257V67.7798H122.445V68.2238H121.713V64.2398C121.433 64.4878 121.145 64.7318 120.849 64.9718C120.553 65.2038 120.241 65.4358 119.913 65.6678L119.493 65.0078C120.077 64.5998 120.605 64.1918 121.077 63.7838C121.557 63.3678 121.989 62.9358 122.373 62.4878H119.769V61.8038H122.901C122.989 61.6758 123.073 61.5558 123.153 61.4438C123.233 61.3318 123.305 61.2078 123.369 61.0718H120.357V60.4118H123.717ZM122.445 65.8238H127.257V65.1518H122.445V65.8238ZM127.257 63.8438H122.445V64.5638H127.257V63.8438ZM122.445 67.1438H127.257V66.4238H122.445V67.1438ZM133.671 63.4478C133.671 63.1518 133.743 62.9438 133.887 62.8238C134.031 62.7038 134.203 62.6438 134.403 62.6438C134.611 62.6438 134.787 62.7038 134.931 62.8238C135.083 62.9438 135.159 63.1518 135.159 63.4478C135.159 63.7358 135.083 63.9438 134.931 64.0718C134.787 64.1998 134.611 64.2638 134.403 64.2638C134.203 64.2638 134.031 64.1998 133.887 64.0718C133.743 63.9438 133.671 63.7358 133.671 63.4478ZM144.607 58.4078C144.655 58.5438 144.707 58.6918 144.763 58.8518C144.827 59.0118 144.883 59.1838 144.931 59.3678H149.143V60.0638H139.759V59.3678H144.115C144.067 59.2078 144.011 59.0638 143.947 58.9358C143.883 58.8078 143.819 58.6798 143.755 58.5518L144.607 58.4078ZM146.551 68.1878L146.371 67.5038L147.223 67.5278C147.663 67.5278 147.883 67.3558 147.883 67.0118V64.1198H141.031V68.2238H140.287V63.4478H148.615V67.1918C148.615 67.8558 148.223 68.1878 147.439 68.1878H146.551ZM147.427 60.7478V62.8238H141.487V60.7478H147.427ZM146.683 61.3478H142.243V62.2118H146.683V61.3478ZM146.551 64.8038V66.9398H142.375V64.8038H146.551ZM145.879 65.3918H143.071V66.3638H145.879V65.3918ZM151.263 58.5998C151.575 58.8318 151.867 59.0638 152.139 59.2958C152.411 59.5278 152.659 59.7558 152.883 59.9798L152.331 60.5078C152.123 60.2998 151.891 60.0798 151.635 59.8478C151.379 59.6158 151.075 59.3798 150.723 59.1398L151.263 58.5998ZM150.927 61.1558C151.271 61.4278 151.583 61.6918 151.863 61.9478C152.143 62.1958 152.403 62.4518 152.643 62.7158L152.091 63.2558C151.883 63.0158 151.639 62.7678 151.359 62.5118C151.087 62.2478 150.759 61.9758 150.375 61.6958L150.927 61.1558ZM152.655 64.3838C152.447 65.0398 152.223 65.6798 151.983 66.3038C151.743 66.9198 151.495 67.5158 151.239 68.0918L150.531 67.7918C150.819 67.1838 151.083 66.5758 151.323 65.9678C151.563 65.3598 151.783 64.7398 151.983 64.1078L152.655 64.3838ZM156.783 58.4678V59.1398H159.639V59.7758H156.783V60.4718H159.219V61.0838H156.783V61.8278H159.927V62.4518H152.955V61.8278H156.051V61.0838H153.735V60.4718H156.051V59.7758H153.303V59.1398H156.051V58.4678H156.783ZM154.659 65.9078H158.235V65.1518H154.659V65.9078ZM158.235 63.7838H154.659V64.5638H158.235V63.7838ZM154.659 68.2238H153.915V63.1478H158.967V67.2758C158.967 67.8678 158.687 68.1638 158.127 68.1638H157.095L156.915 67.4798L157.899 67.5158C158.123 67.5158 158.235 67.3878 158.235 67.1318V66.5078H154.659V68.2238ZM169.476 59.0438V59.7878H165.66V60.4958C165.652 60.8318 165.636 61.1558 165.612 61.4678C165.596 61.7718 165.564 62.0638 165.516 62.3438H170.328V63.0998H167.028V66.8078C167.028 67.1518 167.2 67.3238 167.544 67.3238H168.9C169.148 67.3238 169.336 67.2558 169.464 67.1198C169.624 66.9518 169.72 66.4518 169.752 65.6198L170.472 65.8598C170.392 66.8838 170.236 67.5198 170.004 67.7678C169.812 67.9598 169.492 68.0558 169.044 68.0558H167.304C166.616 68.0558 166.272 67.6918 166.272 66.9638V63.0998H165.396C165.22 64.0358 164.952 64.8318 164.592 65.4878C163.928 66.6638 162.864 67.5638 161.4 68.1878L160.98 67.5158C162.452 66.8598 163.468 65.9878 164.028 64.8998C164.284 64.3798 164.48 63.7798 164.616 63.0998H161.112V62.3438H164.736C164.784 62.0638 164.82 61.7718 164.844 61.4678C164.868 61.1558 164.88 60.8318 164.88 60.4958V59.7878H161.832V59.0438H169.476ZM176.661 58.2998C176.861 58.6998 177.053 59.1278 177.237 59.5838H181.101V60.3278H173.229V62.7038C173.213 63.8798 173.113 64.9318 172.929 65.8598C172.745 66.7798 172.477 67.5958 172.125 68.3078L171.501 67.7558C171.797 67.1398 172.021 66.4158 172.173 65.5838C172.333 64.7518 172.421 63.7918 172.437 62.7038V59.5838H176.397C176.317 59.3758 176.225 59.1798 176.121 58.9958C176.025 58.8118 175.921 58.6318 175.809 58.4558L176.661 58.2998ZM190.505 68.2118H189.749V67.6478H184.361V68.2118H183.581V64.3118H190.505V68.2118ZM189.749 66.9278V65.0318H184.361V66.9278H189.749ZM184.217 60.7118C184.033 60.9438 183.833 61.1758 183.617 61.4078C183.409 61.6318 183.181 61.8478 182.933 62.0558L182.489 61.4558C183.441 60.6878 184.089 59.7398 184.433 58.6118L185.189 58.7198C185.125 58.9358 185.049 59.1478 184.961 59.3558C184.873 59.5638 184.781 59.7678 184.685 59.9678H186.761V58.4558H187.541V59.9678H191.021V60.7118H187.541V62.4278H191.825V63.1718H182.213V62.4278H186.761V60.7118H184.217ZM196.319 63.4478C196.319 63.1518 196.391 62.9438 196.535 62.8238C196.679 62.7038 196.851 62.6438 197.051 62.6438C197.259 62.6438 197.435 62.7038 197.579 62.8238C197.731 62.9438 197.807 63.1518 197.807 63.4478C197.807 63.7358 197.731 63.9438 197.579 64.0718C197.435 64.1998 197.259 64.2638 197.051 64.2638C196.851 64.2638 196.679 64.1998 196.535 64.0718C196.391 63.9438 196.319 63.7358 196.319 63.4478ZM205.299 62.2718C205.371 62.2318 205.423 62.2078 205.455 62.1998C205.855 61.9518 206.375 61.2998 207.015 60.2438H205.143V59.5478H208.107C208.035 59.3478 207.959 59.1598 207.879 58.9838C207.807 58.8078 207.727 58.6358 207.639 58.4678L208.407 58.3358C208.495 58.5198 208.575 58.7118 208.647 58.9118C208.727 59.1118 208.807 59.3238 208.887 59.5478H211.683V60.2438H207.795C207.539 60.6918 207.303 61.0758 207.087 61.3958C206.871 61.7158 206.667 61.9798 206.475 62.1878C207.091 62.1558 207.699 62.1158 208.299 62.0678C208.907 62.0118 209.519 61.9478 210.135 61.8758C210.007 61.7158 209.883 61.5598 209.763 61.4078C209.651 61.2558 209.527 61.0998 209.391 60.9398L210.027 60.5798C210.755 61.4518 211.307 62.2078 211.683 62.8478L211.059 63.2918C210.979 63.1638 210.899 63.0318 210.819 62.8958C210.739 62.7598 210.651 62.6238 210.555 62.4878C209.763 62.5758 208.943 62.6558 208.095 62.7278C207.255 62.7998 206.379 62.8638 205.467 62.9198L205.299 62.2718ZM203.175 58.6118C203.815 59.0518 204.363 59.5118 204.819 59.9918L204.267 60.5198C204.067 60.3038 203.827 60.0838 203.547 59.8598C203.275 59.6278 202.967 59.3878 202.623 59.1398L203.175 58.6118ZM202.923 61.1558C203.579 61.6598 204.139 62.1718 204.603 62.6918L204.063 63.2558C203.647 62.7678 203.083 62.2478 202.371 61.6958L202.923 61.1558ZM204.687 64.2398C204.263 65.6158 203.799 66.8958 203.295 68.0798L202.587 67.7798C202.859 67.1558 203.111 66.5358 203.343 65.9198C203.583 65.2958 203.803 64.6518 204.003 63.9878L204.687 64.2398ZM208.407 63.3998V68.0078H207.639V63.3998H208.407ZM206.667 63.3998C206.611 64.7918 206.471 65.8078 206.247 66.4478C205.991 67.1278 205.559 67.7158 204.951 68.2118L204.471 67.6118C204.719 67.4038 204.935 67.1798 205.119 66.9398C205.303 66.6918 205.443 66.4198 205.539 66.1238C205.747 65.5718 205.871 64.6638 205.911 63.3998H206.667ZM210.447 68.1278C209.831 68.1278 209.523 67.8438 209.523 67.2758V63.3998H210.267V67.1438C210.267 67.2958 210.331 67.3878 210.459 67.4198H210.927C211.119 67.3878 211.227 67.2598 211.251 67.0358C211.267 66.9078 211.279 66.7438 211.287 66.5438C211.303 66.3438 211.311 66.0998 211.311 65.8118L211.983 66.0638C211.983 67.0158 211.919 67.5918 211.791 67.7918C211.663 67.9838 211.391 68.0958 210.975 68.1278H210.447ZM213.84 64.4798H214.728V62.9558H213.84V64.4798ZM215.424 64.4798H216.336V62.9558H215.424V64.4798ZM215.424 65.1518V68.1878H214.728V65.1518H213.84V65.7518H213.156V60.1598H214.728V58.4558H215.424V60.1598H217.008V65.7278H216.336V65.1518H215.424ZM216.336 60.7958H215.424V62.3198H216.336V60.7958ZM214.728 60.7958H213.84V62.3198H214.728V60.7958ZM217.548 62.7878V62.0678C218.116 61.6838 218.648 61.2878 219.144 60.8798C219.648 60.4638 220.136 60.0278 220.608 59.5718H217.608V58.8878H221.616V59.5478C220.76 60.4598 219.8 61.3198 218.736 62.1278H222.36C222.328 63.3918 222.284 64.4238 222.228 65.2238C222.18 66.0158 222.12 66.5958 222.048 66.9638C221.864 67.7078 221.408 68.0798 220.68 68.0798C220.528 68.0798 220.376 68.0798 220.224 68.0798C220.072 68.0798 219.928 68.0758 219.792 68.0678L219.588 67.3358C219.924 67.3598 220.252 67.3718 220.572 67.3718C220.948 67.3638 221.204 67.1638 221.34 66.7718C221.468 66.4358 221.56 65.1078 221.616 62.7878H220.98C220.764 64.0118 220.456 64.9958 220.056 65.7398C219.584 66.5478 218.884 67.2678 217.956 67.8998L217.5 67.3118C218.34 66.7598 218.984 66.1318 219.432 65.4278C219.816 64.7558 220.104 63.8758 220.296 62.7878H219.588C219.204 64.0998 218.524 65.1438 217.548 65.9198L217.116 65.3918C217.948 64.7198 218.54 63.8518 218.892 62.7878H217.548ZM227.984 64.3718V65.4278H229.568V64.3718H227.984ZM227.984 66.0398V67.0598H229.568V66.0398H227.984ZM231.812 67.0598V66.0398H230.228V67.0598H231.812ZM227.984 67.7078V68.2238H227.288V63.8678C227.208 63.8998 227.136 63.9358 227.072 63.9758C227.008 64.0158 226.94 64.0478 226.868 64.0718L226.508 63.4958V63.6278L225.644 64.0838V67.2398C225.644 67.8398 225.34 68.1398 224.732 68.1398H223.832L223.664 67.3838C223.808 67.4078 223.944 67.4278 224.072 67.4438C224.208 67.4518 224.336 67.4558 224.456 67.4558C224.736 67.4558 224.876 67.3158 224.876 67.0358V64.4438C224.668 64.5238 224.46 64.6038 224.252 64.6838C224.052 64.7558 223.852 64.8278 223.652 64.8998L223.46 64.1558C223.7 64.0838 223.936 64.0118 224.168 63.9398C224.408 63.8598 224.644 63.7758 224.876 63.6878V61.2278H223.64V60.5078H224.876V58.4918H225.644V60.5078H226.556V61.2278H225.644V63.3398C225.788 63.2678 225.928 63.1918 226.064 63.1118C226.208 63.0238 226.356 62.9438 226.508 62.8718V63.4478C227.572 63.0318 228.36 62.5118 228.872 61.8878H226.832V61.2038H228.044C227.98 61.0358 227.908 60.8758 227.828 60.7238C227.748 60.5718 227.66 60.4238 227.564 60.2798L228.188 60.0518C228.284 60.2038 228.376 60.3798 228.464 60.5798C228.552 60.7718 228.632 60.9798 228.704 61.2038H229.556V59.6678C229.172 59.6838 228.772 59.6998 228.356 59.7158C227.948 59.7238 227.524 59.7278 227.084 59.7278L226.868 59.1038C229.124 59.0958 231.016 58.9038 232.544 58.5278L232.904 59.1398C232.128 59.3478 231.24 59.4958 230.24 59.5838V61.2038H231.056C231.168 60.9878 231.276 60.7638 231.38 60.5318C231.492 60.2918 231.596 60.0478 231.692 59.7998L232.352 60.0518C232.176 60.4518 231.972 60.8358 231.74 61.2038H233.048V61.8878H230.936C231.496 62.4558 232.308 62.9518 233.372 63.3758L233.036 64.0238C231.916 63.4798 231.024 62.7678 230.36 61.8878H230.24V63.3998H229.556V61.8878H229.424C228.984 62.6078 228.336 63.2278 227.48 63.7478H232.508V68.2238H231.812V67.7078H227.984ZM231.812 65.4278V64.3718H230.228V65.4278H231.812ZM239.453 62.4638C239.357 62.6158 239.261 62.7638 239.165 62.9078C239.069 63.0438 238.969 63.1718 238.865 63.2918L238.385 62.7398C239.225 61.6438 239.785 60.2118 240.065 58.4438L240.833 58.5638C240.785 58.8278 240.733 59.0878 240.677 59.3438C240.621 59.5998 240.557 59.8478 240.485 60.0878H243.617V60.8078H242.837C242.765 62.6158 242.345 64.1478 241.577 65.4038C242.241 66.3478 243.041 67.0838 243.977 67.6118L243.545 68.2598C242.601 67.7238 241.801 66.9838 241.145 66.0398C240.513 66.9038 239.697 67.6198 238.697 68.1878L238.265 67.5038C238.785 67.2238 239.245 66.9078 239.645 66.5558C240.053 66.2038 240.409 65.8158 240.713 65.3918C240.457 64.9598 240.225 64.4998 240.017 64.0118C239.817 63.5238 239.629 63.0078 239.453 62.4638ZM240.257 60.8078C240.201 60.9678 240.141 61.1158 240.077 61.2518C240.021 61.3878 239.961 61.5198 239.897 61.6478C240.057 62.2478 240.241 62.7998 240.449 63.3038C240.657 63.7998 240.885 64.2678 241.133 64.7078C241.741 63.5798 242.061 62.2798 242.093 60.8078H240.257ZM236.321 60.0758C236.225 59.8198 236.117 59.5678 235.997 59.3198C235.885 59.0718 235.765 58.8278 235.637 58.5878L236.393 58.3958C236.537 58.6998 236.669 58.9918 236.789 59.2718C236.909 59.5518 237.013 59.8198 237.101 60.0758H238.685V60.7958H236.117V61.7798C236.117 61.8838 236.113 61.9878 236.105 62.0918C236.097 62.1958 236.093 62.2958 236.093 62.3918H238.121C238.121 63.6958 238.109 64.7438 238.085 65.5358C238.069 66.3198 238.037 66.8638 237.989 67.1678C237.877 67.7758 237.449 68.0798 236.705 68.0798C236.625 68.0798 236.525 68.0758 236.405 68.0678C236.285 68.0598 236.133 68.0518 235.949 68.0438L235.793 67.3718C235.945 67.3798 236.085 67.3878 236.213 67.3958C236.349 67.3958 236.473 67.3958 236.585 67.3958C236.969 67.3958 237.197 67.2198 237.269 66.8678C237.317 66.6678 237.349 66.2518 237.365 65.6198C237.389 64.9878 237.405 64.1478 237.413 63.0998H236.069C235.909 65.3798 235.441 67.0798 234.665 68.1998L234.065 67.6718C234.929 66.4638 235.369 64.4998 235.385 61.7798V60.7958H234.293V60.0758H236.321Z" fill="#FF9153"/>
<path opacity="0.6" d="M89.1332 91.2478V87.4798H89.8652V91.2478H91.1372V91.9318H89.8652V92.2678C90.1212 92.5478 90.3812 92.8438 90.6452 93.1558C90.9172 93.4598 91.1852 93.7798 91.4492 94.1158L91.0172 94.7518C90.7852 94.3678 90.5732 94.0318 90.3812 93.7438C90.1892 93.4478 90.0172 93.1758 89.8652 92.9278V97.2238H89.1332V93.1198C88.9492 93.5918 88.7412 94.0438 88.5092 94.4758C88.2772 94.8998 88.0132 95.3038 87.7172 95.6878L87.3932 94.8598C88.1772 93.9958 88.7452 93.0198 89.0972 91.9318H87.6092V91.2478H89.1332ZM91.3172 88.2478C91.2852 88.7038 91.2252 89.1318 91.1372 89.5318C91.0572 89.9238 90.9532 90.2958 90.8252 90.6478L90.2972 90.4678C90.5292 89.7958 90.6772 89.0318 90.7412 88.1758L91.3172 88.2478ZM88.2092 88.3678C88.3692 89.0158 88.5172 89.7598 88.6532 90.5998L88.1132 90.7198C88.0492 90.3358 87.9772 89.9638 87.8972 89.6038C87.8252 89.2438 87.7372 88.8878 87.6332 88.5358L88.2092 88.3678ZM94.7372 87.4558V88.1518H96.9452V88.7878H94.7372V89.4958H96.6572V90.1198H94.7372V90.8518H97.2212V91.4758H91.4732V90.8518H94.0052V90.1198H92.0132V89.4958H94.0052V88.7878H91.7252V88.1518H94.0052V87.4558H94.7372ZM92.7812 94.9078H95.8892V94.1518H92.7812V94.9078ZM95.8892 92.7838H92.7812V93.5638H95.8892V92.7838ZM92.7812 97.1998H92.0732V92.1478H96.6332V96.2998C96.6332 96.8678 96.3372 97.1518 95.7452 97.1518H95.0132L94.8212 96.4678L95.5412 96.5158C95.7732 96.5158 95.8892 96.3878 95.8892 96.1318V95.5078H92.7812V97.1998ZM103.734 88.2358C102.414 88.6518 100.63 88.8598 98.3818 88.8598L98.1778 88.1878C100.25 88.1878 101.982 87.9878 103.374 87.5878L103.734 88.2358ZM103.554 89.1238C103.442 89.5478 103.318 89.9438 103.182 90.3118C103.054 90.6798 102.906 91.0198 102.738 91.3318L102.114 91.1278C102.274 90.8398 102.414 90.5198 102.534 90.1678C102.662 89.8078 102.786 89.4078 102.906 88.9678L103.554 89.1238ZM107.13 87.9478C106.354 88.9398 105.39 89.7558 104.238 90.3958L103.902 89.6878C104.454 89.3998 104.954 89.0638 105.402 88.6798C105.858 88.2958 106.266 87.8678 106.626 87.3958L107.13 87.9478ZM107.586 90.8518C107.162 91.3638 106.686 91.8398 106.158 92.2798C105.638 92.7118 105.058 93.1038 104.418 93.4558L104.094 92.7598C105.31 92.1278 106.31 91.2998 107.094 90.2758L107.586 90.8518ZM107.922 93.7678C106.922 95.1358 105.658 96.2718 104.13 97.1758L103.794 96.4678C105.242 95.6518 106.442 94.5598 107.394 93.1918L107.922 93.7678ZM100.818 92.3038V91.2718H101.562V92.3038H103.686V93.0598H101.562V93.7318C101.898 93.9158 102.234 94.1198 102.57 94.3438C102.906 94.5598 103.25 94.7918 103.602 95.0398L103.17 95.7118C102.858 95.4398 102.57 95.1998 102.306 94.9918C102.042 94.7758 101.794 94.5878 101.562 94.4278V97.2118H100.818V93.9238C100.498 94.4438 100.154 94.9158 99.7858 95.3398C99.4178 95.7638 99.0218 96.1518 98.5978 96.5038L98.1178 95.8438C99.2058 95.0358 100.05 94.1078 100.65 93.0598H98.5018V92.3038H100.818ZM100.974 89.1238C101.102 89.4118 101.218 89.6838 101.322 89.9398C101.434 90.1958 101.53 90.4438 101.61 90.6838L100.962 90.9118C100.866 90.6398 100.766 90.3718 100.662 90.1078C100.566 89.8438 100.45 89.5798 100.314 89.3158L100.974 89.1238ZM99.0538 89.3278C99.3658 89.8958 99.6378 90.5198 99.8698 91.1998L99.2578 91.3438C99.1458 91.0318 99.0218 90.7238 98.8858 90.4198C98.7498 90.1158 98.6098 89.8158 98.4658 89.5198L99.0538 89.3278ZM110.114 92.1358H112.634V90.6718H110.114V92.1358ZM112.634 88.5718H110.114V89.9878H112.634V88.5718ZM108.998 96.1798C109.238 96.0918 109.358 95.9518 109.358 95.7598V87.8878H113.354V92.8438H110.114V95.9158C110.578 95.7718 111.018 95.6318 111.434 95.4958C111.85 95.3598 112.242 95.2198 112.61 95.0758C112.506 94.8918 112.398 94.7078 112.286 94.5238C112.174 94.3318 112.058 94.1478 111.938 93.9718L112.538 93.5878C113.202 94.6038 113.706 95.5078 114.05 96.2998L113.486 96.7318C113.406 96.5638 113.322 96.3958 113.234 96.2278C113.154 96.0518 113.066 95.8758 112.97 95.6998C111.906 96.1478 110.674 96.5478 109.274 96.8998L108.998 96.1798ZM116.162 95.7598L115.97 95.0038L116.858 95.0278C117.17 95.0278 117.326 94.8838 117.326 94.5958V88.6318H115.382V97.1878H114.614V87.8878H118.07V94.7518C118.07 95.4238 117.754 95.7598 117.122 95.7598H116.162ZM127.091 92.6278V91.5478H127.871V92.6278H129.143V93.3598H127.871V96.2278C127.871 96.8678 127.523 97.1878 126.827 97.1878H125.423L125.267 96.4678C125.491 96.4838 125.711 96.4958 125.927 96.5038C126.143 96.5118 126.355 96.5158 126.563 96.5158C126.915 96.5158 127.091 96.3558 127.091 96.0358V93.3598H123.047V92.6278H127.091ZM122.423 87.4678V97.2118H121.655V93.6958C120.951 94.3438 120.295 94.8678 119.687 95.2678L119.351 94.5238C119.671 94.3478 120.019 94.1118 120.395 93.8158C120.779 93.5118 121.199 93.1638 121.655 92.7718V87.4678H122.423ZM124.403 93.7918C125.003 94.4478 125.459 95.0198 125.771 95.5078L125.171 95.9278C125.011 95.6638 124.819 95.3838 124.595 95.0878C124.371 94.7838 124.123 94.4718 123.851 94.1518L124.403 93.7918ZM125.147 88.9558C124.899 89.2358 124.623 89.4958 124.319 89.7358C124.023 89.9678 123.691 90.1758 123.323 90.3598L122.819 89.7718C123.979 89.2118 124.763 88.4398 125.171 87.4558L125.951 87.5998C125.903 87.7118 125.851 87.8238 125.795 87.9358C125.747 88.0478 125.695 88.1518 125.639 88.2478H128.735V88.9078C128.135 90.4678 126.459 91.5638 123.707 92.1958L123.335 91.5118C124.151 91.3358 124.887 91.1158 125.543 90.8518C125.367 90.6918 125.195 90.5478 125.027 90.4198C124.859 90.2838 124.695 90.1558 124.535 90.0358L125.087 89.6158C125.279 89.7518 125.463 89.8998 125.639 90.0598C125.823 90.2198 126.007 90.3838 126.191 90.5518C126.983 90.1118 127.559 89.5798 127.919 88.9558H125.147ZM120.023 88.7158C120.287 89.0758 120.523 89.4478 120.731 89.8318C120.939 90.2158 121.135 90.6118 121.319 91.0198L120.635 91.3078C120.251 90.4038 119.827 89.6278 119.363 88.9798L120.023 88.7158ZM139.076 88.1038V88.8478H137.3V91.6678H139.628V92.3998H137.3V97.1278H136.52V92.3998H133.448C133.36 93.4878 133.156 94.3958 132.836 95.1238C132.42 96.0198 131.748 96.7118 130.82 97.1998L130.412 96.5398C131.276 96.0518 131.876 95.4038 132.212 94.5958C132.436 93.9718 132.588 93.2398 132.668 92.3998H130.22V91.6678H132.716C132.716 91.5958 132.716 91.5318 132.716 91.4758C132.724 91.4118 132.728 91.3518 132.728 91.2958V88.8478H130.796V88.1038H139.076ZM133.508 91.2958C133.508 91.3598 133.504 91.4238 133.496 91.4878C133.488 91.5438 133.484 91.6038 133.484 91.6678H136.52V88.8478H133.508V91.2958ZM142.732 87.4798C142.636 88.2078 142.54 88.8798 142.444 89.4958H144.028V89.9398C143.948 91.6518 143.648 93.1398 143.128 94.4038C143.376 94.6678 143.6 94.9198 143.8 95.1598C144.008 95.3918 144.196 95.6118 144.364 95.8198L143.848 96.4198C143.704 96.2198 143.544 96.0158 143.368 95.8078C143.192 95.5998 143 95.3758 142.792 95.1358C142.368 95.9438 141.84 96.6518 141.208 97.2598L140.74 96.6478C141.044 96.3598 141.324 96.0478 141.58 95.7118C141.844 95.3758 142.076 94.9998 142.276 94.5838C142.052 94.3758 141.824 94.1598 141.592 93.9358C141.368 93.7038 141.136 93.4678 140.896 93.2278C141.152 92.3158 141.376 91.3158 141.568 90.2278H140.716V89.4958H141.7C141.804 88.8158 141.9 88.1278 141.988 87.4318L142.732 87.4798ZM142.588 93.8518C143.004 92.7878 143.24 91.5798 143.296 90.2278H142.336C142.232 90.7878 142.128 91.2998 142.024 91.7638C141.92 92.2198 141.82 92.6398 141.724 93.0238C141.868 93.1598 142.012 93.2998 142.156 93.4438C142.308 93.5798 142.452 93.7158 142.588 93.8518ZM149.644 97.2238H148.912V96.5998H145.636V97.2238H144.916V92.6998H149.644V97.2238ZM148.912 95.8678V93.3958H145.636V95.8678H148.912ZM144.376 91.0438C145 90.7318 145.772 89.5358 146.692 87.4558L147.4 87.7078C147.08 88.4038 146.764 89.0238 146.452 89.5678C146.14 90.1038 145.824 90.5798 145.504 90.9958C146.104 90.9558 146.684 90.9038 147.244 90.8398C147.804 90.7758 148.36 90.7038 148.912 90.6238C148.752 90.3358 148.6 90.0558 148.456 89.7838C148.312 89.5118 148.164 89.2518 148.012 89.0038L148.66 88.6918C148.956 89.1558 149.24 89.6438 149.512 90.1558C149.792 90.6678 150.056 91.2038 150.304 91.7638L149.596 92.1118C149.54 91.9598 149.48 91.8158 149.416 91.6798C149.352 91.5438 149.292 91.4078 149.236 91.2718C148.516 91.3758 147.764 91.4678 146.98 91.5478C146.204 91.6278 145.38 91.6918 144.508 91.7398L144.376 91.0438ZM151.741 96.0358C151.741 95.7398 151.813 95.5318 151.957 95.4118C152.101 95.2918 152.273 95.2318 152.473 95.2318C152.681 95.2318 152.857 95.2918 153.001 95.4118C153.153 95.5318 153.229 95.7398 153.229 96.0358C153.229 96.3238 153.153 96.5318 153.001 96.6598C152.857 96.7878 152.681 96.8518 152.473 96.8518C152.273 96.8518 152.101 96.7878 151.957 96.6598C151.813 96.5318 151.741 96.3238 151.741 96.0358ZM154.952 96.0358C154.952 95.7398 155.024 95.5318 155.168 95.4118C155.312 95.2918 155.484 95.2318 155.684 95.2318C155.892 95.2318 156.068 95.2918 156.212 95.4118C156.364 95.5318 156.44 95.7398 156.44 96.0358C156.44 96.3238 156.364 96.5318 156.212 96.6598C156.068 96.7878 155.892 96.8518 155.684 96.8518C155.484 96.8518 155.312 96.7878 155.168 96.6598C155.024 96.5318 154.952 96.3238 154.952 96.0358ZM158.163 96.0358C158.163 95.7398 158.235 95.5318 158.379 95.4118C158.523 95.2918 158.695 95.2318 158.895 95.2318C159.103 95.2318 159.279 95.2918 159.423 95.4118C159.575 95.5318 159.651 95.7398 159.651 96.0358C159.651 96.3238 159.575 96.5318 159.423 96.6598C159.279 96.7878 159.103 96.8518 158.895 96.8518C158.695 96.8518 158.523 96.7878 158.379 96.6598C158.235 96.5318 158.163 96.3238 158.163 96.0358Z" fill="#FF9153"/>
<defs>
<linearGradient id="paint0_linear_501_27049" x1="90.3938" y1="14.9999" x2="62.7638" y2="14.9999" gradientUnits="userSpaceOnUse">
<stop stop-color="#FF9153"/>
<stop offset="1" stop-color="#FE58B5"/>
</linearGradient>
<linearGradient id="paint1_linear_501_27049" x1="90.3938" y1="14.9999" x2="62.7638" y2="14.9999" gradientUnits="userSpaceOnUse">
<stop stop-color="#FF9153"/>
<stop offset="1" stop-color="#FE58B5"/>
</linearGradient>
<linearGradient id="paint2_linear_501_27049" x1="90.3938" y1="14.9999" x2="62.7638" y2="14.9999" gradientUnits="userSpaceOnUse">
<stop stop-color="#FF9153"/>
<stop offset="1" stop-color="#FE58B5"/>
</linearGradient>
<linearGradient id="paint3_linear_501_27049" x1="186.052" y1="15" x2="115.77" y2="15" gradientUnits="userSpaceOnUse">
<stop stop-color="#FF9153"/>
<stop offset="0.5" stop-color="#FF7584"/>
<stop offset="1" stop-color="#FE58B5"/>
</linearGradient>
<linearGradient id="paint4_linear_501_27049" x1="247.544" y1="42.3419" x2="-1.8068e-06" y2="42.3406" gradientUnits="userSpaceOnUse">
<stop stop-color="#FF8448" stop-opacity="0"/>
<stop offset="0.5" stop-color="#FF8448"/>
<stop offset="1" stop-color="#FF8448" stop-opacity="0"/>
</linearGradient>
</defs>
</svg>
