<svg width="256" height="256" viewBox="0 0 256 256" fill="none" xmlns="http://www.w3.org/2000/svg">
<g clip-path="url(#clip0_23_231)">
<rect width="256" height="256" rx="58" fill="white"/>
<path fill-rule="evenodd" clip-rule="evenodd" d="M133.447 85.7297C138.01 86.4026 142.547 87.5241 145.151 88.6705C145.572 88.8699 145.994 89.0194 146.068 89.0194C146.539 89.0194 149.812 90.6892 151.796 91.9103C155.019 93.929 159.606 97.8916 159.606 98.6642C159.606 98.9134 156.631 98.9882 144.729 98.9882C130.546 98.9882 129.778 99.0131 128.91 99.4617C127.124 100.384 125.736 102.353 125.488 104.346C125.215 106.365 126.802 109.106 128.91 110.203C129.852 110.701 130.348 110.701 150.035 110.701H170.194L173.07 114.166C174.632 116.06 176.095 117.754 176.269 117.954C176.443 118.153 177.038 118.876 177.583 119.549C178.104 120.246 178.625 120.845 178.699 120.919C178.798 120.994 179.864 122.39 181.104 124.035C183.509 127.274 184.08 128.645 183.832 130.788C183.683 132.284 183.088 133.081 181.749 133.654C180.658 134.128 179.517 134.128 109.371 134.078C52.7877 134.028 38.0593 133.929 37.8113 133.679C37.6625 133.53 37.3402 133.38 37.117 133.38C36.8939 133.38 36.4228 133.056 36.0508 132.683C33.6705 130.19 33.9184 127.05 36.5963 124.957L37.6625 124.159H54.1267C65.0367 124.159 70.7892 124.06 71.1116 123.91C71.6075 123.636 71.7562 122.564 71.3099 122.29C71.186 122.19 70.938 121.866 70.814 121.592C70.69 121.293 70.1941 120.371 69.723 119.549C68.7808 117.929 68.1857 116.708 67.4666 114.938C66.7724 113.318 66.7724 106.091 67.4666 104.471C68.2105 102.627 69.0535 100.932 69.847 99.6112C70.2437 98.9134 70.6652 98.1907 70.7396 97.9913C70.8388 97.7919 71.0868 97.4181 71.2851 97.1938C71.5083 96.9196 71.5827 96.5209 71.4835 96.1221L71.3347 95.4991H62.1852C57.1765 95.4991 52.5398 95.4243 51.8951 95.3496C49.8371 95.0505 48.0022 92.6331 48.027 90.1907C48.0518 88.4711 49.3164 86.6269 51.0769 85.8045C52.0935 85.331 53.1349 85.331 91.667 85.3559C122.537 85.4057 131.712 85.4805 133.447 85.7297ZM95.8822 99.3869C96.031 99.1875 96.5269 98.9632 96.9484 98.9134C97.3947 98.8386 101.164 98.8137 105.329 98.8386L112.941 98.8635L114.305 99.8106C116.338 101.206 116.958 102.427 116.958 104.895C116.958 106.938 116.81 107.337 115.495 108.807C115.148 109.181 114.429 109.779 113.933 110.103L112.991 110.701H96.5021L95.3615 109.904C94.7416 109.48 93.849 108.583 93.4027 107.935C92.6588 106.814 92.5844 106.589 92.5844 104.72C92.5844 103.225 92.6836 102.602 93.0059 102.253C93.2291 102.029 93.4027 101.705 93.4027 101.605C93.4027 101.256 94.94 99.7358 95.2871 99.7358C95.4359 99.7358 95.7086 99.5863 95.8822 99.3869Z" fill="url(#paint0_linear_23_231)"/>
<path d="M37.8609 85.9042C38.58 86.278 39.423 86.9758 39.8445 87.5739C40.4892 88.4711 40.5884 88.7951 40.5884 90.3153C40.5884 92.5583 39.9933 93.7047 38.2824 94.8262C37.6377 95.2499 36.9435 95.2748 30.8438 95.2748H24.7577C24.3297 95.2748 23.9124 95.1398 23.5647 94.8889L23.1324 94.577C21.6943 93.5552 21.0248 92.2094 21 90.3652C21 89.0692 21.0992 88.6954 21.6943 87.873C22.5125 86.7515 22.9092 86.4026 24.0498 85.7546C24.7441 85.3559 25.5376 85.306 30.7446 85.306C36.5715 85.2811 36.6459 85.2811 37.8609 85.9042Z" fill="url(#paint1_linear_23_231)"/>
<path d="M222.54 129.691C239.153 120.051 239.153 95.9495 222.54 86.3091L132.579 24.393C115.966 14.7526 95.2003 26.803 95.2003 46.0838V53.2828C95.2003 58.4443 91.0373 62.6285 85.902 62.6285H76.3248C73.6031 62.6285 71.3967 64.8462 71.3967 67.5817C71.3967 70.3173 73.6031 72.535 76.3248 72.535L95.2003 72.5352L96.936 72.5431C126.467 72.6927 133.683 72.8422 136.609 73.3905C141.543 74.3375 142.684 74.5867 144.667 75.1599C145.382 75.3811 146.219 75.6158 146.817 75.7836L146.832 75.7877L147.071 75.8547C147.175 75.8841 147.268 75.9102 147.345 75.9325C147.866 76.0571 148.461 76.2565 148.709 76.3811C148.932 76.5057 150.097 77.0291 151.312 77.5275C154.139 78.6988 157.313 80.3437 159.52 81.8141C160.487 82.462 161.33 83.0602 161.404 83.1349C161.479 83.2346 162.098 83.6832 162.768 84.1318C164.156 85.1038 169.041 89.9137 171.099 92.3311C171.525 92.8449 172.163 93.5958 172.807 94.3544L172.817 94.3662C173.097 94.6969 173.379 95.0289 173.645 95.3431L173.904 95.6502C173.997 95.7603 174.087 95.8671 174.174 95.9697C174.934 96.8314 175.954 98.0317 176.717 98.9296L176.726 98.9405L177.112 99.3944L177.273 99.5834C178.017 100.481 178.835 101.428 179.083 101.702C179.852 102.524 187.985 112.318 188.927 113.54C189.398 114.163 189.845 114.711 189.919 114.786C190.142 114.985 192.969 118.798 193.514 119.645C194.531 121.216 195.2 122.761 195.622 124.505C195.641 124.578 195.662 124.66 195.684 124.748L195.755 125.033L195.81 125.256L195.818 125.288C195.911 125.665 196.009 126.067 196.093 126.374C196.415 127.645 196.44 131.309 196.093 132.605C196.007 132.984 195.874 133.505 195.759 133.956C195.708 134.158 195.66 134.345 195.622 134.499C195.275 135.795 194.184 137.888 192.969 139.508C190.762 142.424 186.869 144.617 182.728 145.265C181.712 145.415 165.024 145.539 138.096 145.589C123.724 145.619 107.806 145.659 95.2003 145.691V145.672H60.5177C57.796 145.672 55.5896 147.889 55.5896 150.625C55.5896 153.36 57.796 155.578 60.5177 155.578H85.902C91.0373 155.578 95.2003 159.762 95.2003 164.924V169.916C95.2003 189.197 115.966 201.247 132.579 191.607L222.54 129.691Z" fill="url(#paint2_linear_23_231)"/>
<path d="M267.643 181C240.72 197.671 188.424 208.978 128.321 208.978C68.2194 208.978 15.9229 197.671 -11 181V256.788H267.643V181Z" fill="url(#paint3_linear_23_231)"/>
<path d="M76.928 223.8L80.344 224.528C79.868 228.056 79.028 231.388 76.62 233.404L73.568 231.5C75.612 229.792 76.536 226.992 76.928 223.8ZM94.12 223.744L97.844 225.172C96.416 227.888 94.708 230.884 93.308 232.844L90.396 231.556C91.712 229.484 93.28 226.236 94.12 223.744ZM85.832 218.62H87.68V227.384C87.68 231.64 90.312 238.136 99.048 241.356C98.292 242.112 97.228 243.54 96.724 244.52C90.004 241.776 86.616 236.148 85.832 233.376C85.076 236.232 81.996 241.692 75.36 244.52C74.912 243.764 73.736 242.336 73.008 241.636C81.464 238.416 84.012 231.612 84.012 227.412V218.62H85.832ZM101.932 222.176H126.124V225.424H101.932V222.176ZM101.344 236.428H126.684V239.704H101.344V236.428ZM113.776 226.46H117.388V244.52H113.776V226.46ZM104.592 233.768C104.424 233.04 103.78 231.276 103.36 230.296C104.116 230.072 104.676 229.372 105.488 228.168C106.328 226.992 108.82 222.344 110.22 217.948L114.168 218.956C112.208 223.8 109.408 228.532 106.916 231.78V231.892C106.916 231.892 104.592 233.096 104.592 233.768ZM104.592 233.768V231.22L106.468 230.128H124.276V233.32H107.84C106.328 233.32 104.872 233.488 104.592 233.768ZM129.54 225.256H154.656V228.7H129.54V225.256ZM138.332 238.612L141.244 236.568C143.008 238.052 145.36 240.264 146.452 241.748L143.316 244.1C142.336 242.56 140.096 240.236 138.332 238.612ZM144.296 226.852C146.004 233.348 149.588 238.864 155.412 241.384C154.572 242.112 153.452 243.54 152.892 244.52C146.62 241.384 143.148 235.392 141.048 227.608L144.296 226.852ZM139.704 218.228H143.4C143.26 226.852 143.232 238.696 131.164 244.52C130.66 243.596 129.596 242.392 128.616 241.664C140.152 236.568 139.62 225.872 139.704 218.228ZM169.356 219.292H182.964V222.176H169.356V219.292ZM174.34 220.86L177.924 221.252C177.28 222.988 176.552 224.78 175.992 225.984L173.248 225.452C173.668 224.136 174.144 222.204 174.34 220.86ZM174.48 228.84H177.56V234.048C177.56 237.66 176.58 241.944 170.42 244.632C169.972 243.988 169.048 242.924 168.32 242.364C173.752 240.264 174.48 236.596 174.48 234.02V228.84ZM174.956 238.836L177.224 237.128C179.156 238.696 181.732 240.964 182.964 242.476L180.556 244.464C179.408 242.924 176.916 240.516 174.956 238.836ZM169.944 224.248H182.208V237.744H179.072V227.244H172.912V237.856H169.944V224.248ZM165.66 219.152H168.544V243.624H165.66V219.152ZM161.908 221.336H164.428V240.656H161.908V221.336ZM157.904 219.292H160.704V231.5C160.704 236.54 160.48 241.048 158.66 244.548C158.156 243.904 157.036 242.896 156.336 242.504C157.708 239.48 157.904 235.728 157.904 231.5V219.292Z" fill="white"/>
</g>
<defs>
<linearGradient id="paint0_linear_23_231" x1="226.841" y1="108" x2="49.8944" y2="108" gradientUnits="userSpaceOnUse">
<stop stop-color="#FF9153"/>
<stop offset="1" stop-color="#FE58B5"/>
</linearGradient>
<linearGradient id="paint1_linear_23_231" x1="226.841" y1="108" x2="49.8944" y2="108" gradientUnits="userSpaceOnUse">
<stop stop-color="#FF9153"/>
<stop offset="1" stop-color="#FE58B5"/>
</linearGradient>
<linearGradient id="paint2_linear_23_231" x1="226.841" y1="108" x2="49.8944" y2="108" gradientUnits="userSpaceOnUse">
<stop stop-color="#FF9153"/>
<stop offset="1" stop-color="#FE58B5"/>
</linearGradient>
<linearGradient id="paint3_linear_23_231" x1="128.322" y1="181" x2="128.322" y2="256.788" gradientUnits="userSpaceOnUse">
<stop stop-color="#FE58B5"/>
<stop offset="1" stop-color="#FF9054"/>
</linearGradient>
<clipPath id="clip0_23_231">
<rect width="256" height="256" rx="58" fill="white"/>
</clipPath>
</defs>
</svg>
