<svg width="87" height="114" viewBox="0 0 87 114" fill="none" xmlns="http://www.w3.org/2000/svg">
<path d="M24.8594 23.7031H62.8281C63.3876 23.7031 63.9241 23.9254 64.3197 24.3209C64.7153 24.7165 64.9375 25.2531 64.9375 25.8125V59.5625C64.9375 60.1219 64.7153 60.6585 64.3197 61.0541C63.9241 61.4496 63.3876 61.6719 62.8281 61.6719H24.8594C24.2999 61.6719 23.7634 61.4496 23.3678 61.0541C22.9722 60.6585 22.75 60.1219 22.75 59.5625V25.8125C22.75 25.2531 22.9722 24.7165 23.3678 24.3209C23.7634 23.9254 24.2999 23.7031 24.8594 23.7031ZM60.7188 46.9062H53.5131C52.6924 48.7881 51.3403 50.3896 49.6228 51.5143C47.9052 52.639 45.8968 53.2381 43.8438 53.2381C41.7907 53.2381 39.7823 52.639 38.0647 51.5143C36.3472 50.3896 34.9951 48.7881 34.1744 46.9062H26.9688V57.4531H60.7188V46.9062ZM60.7188 42.6875V27.9219H26.9688V42.6875H37.5156C37.5156 44.3658 38.1823 45.9754 39.3691 47.1622C40.5558 48.3489 42.1654 49.0156 43.8438 49.0156C45.5221 49.0156 47.1317 48.3489 48.3184 47.1622C49.5052 45.9754 50.1719 44.3658 50.1719 42.6875H60.7188Z" fill="#080808" fill-opacity="0.36"/>
<path d="M54.625 9.89232L56.144 16.5088" stroke="#FE58B5" stroke-width="4.6875" stroke-linecap="round" stroke-linejoin="round"/>
<line x1="71.6884" y1="11.2488" x2="68.3145" y2="16.3335" stroke="#FE58B5" stroke-width="4.6875" stroke-linecap="round" stroke-linejoin="round"/>
<path d="M79.4687 26.75L73.5667 28.0343" stroke="#FE58B5" stroke-width="4.6875" stroke-linecap="round" stroke-linejoin="round"/>
<path d="M7.54078 100.082C7.36345 99.466 7.17211 98.8967 6.96678 98.374L7.86278 98.234C7.97478 98.5047 8.07278 98.7893 8.15678 99.088C8.25012 99.3867 8.33878 99.718 8.42278 100.082H11.5868V100.922H10.4808C10.1261 102.303 9.61745 103.489 8.95478 104.478C9.44011 104.898 9.89745 105.318 10.3268 105.738C10.7654 106.149 11.1854 106.564 11.5868 106.984L10.9008 107.67C10.5368 107.259 10.1541 106.853 9.75278 106.452C9.35145 106.041 8.91278 105.621 8.43678 105.192C7.46612 106.349 6.22945 107.194 4.72678 107.726L4.20878 106.928C5.66478 106.461 6.85478 105.687 7.77878 104.604C7.34011 104.231 6.88745 103.857 6.42078 103.484C5.95411 103.101 5.46411 102.719 4.95078 102.336L5.55278 101.734C6.04745 102.098 6.52345 102.462 6.98078 102.826C7.44745 103.181 7.88611 103.535 8.29678 103.89C8.58611 103.47 8.83811 103.017 9.05278 102.532C9.26745 102.037 9.44945 101.501 9.59878 100.922H4.48878V100.082H7.54078ZM1.61878 98.43C2.03878 98.7567 2.42611 99.0787 2.78078 99.396C3.13545 99.704 3.45745 100.021 3.74678 100.348L3.10278 100.964C2.85078 100.656 2.54745 100.343 2.19278 100.026C1.84745 99.6993 1.45545 99.368 1.01678 99.032L1.61878 98.43ZM8.84278 109.42C8.51612 109.42 8.17078 109.415 7.80678 109.406C7.44278 109.397 7.06012 109.387 6.65878 109.378C6.26678 109.369 5.91211 109.345 5.59478 109.308C5.27745 109.28 4.99278 109.229 4.74078 109.154C4.28345 109.014 3.84945 108.711 3.43878 108.244C3.28011 108.039 3.12145 107.936 2.96278 107.936C2.66411 107.936 2.17878 108.505 1.50678 109.644L0.834781 109.056C1.50678 107.992 2.09011 107.357 2.58478 107.152V103.372H0.806781V102.56H3.41078V107.194C3.46678 107.231 3.51811 107.273 3.56478 107.32C3.61145 107.367 3.66278 107.418 3.71878 107.474C3.98945 107.829 4.30678 108.09 4.67078 108.258C5.03478 108.426 5.58078 108.529 6.30878 108.566C6.64478 108.575 7.01345 108.58 7.41478 108.58C7.81611 108.58 8.25478 108.58 8.73078 108.58C9.02011 108.58 9.30945 108.58 9.59878 108.58C9.88812 108.58 10.1914 108.575 10.5088 108.566C11.1154 108.557 11.5821 108.538 11.9088 108.51L11.6988 109.42H8.84278ZM15.1808 102.014V103.68H18.2188V102.014H15.1808ZM18.2188 104.492H14.3128V98.71H23.0068V104.492H19.1288V105.934H23.6228V106.802H19.1288V108.342H24.1268V109.182H13.2068V108.342H18.2188V106.802H13.7248V105.934H18.2188V104.492ZM19.1288 103.68H22.1248V102.014H19.1288V103.68ZM22.1248 101.202V99.522H19.1288V101.202H22.1248ZM18.2188 99.522H15.1808V101.202H18.2188V99.522ZM27.0629 102.574C26.8389 102.882 26.6009 103.185 26.3489 103.484C26.0969 103.783 25.8309 104.077 25.5509 104.366L25.2569 103.442C26.6289 101.902 27.6136 100.157 28.2109 98.206L29.0369 98.598C28.8969 99.0553 28.7336 99.494 28.5469 99.914C28.3602 100.334 28.1549 100.74 27.9309 101.132V109.644H27.0629V102.574ZM33.1949 98.248V102.336H36.7229V103.232H33.1949V109.63H32.2849V103.232H28.9249V102.336H32.2849V98.248H33.1949ZM46.127 104.198C46.6403 104.973 47.1163 105.766 47.555 106.578C48.003 107.39 48.4183 108.23 48.801 109.098L47.905 109.476C47.8303 109.261 47.7416 109.056 47.639 108.86C47.5456 108.655 47.457 108.449 47.373 108.244C46.281 108.449 45.077 108.622 43.761 108.762C42.4543 108.893 41.0263 109.009 39.477 109.112L39.211 108.188C39.3416 108.141 39.4723 108.071 39.603 107.978C39.7336 107.885 39.8643 107.768 39.995 107.628C41.6003 105.976 43.3176 103.577 45.147 100.432L46.043 100.88C44.951 102.663 43.971 104.156 43.103 105.36C42.2443 106.555 41.493 107.474 40.849 108.118C42.9863 107.969 45.0256 107.745 46.967 107.446C46.687 106.895 46.4116 106.377 46.141 105.892C45.8703 105.397 45.581 104.926 45.273 104.478L46.127 104.198ZM43.593 98.402C42.305 101.09 40.597 103.311 38.469 105.066L37.853 104.324C39.813 102.765 41.409 100.726 42.641 98.206L43.593 98.402ZM61.215 98.808V99.48C61.019 100.124 60.8137 100.745 60.599 101.342C60.3844 101.939 60.165 102.518 59.941 103.078C60.3984 103.713 60.7437 104.282 60.977 104.786C61.2104 105.281 61.327 105.724 61.327 106.116C61.327 106.807 61.1684 107.283 60.851 107.544C60.4964 107.833 59.8197 107.978 58.821 107.978L58.555 107.068C58.723 107.096 58.8724 107.115 59.003 107.124C59.1337 107.133 59.2597 107.138 59.381 107.138C59.857 107.101 60.151 107.026 60.263 106.914C60.3937 106.755 60.459 106.489 60.459 106.116C60.459 105.341 59.9784 104.329 59.017 103.078C59.2224 102.602 59.4277 102.079 59.633 101.51C59.8384 100.931 60.0484 100.311 60.263 99.648H58.065V109.616H57.197V98.808H61.215ZM52.871 99.704V98.262H53.725V99.704H55.055V100.488H53.725V102.07H54.145C54.9197 101.146 55.5357 100.101 55.993 98.934L56.749 99.284C56.553 99.8067 56.3337 100.301 56.091 100.768C55.8484 101.235 55.5684 101.669 55.251 102.07H56.609V102.896H54.551C54.3364 103.12 54.1217 103.33 53.907 103.526C53.7017 103.722 53.487 103.918 53.263 104.114H56.007V109.616H55.167V109.084H52.535V109.63H51.653V105.15C51.4944 105.234 51.3264 105.323 51.149 105.416C50.9717 105.5 50.799 105.584 50.631 105.668L50.155 104.954C51.3777 104.431 52.451 103.745 53.375 102.896H50.505V102.07H52.871V100.488H51.079V99.704H52.871ZM52.535 108.286H55.167V106.984H52.535V108.286ZM55.167 104.884H52.535V106.214H55.167V104.884ZM63.6611 98.416C64.5104 99.032 65.2338 99.6573 65.8311 100.292L65.2011 100.922C64.9398 100.623 64.6271 100.32 64.2631 100.012C63.8991 99.6947 63.4931 99.3727 63.0451 99.046L63.6611 98.416ZM63.2971 101.412C64.1184 102.019 64.8091 102.635 65.3691 103.26L64.7251 103.876C64.2304 103.307 63.5491 102.691 62.6811 102.028L63.2971 101.412ZM65.6631 105.108C65.0844 106.657 64.4544 108.109 63.7731 109.462L62.8771 109.084C63.6518 107.675 64.3051 106.242 64.8371 104.786L65.6631 105.108ZM66.4191 104.492V103.652H72.9711V104.464C72.4671 105.649 71.6878 106.653 70.6331 107.474C71.5851 108.109 72.7471 108.585 74.1191 108.902L73.6851 109.7C72.1731 109.308 70.9178 108.748 69.9191 108.02C68.8831 108.692 67.6558 109.243 66.2371 109.672L65.7891 108.846C66.4611 108.669 67.0771 108.463 67.6371 108.23C68.1971 107.997 68.7151 107.74 69.1911 107.46C68.2764 106.639 67.6138 105.649 67.2031 104.492H66.4191ZM69.9191 106.97C70.8431 106.27 71.5244 105.444 71.9631 104.492H68.0571C68.4958 105.463 69.1164 106.289 69.9191 106.97ZM71.9631 98.724V101.44C71.9631 101.72 72.1171 101.86 72.4251 101.86H73.8391V102.7H72.2151C71.4684 102.7 71.0951 102.341 71.0951 101.622V99.592H68.4771V100.152C68.4771 101.477 67.8144 102.504 66.4891 103.232L65.9011 102.546C67.0211 102.005 67.5811 101.239 67.5811 100.25V98.724H71.9631ZM78.8752 104.058H83.8032V102.714H78.8752V104.058ZM78.8752 104.842V106.172H83.8032V104.842H78.8752ZM78.8752 106.942V109.602H78.0492V103.12C77.3305 103.997 76.5278 104.795 75.6412 105.514L75.0532 104.758C76.6212 103.507 77.8298 102.084 78.6792 100.488H75.3752V99.634H79.0712C79.1925 99.382 79.2952 99.1393 79.3792 98.906C79.4725 98.6633 79.5612 98.4207 79.6452 98.178L80.5552 98.276C80.4712 98.5187 80.3918 98.752 80.3172 98.976C80.2425 99.2 80.1632 99.4193 80.0792 99.634H86.2392V100.488H79.6872C79.5752 100.74 79.4538 100.987 79.3232 101.23C79.1925 101.463 79.0478 101.697 78.8892 101.93H84.6572V108.636C84.6572 109.243 84.3118 109.555 83.6212 109.574H82.2212L82.0112 108.762C82.4592 108.79 82.8978 108.804 83.3272 108.804C83.6445 108.804 83.8032 108.655 83.8032 108.356V106.942H78.8752Z" fill="black" fill-opacity="0.6"/>
</svg>
