<svg width="248" height="97" viewBox="0 0 248 97" fill="none" xmlns="http://www.w3.org/2000/svg">
<path fill-rule="evenodd" clip-rule="evenodd" d="M39.0377 10.0015C39.6551 10.0921 40.2692 10.2431 40.6215 10.3975C40.6786 10.4243 40.7356 10.4444 40.7457 10.4444C40.8094 10.4444 41.2524 10.6693 41.5208 10.8337C41.957 11.1055 42.5778 11.639 42.5778 11.743C42.5778 11.7766 42.1751 11.7867 40.5645 11.7867C38.6451 11.7867 38.5411 11.79 38.4236 11.8504C38.182 11.9746 37.9941 12.2396 37.9606 12.5081C37.9237 12.7799 38.1384 13.149 38.4236 13.2966C38.5511 13.3638 38.6183 13.3638 41.2826 13.3638H44.0106L44.3999 13.8302C44.6113 14.0852 44.8092 14.3134 44.8327 14.3402C44.8562 14.3671 44.9367 14.4644 45.0106 14.555C45.081 14.6489 45.1515 14.7295 45.1616 14.7395C45.175 14.7496 45.3193 14.9375 45.4871 15.159C45.8125 15.5952 45.8897 15.7797 45.8562 16.0683C45.836 16.2697 45.7555 16.377 45.5743 16.4542C45.4267 16.518 45.2723 16.518 35.7795 16.5113C28.1221 16.5045 26.1289 16.4911 26.0954 16.4576C26.0752 16.4374 26.0316 16.4173 26.0014 16.4173C25.9712 16.4173 25.9075 16.3737 25.8571 16.3233C25.535 15.9878 25.5686 15.565 25.9309 15.2831L26.0752 15.1757H28.3033C29.7798 15.1757 30.5582 15.1623 30.6019 15.1422C30.669 15.1053 30.6891 14.961 30.6287 14.9241C30.6119 14.9107 30.5784 14.867 30.5616 14.8301C30.5448 14.7899 30.4777 14.6657 30.414 14.555C30.2864 14.3369 30.2059 14.1724 30.1086 13.9342C30.0146 13.7161 30.0146 12.743 30.1086 12.5249C30.2093 12.2766 30.3234 12.0484 30.4307 11.8705C30.4844 11.7766 30.5415 11.6793 30.5515 11.6524C30.565 11.6256 30.5985 11.5753 30.6254 11.5451C30.6556 11.5081 30.6656 11.4545 30.6522 11.4008L30.6321 11.3169H29.3939C28.716 11.3169 28.0886 11.3068 28.0013 11.2967C27.7228 11.2565 27.4745 10.931 27.4779 10.6021C27.4812 10.3706 27.6523 10.1223 27.8906 10.0116C28.0282 9.94781 28.1691 9.94781 33.3836 9.95117C37.5613 9.95788 38.8028 9.96795 39.0377 10.0015ZM33.9541 11.8403C33.9742 11.8135 34.0413 11.7833 34.0983 11.7766C34.1587 11.7665 34.6688 11.7632 35.2325 11.7665L36.2627 11.7699L36.4472 11.8974C36.7224 12.0853 36.8063 12.2497 36.8063 12.5819C36.8063 12.8571 36.7861 12.9108 36.6083 13.1087C36.5613 13.1591 36.464 13.2396 36.3969 13.2832L36.2694 13.3638H34.0379L33.8836 13.2564C33.7997 13.1993 33.6789 13.0785 33.6185 12.9913C33.5178 12.8403 33.5078 12.8101 33.5078 12.5584C33.5078 12.3571 33.5212 12.2732 33.5648 12.2262C33.595 12.196 33.6185 12.1524 33.6185 12.139C33.6185 12.092 33.8265 11.8873 33.8735 11.8873C33.8937 11.8873 33.9306 11.8672 33.9541 11.8403Z" fill="url(#paint0_linear_501_27049)"/>
<path d="M26.1021 10.025C26.1994 10.0753 26.3135 10.1693 26.3705 10.2498C26.4578 10.3706 26.4712 10.4142 26.4712 10.6189C26.4712 10.9209 26.3907 11.0753 26.1591 11.2263C26.0719 11.2833 25.9779 11.2867 25.1525 11.2867H24.3288C24.2709 11.2867 24.2144 11.2685 24.1674 11.2347L24.1089 11.1927C23.9143 11.0551 23.8237 10.8739 23.8203 10.6256C23.8203 10.4511 23.8337 10.4008 23.9143 10.2901C24.025 10.1391 24.0787 10.0921 24.233 10.0049C24.327 9.95117 24.4344 9.94446 25.139 9.94446C25.9276 9.9411 25.9377 9.9411 26.1021 10.025Z" fill="url(#paint1_linear_501_27049)"/>
<path d="M51.0946 15.9205C53.3428 14.6225 53.3428 11.3775 51.0946 10.0795L38.9203 1.74297C36.672 0.444962 33.8618 2.06747 33.8618 4.66348V5.63277C33.8618 6.32773 33.2984 6.8911 32.6034 6.8911H31.3074C30.939 6.8911 30.6405 7.18969 30.6405 7.55801C30.6405 7.92634 30.939 8.22493 31.3074 8.22493L33.8618 8.22496L34.0967 8.22603C38.0931 8.24616 39.0696 8.2663 39.4655 8.34012C40.1333 8.46763 40.2877 8.50118 40.5561 8.57836C40.6528 8.60813 40.7661 8.63975 40.8471 8.66233L40.8491 8.66289L40.8814 8.67191C40.8955 8.67586 40.908 8.67938 40.9185 8.68238C40.9889 8.69916 41.0695 8.726 41.103 8.74278C41.1332 8.75956 41.2909 8.83003 41.4554 8.89714C41.8379 9.05485 42.2674 9.27631 42.5661 9.47429C42.6969 9.56153 42.811 9.64207 42.8211 9.65214C42.8311 9.66555 42.915 9.72596 43.0056 9.78636C43.1935 9.91723 43.8546 10.5648 44.1331 10.8903C44.1907 10.9595 44.277 11.0606 44.3641 11.1628L44.3655 11.1643C44.4035 11.2089 44.4417 11.2536 44.4776 11.2959L44.5127 11.3372C44.5253 11.352 44.5375 11.3664 44.5492 11.3802C44.652 11.4963 44.7901 11.6579 44.8934 11.7788L44.8946 11.7802L44.9468 11.8414L44.9686 11.8668C45.0693 11.9876 45.18 12.1151 45.2136 12.152C45.3176 12.2627 46.4182 13.5815 46.5457 13.7459C46.6095 13.8298 46.6699 13.9036 46.68 13.9137C46.7101 13.9405 47.0927 14.4539 47.1665 14.568C47.3041 14.7794 47.3947 14.9874 47.4517 15.2223C47.4543 15.2321 47.4571 15.2431 47.4601 15.255L47.4697 15.2933L47.4771 15.3234L47.4782 15.3277C47.4908 15.3785 47.5042 15.4326 47.5155 15.474C47.5591 15.6451 47.5625 16.1384 47.5155 16.3129C47.5039 16.3639 47.4859 16.4341 47.4703 16.4948C47.4634 16.522 47.4569 16.5472 47.4517 16.5679C47.4047 16.7424 47.2571 17.0243 47.0927 17.2424C46.794 17.635 46.2672 17.9303 45.7068 18.0175C45.5693 18.0376 43.311 18.0544 39.6668 18.0611C37.7219 18.0652 35.5676 18.0705 33.8618 18.0748V18.0722H29.1682C28.7999 18.0722 28.5013 18.3708 28.5013 18.7391C28.5013 19.1075 28.7999 19.4061 29.1682 19.4061H32.6034C33.2984 19.4061 33.8618 19.9694 33.8618 20.6644V21.3366C33.8618 23.9326 36.672 25.5551 38.9203 24.2571L51.0946 15.9205Z" fill="url(#paint2_linear_501_27049)"/>
<path d="M75.6128 12.18L81.3128 20.18H76.9328L73.3328 15.26L68.5928 20.18H64.2128L71.7928 12.26L72.5928 6.54L71.9528 5.78H76.5128L75.6128 12.18ZM66.4928 7.4L66.0928 6.92H70.0928L70.3728 13H66.7528L66.4928 7.4ZM76.8328 13L78.6528 7.4L78.2528 6.92H82.4328L80.4328 13H76.8328ZM84.6913 12.24L86.6913 9.4H84.3313L84.6113 7.5H88.0313L88.6313 6.64L88.2113 6.16H93.1513L92.2113 7.5H100.571L100.291 9.4H90.8713L88.8713 12.24H91.1513L91.4713 9.96H95.2713L94.9513 12.24H99.1313L98.8713 14.14H94.6913L94.5313 15.28H99.8513L99.5913 17.18H94.2513L93.8913 19.84H90.0913L90.4513 17.18H82.8713L83.1313 15.28H90.7313L90.8913 14.14H84.4313L84.6913 12.24ZM114.75 6.16L112.23 10H118.91L118.61 12.24H115.05L118.05 20.18H113.77L110.79 12.24H110.77L105.57 20.18H101.33L106.53 12.24H103.03L103.33 10H107.99L110.19 6.66L109.75 6.16H114.75ZM111.61 16.38L112.23 20.16H108.63L108.21 16.38H111.61ZM129.028 10.06L129.208 8.82H127.208L127.468 7.04H129.448L129.528 6.54L128.848 5.78H132.988L132.808 7.04H134.308L134.488 6.68H137.748L136.128 10.06H137.328L137.068 11.94H130.648L130.208 12.8H136.388L135.408 19.84H125.748L126.248 16.2H124.748L127.128 11.94H125.868L126.128 10.06H129.028ZM124.388 18.7L119.308 19.84L119.608 17.62L120.708 17.38L121.428 12.22H120.368L120.648 10.24H121.708L122.168 6.92L121.668 6.16H125.188L124.608 10.24H125.568L125.288 12.22H124.328L123.688 16.7L124.688 16.48L124.388 18.7ZM129.528 15.6H132.788L132.948 14.5H129.688L129.528 15.6ZM132.448 18.14L132.548 17.38H129.288L129.188 18.14H132.448ZM132.868 10.06L133.468 8.82H132.568L132.388 10.06H132.868ZM166.879 14.16H158.479L159.499 6.94L159.019 6.14H168.019L166.879 14.16ZM158.319 8L156.419 8.16L156.199 9.82H158.359L158.079 11.86H155.899L154.739 20.18H151.999L153.159 11.86H150.899L151.179 9.82H153.459L153.659 8.4L151.519 8.58L151.799 6.54L158.599 5.96L158.319 8ZM160.459 20.12H157.479L159.379 14.88H162.199L160.459 20.12ZM166.339 20.16H163.539L163.159 14.9H165.959L166.339 20.16ZM155.319 19.46L155.999 12.42H157.859L157.159 19.46H155.319ZM149.819 19.46L151.119 12.42H152.979L151.659 19.46H149.819ZM164.379 12.24L164.959 8.06H162.079L161.499 12.24H164.379ZM168.717 20.18L172.237 13.96H170.357L170.637 12.04H184.317L183.357 18.86C183.304 19.2333 183.124 19.5467 182.817 19.8C182.524 20.0533 182.184 20.18 181.797 20.18H177.837L179.637 18.32L180.237 13.96H176.037L172.517 20.18H168.717ZM172.997 11.48H169.197L173.417 6.24L173.037 5.78H177.597L172.997 11.48ZM182.917 5.78L185.917 11.48H182.117L179.117 5.78H182.917ZM203.356 16.04L200.616 16.78L200.736 17.94H202.336L203.196 17.18L202.836 19.84H197.516L197.296 17.68L193.496 18.7L193.756 16.8L197.116 15.9L196.836 13.18H194.256L194.536 11.28H196.636L196.536 10.34H194.656L194.936 8.44H196.336L196.056 5.78H199.476L199.756 8.44H204.436L204.156 10.34H199.956L200.056 11.28H204.036L203.756 13.18H200.236L200.436 15L203.636 14.14L203.356 16.04ZM188.196 10.34L190.796 6.28L190.356 5.78H194.536L191.616 10.34H193.896L190.976 14.9H193.256L192.996 16.8H187.296L187.556 14.9L189.276 12.24H187.936L188.196 10.34ZM192.616 19.46L186.876 19.84L187.136 17.94L192.896 17.56L192.616 19.46ZM204.036 5.78L204.536 7.68H201.116L200.616 5.78H204.036ZM208.194 12.86L207.454 18.12L208.074 18.04L208.954 11.8H206.694L207.494 6.16H213.574L212.774 11.8H211.754L211.554 13.3H212.674L212.414 15.04H211.294L210.914 17.74L212.314 17.6L212.054 19.46L205.154 20.14L205.414 18.32L205.734 18.3L206.514 12.86H208.194ZM219.454 13.52L218.094 12.46L216.554 13.52H212.874L213.134 11.74H215.754L216.854 10.9L216.094 10.3L216.054 10.36H213.094L215.434 6.28L215.014 5.78H218.714L218.274 6.52H223.054L222.774 8.62L219.694 11.02L220.614 11.74H223.034L222.774 13.52H219.454ZM222.014 14.1L221.214 19.82H212.754L213.554 14.1H222.014ZM218.534 18.04L218.854 15.88H216.194L215.874 18.04H218.534ZM209.674 7.66L209.294 10.36H210.574L210.954 7.66H209.674ZM217.334 8.14L217.134 8.48L218.354 9.42L220.014 8.14H217.334Z" fill="url(#paint3_linear_501_27049)"/>
<rect y="38" width="247.544" height="0.683824" fill="url(#paint4_linear_501_27049)"/>
<path d="M9.80927 56.2438V54.5038H10.5893V56.2438H12.7733V60.5278H10.6013V62.9638C10.8733 62.9238 11.1333 62.8798 11.3813 62.8318C11.6293 62.7838 11.8773 62.7358 12.1253 62.6878C12.0453 62.4318 11.9613 62.1798 11.8733 61.9318C11.7933 61.6838 11.7093 61.4358 11.6213 61.1878L12.2573 60.9958C12.4413 61.4518 12.6133 61.9358 12.7733 62.4478C12.9333 62.9598 13.0853 63.5078 13.2293 64.0918L12.5333 64.2718C12.4933 64.1198 12.4533 63.9678 12.4133 63.8158C12.3813 63.6638 12.3413 63.5158 12.2933 63.3718C11.1093 63.6438 9.46127 63.8678 7.34927 64.0438L7.22927 63.2638C7.70927 63.2398 8.16127 63.2118 8.58527 63.1798C9.00927 63.1478 9.42127 63.1078 9.82127 63.0598V60.5278H7.66127V56.2438H9.80927ZM12.0173 56.9518H10.5893V59.8198H12.0173V56.9518ZM9.83327 56.9518H8.41727V59.8198H9.83327V56.9518ZM7.51727 55.0078C7.06127 55.7198 6.61727 56.2878 6.18527 56.7118C6.21727 56.7758 6.24927 56.8478 6.28127 56.9278C6.31327 56.9998 6.34527 57.0718 6.37727 57.1438C6.53727 57.5678 6.65727 58.0798 6.73727 58.6798C6.82527 59.2798 6.87727 59.9798 6.89327 60.7798C6.89327 62.4678 6.67727 63.4838 6.24527 63.8278C5.98927 64.0118 5.64127 64.1038 5.20127 64.1038C5.04927 64.1038 4.90927 64.0998 4.78127 64.0918C4.65327 64.0918 4.54127 64.0918 4.44527 64.0918L4.20527 63.3718C4.50127 63.4038 4.77727 63.4198 5.03327 63.4198C5.39327 63.4198 5.63727 63.3598 5.76527 63.2398C6.03727 62.9598 6.17327 62.1278 6.17327 60.7438C6.15727 60.5278 6.14527 60.3158 6.13727 60.1078C6.12927 59.8918 6.11727 59.6918 6.10127 59.5078C5.57327 60.2838 4.92927 60.9318 4.16927 61.4518L3.74927 60.8278C4.22927 60.5078 4.65327 60.1518 5.02127 59.7598C5.39727 59.3678 5.71727 58.9518 5.98127 58.5118C5.94927 58.3038 5.90927 58.1158 5.86127 57.9478C5.81327 57.7798 5.76527 57.6158 5.71727 57.4558C5.67727 57.3678 5.64127 57.2878 5.60927 57.2158C5.39327 57.3678 5.16527 57.5278 4.92527 57.6958C4.69327 57.8558 4.44527 58.0158 4.18127 58.1758L3.77327 57.5158C4.03727 57.3878 4.29727 57.2398 4.55327 57.0718C4.80927 56.9038 5.04527 56.7238 5.26127 56.5318C5.10127 56.2918 4.92527 56.0598 4.73327 55.8358C4.54927 55.6038 4.34127 55.3838 4.10927 55.1758L4.69727 54.7198C4.91327 54.9278 5.10927 55.1438 5.28527 55.3678C5.46927 55.5918 5.63727 55.8198 5.78927 56.0518C5.98927 55.8358 6.17727 55.6118 6.35327 55.3798C6.53727 55.1398 6.71727 54.8838 6.89327 54.6118L7.51727 55.0078ZM20.8219 60.0718C20.7259 60.1038 20.6179 60.1358 20.4979 60.1678C20.3859 60.1998 20.2779 60.2238 20.1739 60.2398C20.3499 60.7838 20.4419 61.3398 20.4499 61.9078C20.4499 62.7638 20.3379 63.3438 20.1139 63.6478C19.8659 64.0238 19.2779 64.2118 18.3499 64.2118H17.9779L17.7259 63.5398H18.2419C18.8659 63.5318 19.2619 63.4358 19.4299 63.2518C19.6219 63.0278 19.7179 62.5798 19.7179 61.9078C19.7099 61.8038 19.7019 61.7118 19.6939 61.6318C19.6939 61.5438 19.6899 61.4638 19.6819 61.3918C18.4739 62.3278 16.9099 63.0798 14.9899 63.6478L14.6299 62.9878C15.6779 62.6838 16.6059 62.3398 17.4139 61.9558C18.2299 61.5638 18.9299 61.1278 19.5139 60.6478C19.4739 60.5118 19.4299 60.3798 19.3819 60.2518C19.3419 60.1158 19.2819 59.9798 19.2019 59.8438C18.2019 60.6358 16.8419 61.2718 15.1219 61.7518L14.7499 61.0918C15.6379 60.8598 16.4259 60.5998 17.1139 60.3118C17.8019 60.0158 18.3899 59.6758 18.8779 59.2918C18.8139 59.1958 18.7419 59.1038 18.6619 59.0158C18.5899 58.9198 18.5219 58.8278 18.4579 58.7398C18.4099 58.7558 18.3659 58.7758 18.3259 58.7998C18.2939 58.8238 18.2579 58.8438 18.2179 58.8598C17.4739 59.2118 16.5099 59.5518 15.3259 59.8798L14.9419 59.2558C15.4539 59.1438 15.9379 59.0158 16.3939 58.8718C16.8499 58.7278 17.2819 58.5678 17.6899 58.3918C17.8819 58.3038 18.0699 58.2198 18.2539 58.1398C18.4379 58.0518 18.6179 57.9598 18.7939 57.8638H15.9859V57.1438H22.3459V57.8638H19.9099C19.7659 57.9598 19.6219 58.0558 19.4779 58.1518C19.3339 58.2478 19.1899 58.3398 19.0459 58.4278C19.4299 58.8198 19.7259 59.2358 19.9339 59.6758C20.9179 59.3958 21.8579 58.9638 22.7539 58.3798L23.2699 58.8958C22.6939 59.2798 22.0819 59.5958 21.4339 59.8438C21.9459 61.1878 22.7619 62.2558 23.8819 63.0478L23.3419 63.6718C22.1659 62.7278 21.3259 61.5278 20.8219 60.0718ZM19.2859 54.3958C19.3499 54.5398 19.4099 54.6998 19.4659 54.8758C19.5299 55.0438 19.5899 55.2198 19.6459 55.4038H23.6539V57.2638H22.8979V56.1118H15.4219V57.2638H14.6659V55.4038H18.8779C18.7579 55.0598 18.6339 54.7678 18.5059 54.5278L19.2859 54.3958ZM28.7145 62.8438C28.1865 63.0438 27.6265 63.2238 27.0345 63.3838C26.4425 63.5438 25.8105 63.6878 25.1385 63.8158L25.0425 63.0718C26.4185 62.8398 27.6425 62.5158 28.7145 62.0998V62.8438ZM27.5505 54.7078C27.0145 56.0678 26.4665 57.1718 25.9065 58.0198C26.1465 58.0038 26.3825 57.9798 26.6145 57.9478C26.8545 57.9158 27.0945 57.8838 27.3345 57.8518C27.4385 57.6598 27.5425 57.4598 27.6465 57.2518C27.7505 57.0438 27.8505 56.8358 27.9465 56.6278L28.6305 56.8918C28.1665 57.7958 27.7385 58.5638 27.3465 59.1958C26.9545 59.8278 26.6065 60.3358 26.3025 60.7198C26.6945 60.6478 27.0785 60.5638 27.4545 60.4678C27.8305 60.3638 28.2105 60.2438 28.5945 60.1078V60.7918C28.0425 60.9758 27.4985 61.1318 26.9625 61.2598C26.4265 61.3798 25.9065 61.4798 25.4025 61.5598L25.1745 60.8518C25.2545 60.8118 25.3225 60.7798 25.3785 60.7558C25.4345 60.7238 25.4865 60.6838 25.5345 60.6358C25.9265 60.2198 26.4025 59.5198 26.9625 58.5358C26.6745 58.5758 26.3785 58.6158 26.0745 58.6558C25.7785 58.6878 25.4785 58.7238 25.1745 58.7638L25.0065 58.0558C25.1105 58.0158 25.2145 57.9238 25.3185 57.7798C25.8785 56.8198 26.3745 55.6998 26.8065 54.4198L27.5505 54.7078ZM33.9705 57.0478L31.2465 57.4318C31.2545 57.6958 31.2665 57.9478 31.2825 58.1878C31.3065 58.4198 31.3265 58.6478 31.3425 58.8718L34.1625 58.4398L34.2705 59.1598L31.4265 59.6038C31.4425 59.7078 31.4545 59.8078 31.4625 59.9038C31.4705 59.9918 31.4865 60.0758 31.5105 60.1558C31.6145 60.7238 31.7425 61.2118 31.8945 61.6198C32.4545 61.0998 32.9665 60.4958 33.4305 59.8078L34.0425 60.2158C33.4665 61.0478 32.8545 61.7478 32.2065 62.3158C32.2225 62.3478 32.2385 62.3838 32.2545 62.4238C32.2785 62.4638 32.2985 62.4998 32.3145 62.5318C32.6825 63.0518 32.9945 63.3118 33.2505 63.3118C33.5305 63.3118 33.7665 62.7398 33.9585 61.5958L34.6305 62.0158C34.3265 63.4318 33.8985 64.1398 33.3465 64.1398C32.8265 64.1158 32.3425 63.7918 31.8945 63.1678C31.7985 63.0398 31.7145 62.9038 31.6425 62.7598C30.8585 63.3518 30.0145 63.7878 29.1105 64.0678L28.6545 63.4558C29.6145 63.1358 30.5025 62.6838 31.3185 62.0998C31.2145 61.8598 31.1225 61.6158 31.0425 61.3678C30.9625 61.1118 30.8865 60.8318 30.8145 60.5278C30.7825 60.3998 30.7545 60.2678 30.7305 60.1318C30.7065 59.9958 30.6865 59.8598 30.6705 59.7238L28.7625 60.0358L28.6425 59.2918L30.5745 58.9918C30.5425 58.7678 30.5185 58.5358 30.5025 58.2958C30.4945 58.0478 30.4865 57.7998 30.4785 57.5518L28.9425 57.7558L28.8345 57.0598L30.4665 56.8198V54.4678H31.2225V56.7238L33.8625 56.3518L33.9705 57.0478ZM32.4105 54.4438C32.9705 54.9558 33.3905 55.3958 33.6705 55.7638L33.0825 56.1718C32.7625 55.7398 32.3425 55.2878 31.8225 54.8158L32.4105 54.4438ZM39.3671 54.8878V58.2358H38.2991V59.9398H39.4031V60.6718H38.2991V62.6518C38.5391 62.5798 38.7711 62.5038 38.9951 62.4238C39.2271 62.3438 39.4471 62.2638 39.6551 62.1838V62.9518C39.1031 63.1598 38.5031 63.3598 37.8551 63.5518C37.2071 63.7358 36.5111 63.9198 35.7671 64.1038L35.5511 63.3598L36.1151 63.2278V59.3758H36.7871V63.0598C36.9311 63.0198 37.0671 62.9878 37.1951 62.9638C37.3311 62.9318 37.4631 62.8958 37.5911 62.8558V58.2358H36.0911V54.8878H39.3671ZM38.6351 55.5838H36.8231V57.5398H38.6351V55.5838ZM44.4431 64.1878H43.6871V63.7318H41.0231V64.1878H40.3031V60.2398H44.4431V64.1878ZM43.6871 63.0118V60.9358H41.0231V63.0118H43.6871ZM42.1031 54.5758C42.0551 54.7118 42.0071 54.8438 41.9591 54.9718C41.9191 55.0998 41.8711 55.2318 41.8151 55.3678H44.4551V55.9078C44.0951 56.8118 43.5671 57.5998 42.8711 58.2718C43.5831 58.8558 44.4311 59.2998 45.4151 59.6038L44.9831 60.2278C43.9271 59.8838 43.0391 59.3958 42.3191 58.7638C41.6311 59.3398 40.7791 59.8438 39.7631 60.2758L39.2951 59.6518C40.2711 59.2678 41.1071 58.7998 41.8031 58.2478C41.4271 57.8158 41.1071 57.3678 40.8431 56.9038C40.7071 57.0558 40.5591 57.2078 40.3991 57.3598C40.2471 57.5038 40.0871 57.6398 39.9191 57.7678L39.4631 57.1798C40.3991 56.4278 41.0391 55.5158 41.3831 54.4438L42.1031 54.5758ZM41.2871 56.3158C41.4311 56.5878 41.5871 56.8478 41.7551 57.0958C41.9311 57.3438 42.1271 57.5718 42.3431 57.7798C42.9031 57.2518 43.3391 56.6758 43.6511 56.0518H41.4551C41.4231 56.0918 41.3911 56.1358 41.3591 56.1838C41.3351 56.2238 41.3111 56.2678 41.2871 56.3158ZM49.741 59.4478C49.741 59.1518 49.813 58.9438 49.957 58.8238C50.101 58.7038 50.273 58.6438 50.473 58.6438C50.681 58.6438 50.857 58.7038 51.001 58.8238C51.153 58.9438 51.229 59.1518 51.229 59.4478C51.229 59.7358 51.153 59.9438 51.001 60.0718C50.857 60.1998 50.681 60.2638 50.473 60.2638C50.273 60.2638 50.101 60.1998 49.957 60.0718C49.813 59.9438 49.741 59.7358 49.741 59.4478ZM59.7891 56.0278C59.6851 56.1798 59.5851 56.3278 59.4891 56.4718C59.3931 56.6078 59.2971 56.7518 59.2011 56.9038H64.5891C64.5651 57.8158 64.5411 58.6438 64.5171 59.3878H65.4171V60.0958H64.4931C64.4691 60.4798 64.4451 60.8318 64.4211 61.1518C64.4051 61.4638 64.3891 61.7438 64.3731 61.9918H65.2491V62.6518H64.3131C64.2891 62.9398 64.2651 63.1278 64.2411 63.2158C64.1371 63.5438 63.9331 63.7998 63.6291 63.9838C63.3411 64.1278 62.9091 64.1998 62.3331 64.1998C62.1971 64.1998 62.0531 64.1998 61.9011 64.1998C61.7491 64.2078 61.5851 64.2118 61.4091 64.2118L61.1931 63.5158C61.3771 63.5238 61.5571 63.5318 61.7331 63.5398C61.9091 63.5478 62.0771 63.5518 62.2371 63.5518C62.3811 63.5518 62.5171 63.5438 62.6451 63.5278C62.7731 63.5118 62.8971 63.4918 63.0171 63.4678C63.2331 63.3958 63.4051 63.2358 63.5331 62.9878C63.5491 62.9638 63.5571 62.9238 63.5571 62.8678C63.5651 62.8038 63.5771 62.7318 63.5931 62.6518H58.5291C58.6091 62.2198 58.6851 61.7958 58.7571 61.3798C58.8371 60.9558 58.9011 60.5278 58.9491 60.0958H57.8931V59.3878H59.0211C59.1091 58.5638 59.1651 57.7358 59.1891 56.9038C59.0771 57.0478 58.9611 57.1878 58.8411 57.3238C58.7291 57.4518 58.6131 57.5758 58.4931 57.6958L57.9891 57.1198C58.7011 56.4318 59.2931 55.5238 59.7651 54.3958L60.5211 54.5518C60.4731 54.6798 60.4171 54.8078 60.3531 54.9358C60.2971 55.0638 60.2411 55.1878 60.1851 55.3078H65.1051V56.0278H59.7891ZM59.6691 60.0958C59.6211 60.4398 59.5731 60.7718 59.5251 61.0918C59.4851 61.4038 59.4331 61.7038 59.3691 61.9918H63.6411C63.6651 61.7518 63.6851 61.4758 63.7011 61.1638C63.7171 60.8518 63.7331 60.4958 63.7491 60.0958H59.6691ZM63.7731 59.3878C63.8051 59.1078 63.8251 58.8158 63.8331 58.5118C63.8411 58.1998 63.8491 57.8878 63.8571 57.5758H59.8731C59.8491 58.2238 59.8091 58.8278 59.7531 59.3878H63.7731ZM61.3011 57.7438C61.5651 57.9198 61.8091 58.0958 62.0331 58.2718C62.2571 58.4478 62.4611 58.6238 62.6451 58.7998L62.1531 59.2798C62.0011 59.1038 61.8091 58.9318 61.5771 58.7638C61.3531 58.5958 61.1011 58.4118 60.8211 58.2118L61.3011 57.7438ZM61.2051 60.2158C61.7251 60.5918 62.1651 60.9758 62.5251 61.3678L62.0451 61.8598C61.8771 61.6758 61.6851 61.4878 61.4691 61.2958C61.2531 61.1038 61.0051 60.9038 60.7251 60.6958L61.2051 60.2158ZM56.4411 54.6358C57.0891 55.0838 57.6291 55.5238 58.0611 55.9558L57.5211 56.5078C57.3211 56.2998 57.0851 56.0838 56.8131 55.8598C56.5491 55.6358 56.2411 55.4038 55.8891 55.1638L56.4411 54.6358ZM56.2611 57.2278C56.9251 57.6918 57.4731 58.1438 57.9051 58.5838L57.3651 59.1238C57.1571 58.9158 56.9131 58.6998 56.6331 58.4758C56.3611 58.2518 56.0571 58.0118 55.7211 57.7558L56.2611 57.2278ZM58.0251 60.6118C57.8011 61.2358 57.5651 61.8318 57.3171 62.3998C57.0691 62.9678 56.8011 63.5278 56.5131 64.0798L55.7931 63.7798C56.4091 62.6518 56.9331 61.5078 57.3651 60.3478L58.0251 60.6118ZM67.4777 58.9318H74.8817V61.6318H71.5457V62.2438H75.1457V62.7358H71.5457V63.3718H75.9137V63.9598H66.4097V63.3718H70.7777V62.7358H67.2017V62.2438H70.7777V61.6318H67.4777V58.9318ZM74.1377 61.1518V60.5038H71.5457V61.1518H74.1377ZM70.7777 61.1518V60.5038H68.2097V61.1518H70.7777ZM68.2097 60.0598H70.7777V59.3998H68.2097V60.0598ZM71.5457 59.3998V60.0598H74.1377V59.3998H71.5457ZM67.7177 54.6238H74.6537V57.2758H67.7177V54.6238ZM73.9097 56.7958V56.1838H68.4497V56.7958H73.9097ZM68.4497 55.7158H73.9097V55.1038H68.4497V55.7158ZM66.3977 57.8278H75.9377V58.3918H66.3977V57.8278ZM77.7343 54.6958C78.3743 54.9038 78.9663 55.1478 79.5103 55.4278L79.1023 56.0518C78.5263 55.7158 77.9463 55.4518 77.3623 55.2598L77.7343 54.6958ZM81.9223 54.5278C81.8743 54.6558 81.8303 54.7758 81.7903 54.8878C81.7503 54.9998 81.7063 55.1078 81.6583 55.2118H85.9303V55.6678C85.8663 55.9318 85.7903 56.1918 85.7023 56.4478C85.6143 56.6958 85.5223 56.9558 85.4263 57.2278L84.6943 56.9998C84.8703 56.6638 85.0223 56.2918 85.1503 55.8838H83.3383C83.2983 56.1238 83.2303 56.3598 83.1343 56.5918C83.6863 57.4158 84.7903 57.9758 86.4463 58.2718L86.1463 58.9558C84.6023 58.6438 83.4983 58.0638 82.8343 57.2158C82.7703 57.3118 82.7023 57.4038 82.6303 57.4918C82.5583 57.5798 82.4863 57.6638 82.4143 57.7438C81.8703 58.2558 81.0143 58.6478 79.8463 58.9198L79.5583 58.2358C80.5983 58.0118 81.3543 57.6998 81.8263 57.2998C82.2103 56.9398 82.4743 56.4678 82.6183 55.8838H81.2383C81.0943 56.0758 80.9343 56.2598 80.7583 56.4358C80.5823 56.6038 80.3943 56.7718 80.1943 56.9398L79.7383 56.3398C80.4263 55.8278 80.9023 55.1958 81.1663 54.4438L81.9223 54.5278ZM85.1983 62.3638H84.4543V59.9158H79.1263V62.4358H78.3703V59.2078H85.1983V62.3638ZM82.2463 60.3838C82.0943 61.7358 81.7743 62.6438 81.2863 63.1078C80.7263 63.6918 79.4943 64.0558 77.5903 64.1998L77.2903 63.5158C78.9863 63.4118 80.0983 63.1238 80.6263 62.6518C81.1223 62.1798 81.4063 61.4038 81.4783 60.3238L82.2463 60.3838ZM79.6663 57.2158C79.1303 57.7598 78.4743 58.2838 77.6983 58.7878L77.1703 58.1758C77.9943 57.7198 78.6783 57.2238 79.2223 56.6878L79.6663 57.2158ZM82.4983 62.3398C83.1943 62.5158 83.8543 62.7118 84.4783 62.9278C85.1023 63.1438 85.6983 63.3798 86.2663 63.6358L85.8583 64.2718C85.2503 63.9838 84.6343 63.7278 84.0103 63.5038C83.3863 63.2798 82.7503 63.0838 82.1023 62.9158L82.4983 62.3398ZM88.351 54.6838C88.735 54.9638 89.083 55.2398 89.395 55.5118C89.715 55.7758 90.007 56.0438 90.271 56.3158L89.743 56.8198C89.511 56.5718 89.235 56.3118 88.915 56.0398C88.603 55.7678 88.239 55.4798 87.823 55.1758L88.351 54.6838ZM88.147 57.2878C88.499 57.5518 88.827 57.8158 89.131 58.0798C89.435 58.3358 89.707 58.5958 89.947 58.8598L89.419 59.3878C89.003 58.8918 88.411 58.3558 87.643 57.7798L88.147 57.2878ZM90.043 60.4198C89.811 61.0918 89.563 61.7398 89.299 62.3638C89.043 62.9878 88.767 63.5958 88.471 64.1878L87.763 63.8758C88.083 63.2678 88.375 62.6558 88.639 62.0398C88.911 61.4238 89.163 60.7958 89.395 60.1558L90.043 60.4198ZM93.751 56.5918C93.823 56.4238 93.879 56.2558 93.919 56.0878C93.967 55.9198 94.011 55.7478 94.051 55.5718H91.495V58.6798C91.447 60.9758 91.039 62.8198 90.271 64.2118L89.707 63.7078C90.363 62.4998 90.707 60.8238 90.739 58.6798V54.8878H97.123V55.5718H94.783C94.711 55.9238 94.615 56.2638 94.495 56.5918H96.559V60.3238H94.807V63.3238C94.807 63.8998 94.527 64.1878 93.967 64.1878H93.055L92.911 63.5038C93.047 63.5198 93.179 63.5318 93.307 63.5398C93.443 63.5478 93.575 63.5518 93.703 63.5518C93.935 63.5518 94.051 63.4158 94.051 63.1438V60.3238H92.239V56.5918H93.751ZM95.887 58.7398H92.923V59.6998H95.887V58.7398ZM95.887 58.1758V57.1918H92.923V58.1758H95.887ZM93.187 61.2118C92.915 62.1718 92.535 62.9878 92.047 63.6598L91.423 63.2758C91.927 62.6118 92.287 61.8758 92.503 61.0678L93.187 61.2118ZM96.139 61.0198C96.347 61.3958 96.547 61.7758 96.739 62.1598C96.931 62.5438 97.111 62.9478 97.279 63.3718L96.607 63.6478C96.263 62.7358 95.891 61.9398 95.491 61.2598L96.139 61.0198ZM99.6396 57.5998C99.4876 57.6958 99.3436 57.7918 99.2076 57.8878C99.0716 57.9838 98.9316 58.0798 98.7876 58.1758L98.3196 57.5998C99.6556 56.7838 100.752 55.7238 101.608 54.4198L102.388 54.5878C102.292 54.7318 102.2 54.8678 102.112 54.9958C102.032 55.1238 101.94 55.2558 101.836 55.3918H105.496V55.9798C105.056 56.5238 104.62 56.9878 104.188 57.3718H106.792V60.6118H104.356V62.7718C104.356 63.1318 104.512 63.3118 104.824 63.3118H106.54C106.716 63.3118 106.848 63.2438 106.936 63.1078C106.992 63.0198 107.036 62.8598 107.068 62.6278C107.1 62.3878 107.124 62.0678 107.14 61.6678L107.872 61.8958C107.8 62.9358 107.672 63.5598 107.488 63.7678C107.304 63.9598 107.036 64.0558 106.684 64.0558H104.596C103.94 64.0558 103.612 63.6838 103.612 62.9398V60.6118H103.036C103.004 60.7078 102.968 60.8038 102.928 60.8998C102.888 60.9958 102.848 61.0918 102.808 61.1878C102.232 62.4198 100.904 63.4318 98.8236 64.2238L98.3436 63.6238C100.2 62.9438 101.428 62.0878 102.028 61.0558L102.232 60.6118H99.6396V57.5998ZM103.204 57.3718C103.644 57.0198 104.08 56.5918 104.512 56.0878H101.26C101.052 56.3278 100.836 56.5558 100.612 56.7718C100.388 56.9798 100.16 57.1798 99.9276 57.3718H103.204ZM106.06 58.0918H103.468C103.444 58.7558 103.376 59.3518 103.264 59.8798H106.06V58.0918ZM102.46 59.8798C102.604 59.3518 102.688 58.7558 102.712 58.0918H100.372V59.8798H102.46ZM110.496 57.5878H112.08C112.104 57.4758 112.124 57.3638 112.14 57.2518C112.156 57.1398 112.168 57.0278 112.176 56.9158H110.652L110.496 57.5878ZM112.92 56.9158C112.912 57.0278 112.896 57.1398 112.872 57.2518C112.856 57.3638 112.84 57.4758 112.824 57.5878H114.48V56.9158H112.92ZM115.236 57.5878H118.092C118.092 58.3718 118.008 58.8678 117.84 59.0758C117.696 59.2998 117.332 59.4118 116.748 59.4118C116.652 59.4118 116.56 59.4118 116.472 59.4118C116.392 59.4038 116.316 59.3998 116.244 59.3998L116.1 58.8598C116.196 58.8678 116.288 58.8718 116.376 58.8718C116.464 58.8718 116.552 58.8718 116.64 58.8718C116.984 58.8718 117.192 58.8198 117.264 58.7158C117.328 58.6118 117.364 58.4318 117.372 58.1758H115.236V59.3878H114.48V58.1758H112.632C112.552 58.3038 112.468 58.4278 112.38 58.5478C112.3 58.6598 112.212 58.7678 112.116 58.8718C111.788 59.1838 111.316 59.4518 110.7 59.6758H117.216V62.5678H116.472V60.3478H111.264V62.5678H110.508V59.7238C110.372 59.7718 110.236 59.8158 110.1 59.8558C109.964 59.8878 109.824 59.9198 109.68 59.9518L109.296 59.3638C110.36 59.1238 111.112 58.8118 111.552 58.4278L111.756 58.1758H109.656L110.04 56.3158H112.176V55.6318H109.752V55.0078H112.176V54.4438H112.92V55.0078H114.48V54.4438H115.236V55.0078H117.576V56.9158H115.236V57.5878ZM112.92 56.3158H114.48V55.6318H112.92V56.3158ZM115.236 56.3158H116.844V55.6318H115.236V56.3158ZM114.432 62.4118C115.12 62.5798 115.776 62.7638 116.4 62.9638C117.032 63.1638 117.632 63.3878 118.2 63.6358L117.792 64.2718C116.56 63.7278 115.316 63.2998 114.06 62.9878L114.432 62.4118ZM114.216 60.7918C114.08 61.9998 113.76 62.8158 113.256 63.2398C112.704 63.7598 111.472 64.0878 109.56 64.2238L109.26 63.5518C110.108 63.5118 110.812 63.4318 111.372 63.3118C111.932 63.1838 112.344 63.0158 112.608 62.8078C113.088 62.3838 113.368 61.6918 113.448 60.7318L114.216 60.7918ZM123.717 56.4118C123.781 56.2838 123.837 56.1558 123.885 56.0278C123.941 55.8998 123.993 55.7758 124.041 55.6558C123.529 55.6878 122.989 55.7118 122.421 55.7278C121.853 55.7438 121.269 55.7518 120.669 55.7518L120.441 55.1038C121.969 55.1038 123.353 55.0558 124.593 54.9598C125.841 54.8638 126.965 54.7078 127.965 54.4918L128.301 55.1038C127.797 55.2158 127.253 55.3118 126.669 55.3918C126.085 55.4718 125.457 55.5358 124.785 55.5838C124.737 55.7358 124.685 55.8798 124.629 56.0158C124.581 56.1518 124.529 56.2838 124.473 56.4118H128.433V57.0718H124.161C124.097 57.2078 124.029 57.3358 123.957 57.4558C123.893 57.5678 123.825 57.6838 123.753 57.8038H129.045V58.4878H123.297C123.193 58.6158 123.093 58.7398 122.997 58.8598C122.909 58.9718 122.817 59.0918 122.721 59.2198H127.989V64.2238H127.257V63.7798H122.445V64.2238H121.713V60.2398C121.433 60.4878 121.145 60.7318 120.849 60.9718C120.553 61.2038 120.241 61.4358 119.913 61.6678L119.493 61.0078C120.077 60.5998 120.605 60.1918 121.077 59.7838C121.557 59.3678 121.989 58.9358 122.373 58.4878H119.769V57.8038H122.901C122.989 57.6758 123.073 57.5558 123.153 57.4438C123.233 57.3318 123.305 57.2078 123.369 57.0718H120.357V56.4118H123.717ZM122.445 61.8238H127.257V61.1518H122.445V61.8238ZM127.257 59.8438H122.445V60.5638H127.257V59.8438ZM122.445 63.1438H127.257V62.4238H122.445V63.1438ZM133.671 59.4478C133.671 59.1518 133.743 58.9438 133.887 58.8238C134.031 58.7038 134.203 58.6438 134.403 58.6438C134.611 58.6438 134.787 58.7038 134.931 58.8238C135.083 58.9438 135.159 59.1518 135.159 59.4478C135.159 59.7358 135.083 59.9438 134.931 60.0718C134.787 60.1998 134.611 60.2638 134.403 60.2638C134.203 60.2638 134.031 60.1998 133.887 60.0718C133.743 59.9438 133.671 59.7358 133.671 59.4478ZM144.607 54.4078C144.655 54.5438 144.707 54.6918 144.763 54.8518C144.827 55.0118 144.883 55.1838 144.931 55.3678H149.143V56.0638H139.759V55.3678H144.115C144.067 55.2078 144.011 55.0638 143.947 54.9358C143.883 54.8078 143.819 54.6798 143.755 54.5518L144.607 54.4078ZM146.551 64.1878L146.371 63.5038L147.223 63.5278C147.663 63.5278 147.883 63.3558 147.883 63.0118V60.1198H141.031V64.2238H140.287V59.4478H148.615V63.1918C148.615 63.8558 148.223 64.1878 147.439 64.1878H146.551ZM147.427 56.7478V58.8238H141.487V56.7478H147.427ZM146.683 57.3478H142.243V58.2118H146.683V57.3478ZM146.551 60.8038V62.9398H142.375V60.8038H146.551ZM145.879 61.3918H143.071V62.3638H145.879V61.3918ZM151.263 54.5998C151.575 54.8318 151.867 55.0638 152.139 55.2958C152.411 55.5278 152.659 55.7558 152.883 55.9798L152.331 56.5078C152.123 56.2998 151.891 56.0798 151.635 55.8478C151.379 55.6158 151.075 55.3798 150.723 55.1398L151.263 54.5998ZM150.927 57.1558C151.271 57.4278 151.583 57.6918 151.863 57.9478C152.143 58.1958 152.403 58.4518 152.643 58.7158L152.091 59.2558C151.883 59.0158 151.639 58.7678 151.359 58.5118C151.087 58.2478 150.759 57.9758 150.375 57.6958L150.927 57.1558ZM152.655 60.3838C152.447 61.0398 152.223 61.6798 151.983 62.3038C151.743 62.9198 151.495 63.5158 151.239 64.0918L150.531 63.7918C150.819 63.1838 151.083 62.5758 151.323 61.9678C151.563 61.3598 151.783 60.7398 151.983 60.1078L152.655 60.3838ZM156.783 54.4678V55.1398H159.639V55.7758H156.783V56.4718H159.219V57.0838H156.783V57.8278H159.927V58.4518H152.955V57.8278H156.051V57.0838H153.735V56.4718H156.051V55.7758H153.303V55.1398H156.051V54.4678H156.783ZM154.659 61.9078H158.235V61.1518H154.659V61.9078ZM158.235 59.7838H154.659V60.5638H158.235V59.7838ZM154.659 64.2238H153.915V59.1478H158.967V63.2758C158.967 63.8678 158.687 64.1638 158.127 64.1638H157.095L156.915 63.4798L157.899 63.5158C158.123 63.5158 158.235 63.3878 158.235 63.1318V62.5078H154.659V64.2238ZM169.476 55.0438V55.7878H165.66V56.4958C165.652 56.8318 165.636 57.1558 165.612 57.4678C165.596 57.7718 165.564 58.0638 165.516 58.3438H170.328V59.0998H167.028V62.8078C167.028 63.1518 167.2 63.3238 167.544 63.3238H168.9C169.148 63.3238 169.336 63.2558 169.464 63.1198C169.624 62.9518 169.72 62.4518 169.752 61.6198L170.472 61.8598C170.392 62.8838 170.236 63.5198 170.004 63.7678C169.812 63.9598 169.492 64.0558 169.044 64.0558H167.304C166.616 64.0558 166.272 63.6918 166.272 62.9638V59.0998H165.396C165.22 60.0358 164.952 60.8318 164.592 61.4878C163.928 62.6638 162.864 63.5638 161.4 64.1878L160.98 63.5158C162.452 62.8598 163.468 61.9878 164.028 60.8998C164.284 60.3798 164.48 59.7798 164.616 59.0998H161.112V58.3438H164.736C164.784 58.0638 164.82 57.7718 164.844 57.4678C164.868 57.1558 164.88 56.8318 164.88 56.4958V55.7878H161.832V55.0438H169.476ZM176.661 54.2998C176.861 54.6998 177.053 55.1278 177.237 55.5838H181.101V56.3278H173.229V58.7038C173.213 59.8798 173.113 60.9318 172.929 61.8598C172.745 62.7798 172.477 63.5958 172.125 64.3078L171.501 63.7558C171.797 63.1398 172.021 62.4158 172.173 61.5838C172.333 60.7518 172.421 59.7918 172.437 58.7038V55.5838H176.397C176.317 55.3758 176.225 55.1798 176.121 54.9958C176.025 54.8118 175.921 54.6318 175.809 54.4558L176.661 54.2998ZM190.505 64.2118H189.749V63.6478H184.361V64.2118H183.581V60.3118H190.505V64.2118ZM189.749 62.9278V61.0318H184.361V62.9278H189.749ZM184.217 56.7118C184.033 56.9438 183.833 57.1758 183.617 57.4078C183.409 57.6318 183.181 57.8478 182.933 58.0558L182.489 57.4558C183.441 56.6878 184.089 55.7398 184.433 54.6118L185.189 54.7198C185.125 54.9358 185.049 55.1478 184.961 55.3558C184.873 55.5638 184.781 55.7678 184.685 55.9678H186.761V54.4558H187.541V55.9678H191.021V56.7118H187.541V58.4278H191.825V59.1718H182.213V58.4278H186.761V56.7118H184.217ZM196.319 59.4478C196.319 59.1518 196.391 58.9438 196.535 58.8238C196.679 58.7038 196.851 58.6438 197.051 58.6438C197.259 58.6438 197.435 58.7038 197.579 58.8238C197.731 58.9438 197.807 59.1518 197.807 59.4478C197.807 59.7358 197.731 59.9438 197.579 60.0718C197.435 60.1998 197.259 60.2638 197.051 60.2638C196.851 60.2638 196.679 60.1998 196.535 60.0718C196.391 59.9438 196.319 59.7358 196.319 59.4478ZM205.299 58.2718C205.371 58.2318 205.423 58.2078 205.455 58.1998C205.855 57.9518 206.375 57.2998 207.015 56.2438H205.143V55.5478H208.107C208.035 55.3478 207.959 55.1598 207.879 54.9838C207.807 54.8078 207.727 54.6358 207.639 54.4678L208.407 54.3358C208.495 54.5198 208.575 54.7118 208.647 54.9118C208.727 55.1118 208.807 55.3238 208.887 55.5478H211.683V56.2438H207.795C207.539 56.6918 207.303 57.0758 207.087 57.3958C206.871 57.7158 206.667 57.9798 206.475 58.1878C207.091 58.1558 207.699 58.1158 208.299 58.0678C208.907 58.0118 209.519 57.9478 210.135 57.8758C210.007 57.7158 209.883 57.5598 209.763 57.4078C209.651 57.2558 209.527 57.0998 209.391 56.9398L210.027 56.5798C210.755 57.4518 211.307 58.2078 211.683 58.8478L211.059 59.2918C210.979 59.1638 210.899 59.0318 210.819 58.8958C210.739 58.7598 210.651 58.6238 210.555 58.4878C209.763 58.5758 208.943 58.6558 208.095 58.7278C207.255 58.7998 206.379 58.8638 205.467 58.9198L205.299 58.2718ZM203.175 54.6118C203.815 55.0518 204.363 55.5118 204.819 55.9918L204.267 56.5198C204.067 56.3038 203.827 56.0838 203.547 55.8598C203.275 55.6278 202.967 55.3878 202.623 55.1398L203.175 54.6118ZM202.923 57.1558C203.579 57.6598 204.139 58.1718 204.603 58.6918L204.063 59.2558C203.647 58.7678 203.083 58.2478 202.371 57.6958L202.923 57.1558ZM204.687 60.2398C204.263 61.6158 203.799 62.8958 203.295 64.0798L202.587 63.7798C202.859 63.1558 203.111 62.5358 203.343 61.9198C203.583 61.2958 203.803 60.6518 204.003 59.9878L204.687 60.2398ZM208.407 59.3998V64.0078H207.639V59.3998H208.407ZM206.667 59.3998C206.611 60.7918 206.471 61.8078 206.247 62.4478C205.991 63.1278 205.559 63.7158 204.951 64.2118L204.471 63.6118C204.719 63.4038 204.935 63.1798 205.119 62.9398C205.303 62.6918 205.443 62.4198 205.539 62.1238C205.747 61.5718 205.871 60.6638 205.911 59.3998H206.667ZM210.447 64.1278C209.831 64.1278 209.523 63.8438 209.523 63.2758V59.3998H210.267V63.1438C210.267 63.2958 210.331 63.3878 210.459 63.4198H210.927C211.119 63.3878 211.227 63.2598 211.251 63.0358C211.267 62.9078 211.279 62.7438 211.287 62.5438C211.303 62.3438 211.311 62.0998 211.311 61.8118L211.983 62.0638C211.983 63.0158 211.919 63.5918 211.791 63.7918C211.663 63.9838 211.391 64.0958 210.975 64.1278H210.447ZM213.84 60.4798H214.728V58.9558H213.84V60.4798ZM215.424 60.4798H216.336V58.9558H215.424V60.4798ZM215.424 61.1518V64.1878H214.728V61.1518H213.84V61.7518H213.156V56.1598H214.728V54.4558H215.424V56.1598H217.008V61.7278H216.336V61.1518H215.424ZM216.336 56.7958H215.424V58.3198H216.336V56.7958ZM214.728 56.7958H213.84V58.3198H214.728V56.7958ZM217.548 58.7878V58.0678C218.116 57.6838 218.648 57.2878 219.144 56.8798C219.648 56.4638 220.136 56.0278 220.608 55.5718H217.608V54.8878H221.616V55.5478C220.76 56.4598 219.8 57.3198 218.736 58.1278H222.36C222.328 59.3918 222.284 60.4238 222.228 61.2238C222.18 62.0158 222.12 62.5958 222.048 62.9638C221.864 63.7078 221.408 64.0798 220.68 64.0798C220.528 64.0798 220.376 64.0798 220.224 64.0798C220.072 64.0798 219.928 64.0758 219.792 64.0678L219.588 63.3358C219.924 63.3598 220.252 63.3718 220.572 63.3718C220.948 63.3638 221.204 63.1638 221.34 62.7718C221.468 62.4358 221.56 61.1078 221.616 58.7878H220.98C220.764 60.0118 220.456 60.9958 220.056 61.7398C219.584 62.5478 218.884 63.2678 217.956 63.8998L217.5 63.3118C218.34 62.7598 218.984 62.1318 219.432 61.4278C219.816 60.7558 220.104 59.8758 220.296 58.7878H219.588C219.204 60.0998 218.524 61.1438 217.548 61.9198L217.116 61.3918C217.948 60.7198 218.54 59.8518 218.892 58.7878H217.548ZM227.984 60.3718V61.4278H229.568V60.3718H227.984ZM227.984 62.0398V63.0598H229.568V62.0398H227.984ZM231.812 63.0598V62.0398H230.228V63.0598H231.812ZM227.984 63.7078V64.2238H227.288V59.8678C227.208 59.8998 227.136 59.9358 227.072 59.9758C227.008 60.0158 226.94 60.0478 226.868 60.0718L226.508 59.4958V59.6278L225.644 60.0838V63.2398C225.644 63.8398 225.34 64.1398 224.732 64.1398H223.832L223.664 63.3838C223.808 63.4078 223.944 63.4278 224.072 63.4438C224.208 63.4518 224.336 63.4558 224.456 63.4558C224.736 63.4558 224.876 63.3158 224.876 63.0358V60.4438C224.668 60.5238 224.46 60.6038 224.252 60.6838C224.052 60.7558 223.852 60.8278 223.652 60.8998L223.46 60.1558C223.7 60.0838 223.936 60.0118 224.168 59.9398C224.408 59.8598 224.644 59.7758 224.876 59.6878V57.2278H223.64V56.5078H224.876V54.4918H225.644V56.5078H226.556V57.2278H225.644V59.3398C225.788 59.2678 225.928 59.1918 226.064 59.1118C226.208 59.0238 226.356 58.9438 226.508 58.8718V59.4478C227.572 59.0318 228.36 58.5118 228.872 57.8878H226.832V57.2038H228.044C227.98 57.0358 227.908 56.8758 227.828 56.7238C227.748 56.5718 227.66 56.4238 227.564 56.2798L228.188 56.0518C228.284 56.2038 228.376 56.3798 228.464 56.5798C228.552 56.7718 228.632 56.9798 228.704 57.2038H229.556V55.6678C229.172 55.6838 228.772 55.6998 228.356 55.7158C227.948 55.7238 227.524 55.7278 227.084 55.7278L226.868 55.1038C229.124 55.0958 231.016 54.9038 232.544 54.5278L232.904 55.1398C232.128 55.3478 231.24 55.4958 230.24 55.5838V57.2038H231.056C231.168 56.9878 231.276 56.7638 231.38 56.5318C231.492 56.2918 231.596 56.0478 231.692 55.7998L232.352 56.0518C232.176 56.4518 231.972 56.8358 231.74 57.2038H233.048V57.8878H230.936C231.496 58.4558 232.308 58.9518 233.372 59.3758L233.036 60.0238C231.916 59.4798 231.024 58.7678 230.36 57.8878H230.24V59.3998H229.556V57.8878H229.424C228.984 58.6078 228.336 59.2278 227.48 59.7478H232.508V64.2238H231.812V63.7078H227.984ZM231.812 61.4278V60.3718H230.228V61.4278H231.812ZM239.453 58.4638C239.357 58.6158 239.261 58.7638 239.165 58.9078C239.069 59.0438 238.969 59.1718 238.865 59.2918L238.385 58.7398C239.225 57.6438 239.785 56.2118 240.065 54.4438L240.833 54.5638C240.785 54.8278 240.733 55.0878 240.677 55.3438C240.621 55.5998 240.557 55.8478 240.485 56.0878H243.617V56.8078H242.837C242.765 58.6158 242.345 60.1478 241.577 61.4038C242.241 62.3478 243.041 63.0838 243.977 63.6118L243.545 64.2598C242.601 63.7238 241.801 62.9838 241.145 62.0398C240.513 62.9038 239.697 63.6198 238.697 64.1878L238.265 63.5038C238.785 63.2238 239.245 62.9078 239.645 62.5558C240.053 62.2038 240.409 61.8158 240.713 61.3918C240.457 60.9598 240.225 60.4998 240.017 60.0118C239.817 59.5238 239.629 59.0078 239.453 58.4638ZM240.257 56.8078C240.201 56.9678 240.141 57.1158 240.077 57.2518C240.021 57.3878 239.961 57.5198 239.897 57.6478C240.057 58.2478 240.241 58.7998 240.449 59.3038C240.657 59.7998 240.885 60.2678 241.133 60.7078C241.741 59.5798 242.061 58.2798 242.093 56.8078H240.257ZM236.321 56.0758C236.225 55.8198 236.117 55.5678 235.997 55.3198C235.885 55.0718 235.765 54.8278 235.637 54.5878L236.393 54.3958C236.537 54.6998 236.669 54.9918 236.789 55.2718C236.909 55.5518 237.013 55.8198 237.101 56.0758H238.685V56.7958H236.117V57.7798C236.117 57.8838 236.113 57.9878 236.105 58.0918C236.097 58.1958 236.093 58.2958 236.093 58.3918H238.121C238.121 59.6958 238.109 60.7438 238.085 61.5358C238.069 62.3198 238.037 62.8638 237.989 63.1678C237.877 63.7758 237.449 64.0798 236.705 64.0798C236.625 64.0798 236.525 64.0758 236.405 64.0678C236.285 64.0598 236.133 64.0518 235.949 64.0438L235.793 63.3718C235.945 63.3798 236.085 63.3878 236.213 63.3958C236.349 63.3958 236.473 63.3958 236.585 63.3958C236.969 63.3958 237.197 63.2198 237.269 62.8678C237.317 62.6678 237.349 62.2518 237.365 61.6198C237.389 60.9878 237.405 60.1478 237.413 59.0998H236.069C235.909 61.3798 235.441 63.0798 234.665 64.1998L234.065 63.6718C234.929 62.4638 235.369 60.4998 235.385 57.7798V56.7958H234.293V56.0758H236.321Z" fill="#FF9153"/>
<path opacity="0.6" d="M89.1332 87.2478V83.4798H89.8652V87.2478H91.1372V87.9318H89.8652V88.2678C90.1212 88.5478 90.3812 88.8438 90.6452 89.1558C90.9172 89.4598 91.1852 89.7798 91.4492 90.1158L91.0172 90.7518C90.7852 90.3678 90.5732 90.0318 90.3812 89.7438C90.1892 89.4478 90.0172 89.1758 89.8652 88.9278V93.2238H89.1332V89.1198C88.9492 89.5918 88.7412 90.0438 88.5092 90.4758C88.2772 90.8998 88.0132 91.3038 87.7172 91.6878L87.3932 90.8598C88.1772 89.9958 88.7452 89.0198 89.0972 87.9318H87.6092V87.2478H89.1332ZM91.3172 84.2478C91.2852 84.7038 91.2252 85.1318 91.1372 85.5318C91.0572 85.9238 90.9532 86.2958 90.8252 86.6478L90.2972 86.4678C90.5292 85.7958 90.6772 85.0318 90.7412 84.1758L91.3172 84.2478ZM88.2092 84.3678C88.3692 85.0158 88.5172 85.7598 88.6532 86.5998L88.1132 86.7198C88.0492 86.3358 87.9772 85.9638 87.8972 85.6038C87.8252 85.2438 87.7372 84.8878 87.6332 84.5358L88.2092 84.3678ZM94.7372 83.4558V84.1518H96.9452V84.7878H94.7372V85.4958H96.6572V86.1198H94.7372V86.8518H97.2212V87.4758H91.4732V86.8518H94.0052V86.1198H92.0132V85.4958H94.0052V84.7878H91.7252V84.1518H94.0052V83.4558H94.7372ZM92.7812 90.9078H95.8892V90.1518H92.7812V90.9078ZM95.8892 88.7838H92.7812V89.5638H95.8892V88.7838ZM92.7812 93.1998H92.0732V88.1478H96.6332V92.2998C96.6332 92.8678 96.3372 93.1518 95.7452 93.1518H95.0132L94.8212 92.4678L95.5412 92.5158C95.7732 92.5158 95.8892 92.3878 95.8892 92.1318V91.5078H92.7812V93.1998ZM103.734 84.2358C102.414 84.6518 100.63 84.8598 98.3818 84.8598L98.1778 84.1878C100.25 84.1878 101.982 83.9878 103.374 83.5878L103.734 84.2358ZM103.554 85.1238C103.442 85.5478 103.318 85.9438 103.182 86.3118C103.054 86.6798 102.906 87.0198 102.738 87.3318L102.114 87.1278C102.274 86.8398 102.414 86.5198 102.534 86.1678C102.662 85.8078 102.786 85.4078 102.906 84.9678L103.554 85.1238ZM107.13 83.9478C106.354 84.9398 105.39 85.7558 104.238 86.3958L103.902 85.6878C104.454 85.3998 104.954 85.0638 105.402 84.6798C105.858 84.2958 106.266 83.8678 106.626 83.3958L107.13 83.9478ZM107.586 86.8518C107.162 87.3638 106.686 87.8398 106.158 88.2798C105.638 88.7118 105.058 89.1038 104.418 89.4558L104.094 88.7598C105.31 88.1278 106.31 87.2998 107.094 86.2758L107.586 86.8518ZM107.922 89.7678C106.922 91.1358 105.658 92.2718 104.13 93.1758L103.794 92.4678C105.242 91.6518 106.442 90.5598 107.394 89.1918L107.922 89.7678ZM100.818 88.3038V87.2718H101.562V88.3038H103.686V89.0598H101.562V89.7318C101.898 89.9158 102.234 90.1198 102.57 90.3438C102.906 90.5598 103.25 90.7918 103.602 91.0398L103.17 91.7118C102.858 91.4398 102.57 91.1998 102.306 90.9918C102.042 90.7758 101.794 90.5878 101.562 90.4278V93.2118H100.818V89.9238C100.498 90.4438 100.154 90.9158 99.7858 91.3398C99.4178 91.7638 99.0218 92.1518 98.5978 92.5038L98.1178 91.8438C99.2058 91.0358 100.05 90.1078 100.65 89.0598H98.5018V88.3038H100.818ZM100.974 85.1238C101.102 85.4118 101.218 85.6838 101.322 85.9398C101.434 86.1958 101.53 86.4438 101.61 86.6838L100.962 86.9118C100.866 86.6398 100.766 86.3718 100.662 86.1078C100.566 85.8438 100.45 85.5798 100.314 85.3158L100.974 85.1238ZM99.0538 85.3278C99.3658 85.8958 99.6378 86.5198 99.8698 87.1998L99.2578 87.3438C99.1458 87.0318 99.0218 86.7238 98.8858 86.4198C98.7498 86.1158 98.6098 85.8158 98.4658 85.5198L99.0538 85.3278ZM110.114 88.1358H112.634V86.6718H110.114V88.1358ZM112.634 84.5718H110.114V85.9878H112.634V84.5718ZM108.998 92.1798C109.238 92.0918 109.358 91.9518 109.358 91.7598V83.8878H113.354V88.8438H110.114V91.9158C110.578 91.7718 111.018 91.6318 111.434 91.4958C111.85 91.3598 112.242 91.2198 112.61 91.0758C112.506 90.8918 112.398 90.7078 112.286 90.5238C112.174 90.3318 112.058 90.1478 111.938 89.9718L112.538 89.5878C113.202 90.6038 113.706 91.5078 114.05 92.2998L113.486 92.7318C113.406 92.5638 113.322 92.3958 113.234 92.2278C113.154 92.0518 113.066 91.8758 112.97 91.6998C111.906 92.1478 110.674 92.5478 109.274 92.8998L108.998 92.1798ZM116.162 91.7598L115.97 91.0038L116.858 91.0278C117.17 91.0278 117.326 90.8838 117.326 90.5958V84.6318H115.382V93.1878H114.614V83.8878H118.07V90.7518C118.07 91.4238 117.754 91.7598 117.122 91.7598H116.162ZM127.091 88.6278V87.5478H127.871V88.6278H129.143V89.3598H127.871V92.2278C127.871 92.8678 127.523 93.1878 126.827 93.1878H125.423L125.267 92.4678C125.491 92.4838 125.711 92.4958 125.927 92.5038C126.143 92.5118 126.355 92.5158 126.563 92.5158C126.915 92.5158 127.091 92.3558 127.091 92.0358V89.3598H123.047V88.6278H127.091ZM122.423 83.4678V93.2118H121.655V89.6958C120.951 90.3438 120.295 90.8678 119.687 91.2678L119.351 90.5238C119.671 90.3478 120.019 90.1118 120.395 89.8158C120.779 89.5118 121.199 89.1638 121.655 88.7718V83.4678H122.423ZM124.403 89.7918C125.003 90.4478 125.459 91.0198 125.771 91.5078L125.171 91.9278C125.011 91.6638 124.819 91.3838 124.595 91.0878C124.371 90.7838 124.123 90.4718 123.851 90.1518L124.403 89.7918ZM125.147 84.9558C124.899 85.2358 124.623 85.4958 124.319 85.7358C124.023 85.9678 123.691 86.1758 123.323 86.3598L122.819 85.7718C123.979 85.2118 124.763 84.4398 125.171 83.4558L125.951 83.5998C125.903 83.7118 125.851 83.8238 125.795 83.9358C125.747 84.0478 125.695 84.1518 125.639 84.2478H128.735V84.9078C128.135 86.4678 126.459 87.5638 123.707 88.1958L123.335 87.5118C124.151 87.3358 124.887 87.1158 125.543 86.8518C125.367 86.6918 125.195 86.5478 125.027 86.4198C124.859 86.2838 124.695 86.1558 124.535 86.0358L125.087 85.6158C125.279 85.7518 125.463 85.8998 125.639 86.0598C125.823 86.2198 126.007 86.3838 126.191 86.5518C126.983 86.1118 127.559 85.5798 127.919 84.9558H125.147ZM120.023 84.7158C120.287 85.0758 120.523 85.4478 120.731 85.8318C120.939 86.2158 121.135 86.6118 121.319 87.0198L120.635 87.3078C120.251 86.4038 119.827 85.6278 119.363 84.9798L120.023 84.7158ZM139.076 84.1038V84.8478H137.3V87.6678H139.628V88.3998H137.3V93.1278H136.52V88.3998H133.448C133.36 89.4878 133.156 90.3958 132.836 91.1238C132.42 92.0198 131.748 92.7118 130.82 93.1998L130.412 92.5398C131.276 92.0518 131.876 91.4038 132.212 90.5958C132.436 89.9718 132.588 89.2398 132.668 88.3998H130.22V87.6678H132.716C132.716 87.5958 132.716 87.5318 132.716 87.4758C132.724 87.4118 132.728 87.3518 132.728 87.2958V84.8478H130.796V84.1038H139.076ZM133.508 87.2958C133.508 87.3598 133.504 87.4238 133.496 87.4878C133.488 87.5438 133.484 87.6038 133.484 87.6678H136.52V84.8478H133.508V87.2958ZM142.732 83.4798C142.636 84.2078 142.54 84.8798 142.444 85.4958H144.028V85.9398C143.948 87.6518 143.648 89.1398 143.128 90.4038C143.376 90.6678 143.6 90.9198 143.8 91.1598C144.008 91.3918 144.196 91.6118 144.364 91.8198L143.848 92.4198C143.704 92.2198 143.544 92.0158 143.368 91.8078C143.192 91.5998 143 91.3758 142.792 91.1358C142.368 91.9438 141.84 92.6518 141.208 93.2598L140.74 92.6478C141.044 92.3598 141.324 92.0478 141.58 91.7118C141.844 91.3758 142.076 90.9998 142.276 90.5838C142.052 90.3758 141.824 90.1598 141.592 89.9358C141.368 89.7038 141.136 89.4678 140.896 89.2278C141.152 88.3158 141.376 87.3158 141.568 86.2278H140.716V85.4958H141.7C141.804 84.8158 141.9 84.1278 141.988 83.4318L142.732 83.4798ZM142.588 89.8518C143.004 88.7878 143.24 87.5798 143.296 86.2278H142.336C142.232 86.7878 142.128 87.2998 142.024 87.7638C141.92 88.2198 141.82 88.6398 141.724 89.0238C141.868 89.1598 142.012 89.2998 142.156 89.4438C142.308 89.5798 142.452 89.7158 142.588 89.8518ZM149.644 93.2238H148.912V92.5998H145.636V93.2238H144.916V88.6998H149.644V93.2238ZM148.912 91.8678V89.3958H145.636V91.8678H148.912ZM144.376 87.0438C145 86.7318 145.772 85.5358 146.692 83.4558L147.4 83.7078C147.08 84.4038 146.764 85.0238 146.452 85.5678C146.14 86.1038 145.824 86.5798 145.504 86.9958C146.104 86.9558 146.684 86.9038 147.244 86.8398C147.804 86.7758 148.36 86.7038 148.912 86.6238C148.752 86.3358 148.6 86.0558 148.456 85.7838C148.312 85.5118 148.164 85.2518 148.012 85.0038L148.66 84.6918C148.956 85.1558 149.24 85.6438 149.512 86.1558C149.792 86.6678 150.056 87.2038 150.304 87.7638L149.596 88.1118C149.54 87.9598 149.48 87.8158 149.416 87.6798C149.352 87.5438 149.292 87.4078 149.236 87.2718C148.516 87.3758 147.764 87.4678 146.98 87.5478C146.204 87.6278 145.38 87.6918 144.508 87.7398L144.376 87.0438ZM151.741 92.0358C151.741 91.7398 151.813 91.5318 151.957 91.4118C152.101 91.2918 152.273 91.2318 152.473 91.2318C152.681 91.2318 152.857 91.2918 153.001 91.4118C153.153 91.5318 153.229 91.7398 153.229 92.0358C153.229 92.3238 153.153 92.5318 153.001 92.6598C152.857 92.7878 152.681 92.8518 152.473 92.8518C152.273 92.8518 152.101 92.7878 151.957 92.6598C151.813 92.5318 151.741 92.3238 151.741 92.0358ZM154.952 92.0358C154.952 91.7398 155.024 91.5318 155.168 91.4118C155.312 91.2918 155.484 91.2318 155.684 91.2318C155.892 91.2318 156.068 91.2918 156.212 91.4118C156.364 91.5318 156.44 91.7398 156.44 92.0358C156.44 92.3238 156.364 92.5318 156.212 92.6598C156.068 92.7878 155.892 92.8518 155.684 92.8518C155.484 92.8518 155.312 92.7878 155.168 92.6598C155.024 92.5318 154.952 92.3238 154.952 92.0358ZM158.163 92.0358C158.163 91.7398 158.235 91.5318 158.379 91.4118C158.523 91.2918 158.695 91.2318 158.895 91.2318C159.103 91.2318 159.279 91.2918 159.423 91.4118C159.575 91.5318 159.651 91.7398 159.651 92.0358C159.651 92.3238 159.575 92.5318 159.423 92.6598C159.279 92.7878 159.103 92.8518 158.895 92.8518C158.695 92.8518 158.523 92.7878 158.379 92.6598C158.235 92.5318 158.163 92.3238 158.163 92.0358Z" fill="#FF9153"/>
<defs>
<linearGradient id="paint0_linear_501_27049" x1="51.6766" y1="13" x2="27.7306" y2="13" gradientUnits="userSpaceOnUse">
<stop stop-color="#FF9153"/>
<stop offset="1" stop-color="#FE58B5"/>
</linearGradient>
<linearGradient id="paint1_linear_501_27049" x1="51.6766" y1="13" x2="27.7306" y2="13" gradientUnits="userSpaceOnUse">
<stop stop-color="#FF9153"/>
<stop offset="1" stop-color="#FE58B5"/>
</linearGradient>
<linearGradient id="paint2_linear_501_27049" x1="51.6766" y1="13" x2="27.7306" y2="13" gradientUnits="userSpaceOnUse">
<stop stop-color="#FF9153"/>
<stop offset="1" stop-color="#FE58B5"/>
</linearGradient>
<linearGradient id="paint3_linear_501_27049" x1="217.622" y1="13" x2="85.326" y2="13.0001" gradientUnits="userSpaceOnUse">
<stop stop-color="#FF9153"/>
<stop offset="0.5" stop-color="#FF7584"/>
<stop offset="1" stop-color="#FE58B5"/>
</linearGradient>
<linearGradient id="paint4_linear_501_27049" x1="247.544" y1="38.3419" x2="-1.8068e-06" y2="38.3406" gradientUnits="userSpaceOnUse">
<stop stop-color="#FF8448" stop-opacity="0"/>
<stop offset="0.5" stop-color="#FF8448"/>
<stop offset="1" stop-color="#FF8448" stop-opacity="0"/>
</linearGradient>
</defs>
</svg>
