<svg width="10" height="15" viewBox="0 0 10 15" fill="none" xmlns="http://www.w3.org/2000/svg">
<path d="M5.00006 14.3335C3.99816 14.3334 3.0194 14.0323 2.19067 13.4693C1.36194 12.9062 0.721464 12.1072 0.352293 11.1758C-0.0168769 10.2444 -0.0977182 9.22357 0.120251 8.24567C0.33822 7.26777 0.844947 6.37791 1.57473 5.69145C2.4694 4.84945 4.66673 3.33346 4.3334 0.00012207C8.3334 2.66679 10.3334 5.33346 6.3334 9.33346C7.00006 9.33346 8.00006 9.33346 9.66673 7.68679C9.84673 8.20212 10.0001 8.75612 10.0001 9.33346C10.0001 10.6595 9.47328 11.9313 8.5356 12.869C7.59792 13.8067 6.32615 14.3335 5.00006 14.3335Z" fill="url(#paint0_linear_162_9541)"/>
<defs>
<linearGradient id="paint0_linear_162_9541" x1="9.61881" y1="7.1668" x2="1.35064" y2="7.1668" gradientUnits="userSpaceOnUse">
<stop stop-color="#FF9153"/>
<stop offset="0.5" stop-color="#FF7584"/>
<stop offset="1" stop-color="#FE58B5"/>
</linearGradient>
</defs>
</svg>
