<svg width="12" height="12" viewBox="0 0 12 12" fill="none" xmlns="http://www.w3.org/2000/svg">
<path d="M6.00017 11.5C5.24875 11.4999 4.51467 11.2741 3.89312 10.8519C3.27157 10.4296 2.79122 9.83032 2.51434 9.13177C2.23746 8.43321 2.17683 7.66759 2.34031 6.93416C2.50379 6.20074 2.88383 5.53334 3.43117 5.0185C4.10217 4.387 5.75017 3.25 5.50017 0.75C8.50017 2.75 10.0002 4.75 7.00017 7.75C7.50017 7.75 8.25017 7.75 9.50017 6.515C9.63517 6.9015 9.75017 7.317 9.75017 7.75C9.75017 8.74456 9.35508 9.69839 8.65182 10.4017C7.94856 11.1049 6.99473 11.5 6.00017 11.5Z" fill="url(#paint0_linear_38_15942)"/>
<defs>
<linearGradient id="paint0_linear_38_15942" x1="9.46423" y1="6.12501" x2="3.2631" y2="6.12501" gradientUnits="userSpaceOnUse">
<stop stop-color="#FF9153"/>
<stop offset="0.5" stop-color="#FF7584"/>
<stop offset="1" stop-color="#FE58B5"/>
</linearGradient>
</defs>
</svg>
