<svg width="73" height="73" viewBox="0 0 73 73" fill="none" xmlns="http://www.w3.org/2000/svg">
<g filter="url(#filter0_d_679_1026)">
<rect x="12.3333" y="12.5005" width="48" height="48" rx="24" fill="black" fill-opacity="0.04" shape-rendering="crispEdges"/>
<path d="M36.2627 40.0169C41.0136 40.0169 45.0702 40.7701 45.0702 43.7841C45.0702 46.7968 41.0396 47.5774 36.2627 47.5774C31.5119 47.5774 27.4553 46.8242 27.4553 43.8115C27.4553 40.7975 31.4858 40.0169 36.2627 40.0169ZM43.8588 38.202C45.6751 38.1684 47.6278 38.4178 48.3493 38.5948C49.878 38.8954 50.8834 39.5089 51.3 40.4005C51.6521 41.1325 51.6521 41.9817 51.3 42.7124C50.6628 44.0953 48.6084 44.5393 47.81 44.654C47.6451 44.6789 47.5124 44.5355 47.5298 44.3697C47.9377 40.5377 44.6932 38.7208 43.8538 38.303C43.8179 38.2843 43.8104 38.2557 43.8142 38.2382C43.8166 38.2257 43.8315 38.2058 43.8588 38.202ZM28.4667 38.1994L28.8088 38.2025C28.836 38.2063 28.8497 38.2262 28.8521 38.2374C28.8559 38.2562 28.8484 38.2836 28.8137 38.3035C27.9731 38.7213 24.7286 40.5381 25.1365 44.3689C25.1539 44.536 25.0224 44.6782 24.8575 44.6545C24.0591 44.5398 22.0048 44.0958 21.3675 42.7129C21.0142 41.9809 21.0142 41.133 21.3675 40.401C21.7841 39.5094 22.7883 38.8959 24.317 38.5941C25.0398 38.4183 26.9912 38.1689 28.8088 38.2025L28.4667 38.1994ZM36.2627 25.4236C39.4973 25.4236 42.091 28.0298 42.091 31.2845C42.091 34.5379 39.4973 37.1466 36.2627 37.1466C33.0281 37.1466 30.4345 34.5379 30.4345 31.2845C30.4345 28.0298 33.0281 25.4236 36.2627 25.4236ZM44.1749 26.401C47.2992 26.401 49.7527 29.3576 48.9171 32.6509C48.353 34.8681 46.3111 36.3408 44.0361 36.2809C43.808 36.2747 43.5836 36.2535 43.3666 36.2161C43.2091 36.1886 43.1298 36.0103 43.2191 35.8781C44.0869 34.5937 44.5816 33.0487 44.5816 31.3902C44.5816 29.6594 44.041 28.0458 43.1025 26.7227C43.0728 26.6816 43.0505 26.618 43.0802 26.5706C43.105 26.5319 43.1509 26.512 43.1943 26.502C43.5104 26.4371 43.8352 26.401 44.1749 26.401ZM28.4907 26.4009C28.8305 26.4009 29.1553 26.437 29.4727 26.5019C29.5148 26.5118 29.5619 26.533 29.5867 26.5704C29.6152 26.6178 29.5942 26.6814 29.5644 26.7226C28.6259 28.0456 28.0853 29.6592 28.0853 31.3901C28.0853 33.0486 28.58 34.5936 29.4479 35.878C29.5371 36.0102 29.4578 36.1885 29.3003 36.2159C29.0821 36.2546 28.859 36.2746 28.6308 36.2808C26.3558 36.3406 24.3139 34.8679 23.7498 32.6508C22.9129 29.3575 25.3665 26.4009 28.4907 26.4009Z" fill="#080808" fill-opacity="0.8"/>
</g>
<defs>
<filter id="filter0_d_679_1026" x="0.333252" y="0.500488" width="72" height="72" filterUnits="userSpaceOnUse" color-interpolation-filters="sRGB">
<feFlood flood-opacity="0" result="BackgroundImageFix"/>
<feColorMatrix in="SourceAlpha" type="matrix" values="0 0 0 0 0 0 0 0 0 0 0 0 0 0 0 0 0 0 127 0" result="hardAlpha"/>
<feOffset/>
<feGaussianBlur stdDeviation="6"/>
<feComposite in2="hardAlpha" operator="out"/>
<feColorMatrix type="matrix" values="0 0 0 0 0 0 0 0 0 0 0 0 0 0 0 0 0 0 0.22 0"/>
<feBlend mode="normal" in2="BackgroundImageFix" result="effect1_dropShadow_679_1026"/>
<feBlend mode="normal" in="SourceGraphic" in2="effect1_dropShadow_679_1026" result="shape"/>
</filter>
</defs>
</svg>
