<svg width="49" height="49" viewBox="0 0 49 49" fill="none" xmlns="http://www.w3.org/2000/svg">
<rect x="0.333252" y="0.500488" width="48" height="48" rx="24" fill="white" fill-opacity="0.12"/>
<path d="M24.2627 28.0169C29.0136 28.0169 33.0702 28.7701 33.0702 31.7841C33.0702 34.7968 29.0396 35.5774 24.2627 35.5774C19.5119 35.5774 15.4553 34.8242 15.4553 31.8115C15.4553 28.7975 19.4858 28.0169 24.2627 28.0169ZM31.8588 26.202C33.6751 26.1684 35.6278 26.4178 36.3493 26.5948C37.878 26.8954 38.8834 27.5089 39.3 28.4005C39.6521 29.1325 39.6521 29.9817 39.3 30.7124C38.6628 32.0953 36.6084 32.5393 35.81 32.654C35.6451 32.6789 35.5124 32.5355 35.5298 32.3697C35.9377 28.5377 32.6932 26.7208 31.8538 26.303C31.8179 26.2843 31.8104 26.2557 31.8142 26.2382C31.8166 26.2257 31.8315 26.2058 31.8588 26.202ZM16.4667 26.1994L16.8088 26.2025C16.836 26.2063 16.8497 26.2262 16.8521 26.2374C16.8559 26.2562 16.8484 26.2836 16.8137 26.3035C15.9731 26.7213 12.7286 28.5381 13.1365 32.3689C13.1539 32.536 13.0224 32.6782 12.8575 32.6545C12.0591 32.5398 10.0048 32.0958 9.36754 30.7129C9.0142 29.9809 9.0142 29.133 9.36754 28.401C9.78411 27.5094 10.7883 26.8959 12.317 26.5941C13.0398 26.4183 14.9912 26.1689 16.8088 26.2025L16.4667 26.1994ZM24.2627 13.4236C27.4973 13.4236 30.091 16.0298 30.091 19.2845C30.091 22.5379 27.4973 25.1466 24.2627 25.1466C21.0281 25.1466 18.4345 22.5379 18.4345 19.2845C18.4345 16.0298 21.0281 13.4236 24.2627 13.4236ZM32.1749 14.401C35.2992 14.401 37.7527 17.3576 36.9171 20.6509C36.353 22.8681 34.3111 24.3408 32.0361 24.2809C31.808 24.2747 31.5836 24.2535 31.3666 24.2161C31.2091 24.1886 31.1298 24.0103 31.2191 23.8781C32.0869 22.5937 32.5816 21.0487 32.5816 19.3902C32.5816 17.6594 32.041 16.0458 31.1025 14.7227C31.0728 14.6816 31.0505 14.618 31.0802 14.5706C31.105 14.5319 31.1509 14.512 31.1943 14.502C31.5104 14.4371 31.8352 14.401 32.1749 14.401ZM16.4907 14.4009C16.8305 14.4009 17.1553 14.437 17.4727 14.5019C17.5148 14.5118 17.5619 14.533 17.5867 14.5704C17.6152 14.6178 17.5942 14.6814 17.5644 14.7226C16.6259 16.0456 16.0853 17.6592 16.0853 19.3901C16.0853 21.0486 16.58 22.5936 17.4479 23.878C17.5371 24.0102 17.4578 24.1885 17.3003 24.2159C17.0821 24.2546 16.859 24.2746 16.6308 24.2808C14.3558 24.3406 12.3139 22.8679 11.7498 20.6508C10.9129 17.3575 13.3665 14.4009 16.4907 14.4009Z" fill="white"/>
</svg>
