<svg width="72" height="73" viewBox="0 0 72 73" fill="none" xmlns="http://www.w3.org/2000/svg">
<g filter="url(#filter0_d_679_1032)">
<rect x="12" y="12.5005" width="48" height="48" rx="24" fill="black" fill-opacity="0.04" shape-rendering="crispEdges"/>
<path fill-rule="evenodd" clip-rule="evenodd" d="M41.1395 22.929H30.8605C29.7043 22.9297 28.5957 23.3445 27.7781 24.0821C26.9605 24.8198 26.5008 25.82 26.5 26.8632V46.1375C26.5008 47.1807 26.9605 48.181 27.7781 48.9186C28.5957 49.6563 29.7043 50.0711 30.8605 50.0718H41.1395C42.2957 50.0711 43.4043 49.6563 44.2219 48.9186C45.0395 48.181 45.4992 47.1807 45.5 46.1375V26.8632C45.4992 25.82 45.0395 24.8198 44.2219 24.0821C43.4043 23.3445 42.2957 22.9297 41.1395 22.929ZM36 47.2147C35.6868 47.2147 35.3807 47.1309 35.1203 46.9739C34.86 46.8169 34.657 46.5938 34.5372 46.3328C34.4174 46.0717 34.386 45.7845 34.4471 45.5074C34.5082 45.2303 34.659 44.9757 34.8804 44.7759C35.1018 44.5762 35.384 44.4401 35.6911 44.385C35.9982 44.3299 36.3166 44.3581 36.6059 44.4663C36.8952 44.5744 37.1425 44.7575 37.3165 44.9924C37.4905 45.2274 37.5833 45.5036 37.5833 45.7861C37.5833 46.165 37.4165 46.5283 37.1196 46.7962C36.8227 47.0642 36.4199 47.2147 36 47.2147ZM37.4131 28.3576H35.0211C34.6432 28.3576 34.3347 28.6648 34.3347 29.044V32.4929H32.9221C32.6459 32.4929 32.4048 32.6499 32.2943 32.9031C32.1838 33.1564 32.2303 33.4393 32.4182 33.6428L35.7123 37.2176C35.8416 37.357 36.0262 37.4385 36.2162 37.4385C36.4075 37.4385 36.5907 37.3577 36.72 37.2176L40.0153 33.6428C40.2032 33.4393 40.2497 33.1564 40.1392 32.9031C40.0287 32.6499 39.789 32.4929 39.5114 32.4929H38.0989L38.0995 29.044C38.0995 28.6648 37.7923 28.3576 37.4131 28.3576ZM31.5412 38.1801H40.8047C41.091 38.1801 41.3221 38.4111 41.3221 38.6974C41.3221 38.9837 41.091 39.2148 40.8047 39.2148H31.5412C31.2549 39.2148 31.0238 38.9837 31.0238 38.6974C31.0238 38.4111 31.2549 38.1801 31.5412 38.1801Z" fill="#080808" fill-opacity="0.8"/>
</g>
<defs>
<filter id="filter0_d_679_1032" x="0" y="0.500488" width="72" height="72" filterUnits="userSpaceOnUse" color-interpolation-filters="sRGB">
<feFlood flood-opacity="0" result="BackgroundImageFix"/>
<feColorMatrix in="SourceAlpha" type="matrix" values="0 0 0 0 0 0 0 0 0 0 0 0 0 0 0 0 0 0 127 0" result="hardAlpha"/>
<feOffset/>
<feGaussianBlur stdDeviation="6"/>
<feComposite in2="hardAlpha" operator="out"/>
<feColorMatrix type="matrix" values="0 0 0 0 0 0 0 0 0 0 0 0 0 0 0 0 0 0 0.22 0"/>
<feBlend mode="normal" in2="BackgroundImageFix" result="effect1_dropShadow_679_1032"/>
<feBlend mode="normal" in="SourceGraphic" in2="effect1_dropShadow_679_1032" result="shape"/>
</filter>
</defs>
</svg>
