<svg width="48" height="49" viewBox="0 0 48 49" fill="none" xmlns="http://www.w3.org/2000/svg">
<rect y="0.500488" width="48" height="48" rx="24" fill="white" fill-opacity="0.12"/>
<path fill-rule="evenodd" clip-rule="evenodd" d="M29.1395 10.929H18.8605C17.7043 10.9297 16.5957 11.3445 15.7781 12.0821C14.9605 12.8198 14.5008 13.82 14.5 14.8632V34.1375C14.5008 35.1807 14.9605 36.181 15.7781 36.9186C16.5957 37.6563 17.7043 38.0711 18.8605 38.0718H29.1395C30.2957 38.0711 31.4043 37.6563 32.2219 36.9186C33.0395 36.181 33.4992 35.1807 33.5 34.1375V14.8632C33.4992 13.82 33.0395 12.8198 32.2219 12.0821C31.4043 11.3445 30.2957 10.9297 29.1395 10.929ZM24 35.2147C23.6868 35.2147 23.3807 35.1309 23.1203 34.9739C22.86 34.8169 22.657 34.5938 22.5372 34.3328C22.4174 34.0717 22.386 33.7845 22.4471 33.5074C22.5082 33.2303 22.659 32.9757 22.8804 32.7759C23.1018 32.5762 23.384 32.4401 23.6911 32.385C23.9982 32.3299 24.3166 32.3581 24.6059 32.4663C24.8952 32.5744 25.1425 32.7575 25.3165 32.9924C25.4905 33.2274 25.5833 33.5036 25.5833 33.7861C25.5833 34.165 25.4165 34.5283 25.1196 34.7962C24.8227 35.0642 24.4199 35.2147 24 35.2147ZM25.4131 16.3576H23.0211C22.6432 16.3576 22.3347 16.6648 22.3347 17.044V20.4929H20.9221C20.6459 20.4929 20.4048 20.6499 20.2943 20.9031C20.1838 21.1564 20.2303 21.4393 20.4182 21.6428L23.7123 25.2176C23.8416 25.357 24.0262 25.4385 24.2162 25.4385C24.4075 25.4385 24.5907 25.3577 24.72 25.2176L28.0153 21.6428C28.2032 21.4393 28.2497 21.1564 28.1392 20.9031C28.0287 20.6499 27.789 20.4929 27.5114 20.4929H26.0989L26.0995 17.044C26.0995 16.6648 25.7923 16.3576 25.4131 16.3576ZM19.5412 26.1801H28.8047C29.091 26.1801 29.3221 26.4111 29.3221 26.6974C29.3221 26.9837 29.091 27.2148 28.8047 27.2148H19.5412C19.2549 27.2148 19.0238 26.9837 19.0238 26.6974C19.0238 26.4111 19.2549 26.1801 19.5412 26.1801Z" fill="white"/>
</svg>
