<svg width="73" height="73" viewBox="0 0 73 73" fill="none" xmlns="http://www.w3.org/2000/svg">
<g filter="url(#filter0_d_679_1041)">
<rect x="12.6665" y="12.5005" width="48" height="48" rx="24" fill="black" fill-opacity="0.04" shape-rendering="crispEdges"/>
<path fill-rule="evenodd" clip-rule="evenodd" d="M36.6665 21.0005C28.1121 21.0005 21.1665 27.946 21.1665 36.5005C21.1665 45.0549 28.1121 52.0005 36.6665 52.0005C45.221 52.0005 52.1665 45.0549 52.1665 36.5005C52.1665 27.946 45.221 21.0005 36.6665 21.0005ZM33.9261 38.6922L41.5986 31.0197C42.2031 30.4152 43.1858 30.4152 43.7903 31.0197C44.3948 31.6257 44.3948 32.6069 43.7903 33.2129L35.022 41.9813C34.4175 42.5858 33.4348 42.5858 32.8303 41.9813L29.5427 38.6922C28.9367 38.0877 28.9367 37.105 29.5427 36.5005C30.1472 35.896 31.1284 35.896 31.7344 36.5005L33.9261 38.6922Z" fill="#080808" fill-opacity="0.8"/>
</g>
<defs>
<filter id="filter0_d_679_1041" x="0.666504" y="0.500488" width="72" height="72" filterUnits="userSpaceOnUse" color-interpolation-filters="sRGB">
<feFlood flood-opacity="0" result="BackgroundImageFix"/>
<feColorMatrix in="SourceAlpha" type="matrix" values="0 0 0 0 0 0 0 0 0 0 0 0 0 0 0 0 0 0 127 0" result="hardAlpha"/>
<feOffset/>
<feGaussianBlur stdDeviation="6"/>
<feComposite in2="hardAlpha" operator="out"/>
<feColorMatrix type="matrix" values="0 0 0 0 0 0 0 0 0 0 0 0 0 0 0 0 0 0 0.22 0"/>
<feBlend mode="normal" in2="BackgroundImageFix" result="effect1_dropShadow_679_1041"/>
<feBlend mode="normal" in="SourceGraphic" in2="effect1_dropShadow_679_1041" result="shape"/>
</filter>
</defs>
</svg>
