<svg width="49" height="49" viewBox="0 0 49 49" fill="none" xmlns="http://www.w3.org/2000/svg">
<rect x="0.666504" y="0.500488" width="48" height="48" rx="24" fill="white" fill-opacity="0.12"/>
<path fill-rule="evenodd" clip-rule="evenodd" d="M24.6665 9.00049C16.1121 9.00049 9.1665 15.946 9.1665 24.5005C9.1665 33.0549 16.1121 40.0005 24.6665 40.0005C33.221 40.0005 40.1665 33.0549 40.1665 24.5005C40.1665 15.946 33.221 9.00049 24.6665 9.00049ZM21.9261 26.6922L29.5986 19.0197C30.2031 18.4152 31.1858 18.4152 31.7903 19.0197C32.3948 19.6257 32.3948 20.6069 31.7903 21.2129L23.022 29.9813C22.4175 30.5858 21.4348 30.5858 20.8303 29.9813L17.5427 26.6922C16.9367 26.0877 16.9367 25.105 17.5427 24.5005C18.1472 23.896 19.1284 23.896 19.7344 24.5005L21.9261 26.6922Z" fill="white"/>
</svg>
